<svg xmlns="http://www.w3.org/2000/svg" xmlns:xlink="http://www.w3.org/1999/xlink" width="79.309" height="85" viewBox="0 0 79.309 85">
  <defs>
    <clipPath id="clip-path">
      <rect id="Rectángulo_4112" data-name="Rectángulo 4112" width="79.309" height="85" fill="#003b5c"/>
    </clipPath>
  </defs>
  <g id="Grupo_9058" data-name="Grupo 9058" clip-path="url(#clip-path)">
    <path id="Trazado_4479" data-name="Trazado 4479" d="M.026,48.916C.026,38.294.064,27.672,0,17.05A9.411,9.411,0,0,1,2.988,9.84c2.385-2.306,4.726-4.659,7.048-7.03A8.936,8.936,0,0,1,16.767,0c3.688.024,7.376.006,11.064.007a1.984,1.984,0,0,1,1.28.235,1.151,1.151,0,0,1,.5,1.347,1.245,1.245,0,0,1-1.364.885c-2.545-.011-5.09,0-7.635,0-.627,0-1.255-.021-1.881.008a2.448,2.448,0,0,0-2.541,2.608c-.023,2.4-.005,4.795-.008,7.192,0,2.816-1.115,3.914-3.967,3.917-2.323,0-4.647-.01-6.971,0A2.434,2.434,0,0,0,2.5,18.914q-.01,31.258-.021,62.516c0,.9.331,1.119,1.168,1.119q25.5-.027,51.009,0c.857,0,1.209-.257,1.158-1.14a23.361,23.361,0,0,1,0-2.985c.061-.861-.206-1.138-1.1-1.126-3.762.048-7.524-.005-11.285.034a3.584,3.584,0,0,1-3.362-1.49c-.348-.529-.849-.356-1.3-.356q-11.508-.016-23.015-.008c-1.473,0-2.1-.347-2.136-1.185C13.578,73.411,14.26,73,15.765,73c7.524,0,15.049-.016,22.573.02.913,0,1.2-.228,1.177-1.16-.05-2.418-.005-2.419-2.441-2.419H15.94c-.332,0-.665.009-1-.013a1.224,1.224,0,0,1-1.3-1.235,1.242,1.242,0,0,1,1.267-1.276,8.818,8.818,0,0,1,.995-.016c7.451,0,14.9-.015,22.351.018.9,0,1.3-.129,1.264-1.178-.077-2.384-.015-2.386-2.375-2.386q-10.677,0-21.355,0a7.5,7.5,0,0,1-1.1-.032,1.227,1.227,0,0,1-.073-2.415,5.139,5.139,0,0,1,1.1-.051c7.524,0,15.048-.021,22.572.021.974.005,1.257-.241,1.229-1.223-.071-2.506-.032-5.016-.021-7.524s1.318-3.808,3.832-3.819c1.992-.008,3.984-.021,5.975.009.613.009.86-.173.832-.811-.042-.957-.027-1.918-.005-2.876a2.8,2.8,0,0,1,3.037-3.025c2.632-.031,2.632-.031,2.632-2.644,0-11.692-.014-23.384.023-35.075,0-1.115-.307-1.447-1.432-1.439-6.417.05-12.835.024-19.252.024-.332,0-.666.015-1-.016a1.123,1.123,0,0,1-1.114-1.149A1.157,1.157,0,0,1,34.034.048a4.5,4.5,0,0,1,.991-.04q9.848,0,19.7,0c2.506,0,3.54,1.046,3.54,3.577,0,12.245.017,24.49-.027,36.735,0,1.1.31,1.351,1.35,1.309,2.062-.083,4.13-.036,6.2-.021a2.667,2.667,0,0,1,2.9,2.887c.015.958.042,1.92-.009,2.876-.038.709.178.969.922.952,1.991-.047,3.983-.023,5.975-.014,2.477.012,3.739,1.273,3.741,3.743q.007,10.788,0,21.576c0,2.456-1.21,3.671-3.653,3.685-1.623.009-3.246,0-4.868,0-.856,0-1.483-.343-1.464-1.268s.654-1.24,1.505-1.238c1.586,0,3.173-.026,4.758.01.879.02,1.278-.284,1.27-1.213q-.046-4.813,0-9.626c.006-.648-.228-.849-.832-.8-.44.033-.885,0-1.327.007a5.362,5.362,0,0,0-1.967.091c-.658.293-.128,1.143-.353,1.7a7.7,7.7,0,0,1-.457,1c-.853,1.466-3.22,1.413-5.338,1.044-1.286-.224-1.919-1.293-1.952-2.952-.014-.661-.2-.907-.886-.9q-4.315.043-8.63,0c-.693-.008-.855.225-.867.891-.037,2.1-1.064,3.087-3.157,3.127q-.719.014-1.438,0c-2.133-.038-3.125-.966-3.148-3.093-.009-.767-.285-.975-.971-.914-1.127.1-2.559-.473-3.3.251-.649.632-.172,2.038-.186,3.1-.027,2.1-.008,4.2-.008,6.307,0,1.971,0,1.972,2.028,1.972h19.7c.332,0,.666-.018,1,.015a1.181,1.181,0,0,1,1.192,1.211A1.149,1.149,0,0,1,64.706,77.3c-1.77.029-3.543.069-5.31,0-.937-.039-1.218.258-1.152,1.171.077,1.064.023,2.138.017,3.207C58.248,83.885,57.139,85,54.91,85q-14,.007-27.994,0Q15.243,85,3.57,85C1.035,85,.027,83.988.027,81.447q0-16.265,0-32.531M42.035,55.8c0,1.29.034,2.581-.014,3.868-.028.74.167,1.082.975,1.023a19.124,19.124,0,0,1,2.541,0c.707.042.952-.177.963-.921.033-2.163.995-3.072,3.131-3.09.442,0,.885,0,1.327,0,2.275.012,3.218.9,3.289,3.193.019.621.192.823.819.817q4.366-.04,8.733,0c.633.005.865-.22.819-.835a2.9,2.9,0,0,1,.621-2.172c1.2-1.438,5.266-1.482,6.5-.061a3.655,3.655,0,0,1,.652,1.267c.193.57-.321,1.409.344,1.7a5.391,5.391,0,0,0,1.965.089c.442.006.887-.029,1.326.008.606.05.841-.15.833-.8q-.048-3.924,0-7.849c.008-.841-.313-1.2-1.17-1.2q-16.251.019-32.5,0c-.874,0-1.176.372-1.153,1.2.034,1.252.009,2.505.009,3.758M13.738,3.092A83.33,83.33,0,0,0,3.123,13.813,13.986,13.986,0,0,1,5.851,13.7c2.1,0,4.193,0,6.289,0,1.5,0,1.508-.038,1.542-1.559.067-2.969-.2-5.946.055-9.043m48.5,45.216c.257,0,.515.01.771,0,1.022-.047,2.391.437,2.978-.174.683-.71.142-2.094.235-3.18.051-.6-.152-.861-.795-.853-2.131.027-4.262.022-6.393,0-.547-.005-.807.134-.78.739.041.917.043,1.838,0,2.754-.03.621.259.733.788.72,1.065-.025,2.131-.008,3.2-.007m-10.444,13.6q0-.659,0-1.319c0-1.432,0-1.432-1.443-1.432a5.306,5.306,0,0,1-.549,0c-.692-.074-.881.262-.857.907.04,1.061.01,2.125.011,3.187,0,1.415,0,1.415,1.419,1.415s1.418,0,1.42-1.438q0-.66,0-1.319m15.328-.007v.881c0,1.982,0,1.949,1.959,1.9.706-.018.873-.3.853-.932-.031-1.027-.007-2.055-.008-3.082,0-1.513,0-1.45-1.473-1.531-1.048-.059-1.49.259-1.342,1.335a10.562,10.562,0,0,1,.011,1.429M55.8,46.161c0-2.091,0-2.091-2.106-2.053-.11,0-.221.01-.33,0-.533-.041-.709.231-.7.73.017.918.021,1.836,0,2.754-.013.507.167.687.692.726,2.447.181,2.446.2,2.446-2.159" transform="translate(0 0)" fill="#003b5c"/>
    <path id="Trazado_4480" data-name="Trazado 4480" d="M39.478,44.525c0,3.466.018,6.932-.015,10.4-.007.719.108,1.021.938,1.025,3.75.018,5.658,2.186,5.33,5.943a1.559,1.559,0,0,1-1.6,1.634q-5.916.054-11.834,0c-.953-.008-1.437-.659-1.577-1.561a4.926,4.926,0,0,1,5.16-6.015c.915.007,1.163-.237,1.157-1.158q-.061-10.286,0-20.573c0-.854-.2-1.184-1.1-1.118a30.278,30.278,0,0,1-3.206.011c-1.352-.045-2.721-.212-3.384,1.41-.087.212-.362.361-.571.509a1.856,1.856,0,0,0-.755,2.587c1.185,2.616,2.415,5.212,3.63,7.816.077.166.131.393.265.474.678.407,1.291.808,1.313,1.742a7.079,7.079,0,0,1-.981,4.342,5.7,5.7,0,0,1-4.619,2.636,7.748,7.748,0,0,1-5.1-1,6.45,6.45,0,0,1-2.518-6.434.976.976,0,0,1,.3-.573c1.653-.97,1.862-2.829,2.659-4.313.765-1.425,1.389-2.927,2.063-4.4a2.052,2.052,0,0,0-.749-2.954A3.874,3.874,0,0,1,22.73,32.13a1.2,1.2,0,0,1,1.051-1.444A1.137,1.137,0,0,1,25.2,31.739c.12.829.45,1.421,1.362,1.442.844.02,1.209-.508,1.418-1.274a1.7,1.7,0,0,1,1.845-1.269c2.028,0,4.056-.037,6.083.016.836.022,1.23-.167,1.121-1.086-.1-.885.111-1.665,1.192-1.748.795-.061,1.314.585,1.237,1.711-.067.977.317,1.153,1.193,1.125,1.952-.062,3.908-.009,5.862-.022A1.8,1.8,0,0,1,48.54,32.1a1.279,1.279,0,0,0,1.451,1.076,1.223,1.223,0,0,0,1.211-1.2c.1-.855.548-1.414,1.453-1.285,1,.142,1.144.906,1.022,1.757A3.749,3.749,0,0,1,52.1,35.008a1.9,1.9,0,0,0-.8,2.579c1.2,2.651,2.444,5.281,3.672,7.918.062.133.1.336.209.379,1.574.649,1.373,2,1.3,3.282a5.673,5.673,0,0,1-2.1,4.118c-3.7,3.138-9.9,1.266-11.011-3.313a10.119,10.119,0,0,1-.124-2.531,1.113,1.113,0,0,1,.554-1.028c.844-.374,1.09-1.129,1.426-1.863q1.474-3.213,2.99-6.407a3.768,3.768,0,0,0,.375-1.925,14.916,14.916,0,0,0-2.877-3.094c-1.881-.008-3.761.011-5.641-.011-.731-.009-.594.487-.595.905q-.007,5.254,0,10.508m10.472,3.96c-1.068,0-2.141.06-3.2-.017-1.033-.075-1.09.408-.88,1.2.425,1.6,1.782,2.491,3.827,2.5,2.392.007,3.716-.78,4.16-2.473.019-.071.022-.147.045-.216.23-.69.068-1.035-.744-1-1.066.047-2.136.011-3.2.011m-23.293,0c-1.139,0-2.279.011-3.418,0-.529-.008-.824.1-.759.744a3.467,3.467,0,0,0,3.463,2.936c2.856.069,4.428-.859,4.682-2.765,0-.036.006-.073.014-.109.113-.55-.062-.822-.674-.807-1.1.028-2.2.008-3.308.007M38.246,61.023c1.4,0,2.8-.04,4.2.015.778.03.863-.317.723-.931a2.21,2.21,0,0,0-2.191-1.693q-2.763-.063-5.528,0a2.164,2.164,0,0,0-2.142,1.611c-.191.607-.147,1.056.737,1.014,1.4-.067,2.8-.018,4.2-.018M29.11,45.947l-2.527-5.464-2.518,5.464ZM49.875,40.49l-2.538,5.5h4.475c.362,0,.58-.094.382-.517-.738-1.576-1.469-3.156-2.319-4.984" transform="translate(-9.101 -12.748)" fill="#003b5c"/>
  </g>
</svg>
