<svg xmlns="http://www.w3.org/2000/svg" xmlns:xlink="http://www.w3.org/1999/xlink" width="118.217" height="85" viewBox="0 0 118.217 85">
  <defs>
    <clipPath id="clip-path">
      <rect id="Rectángulo_4108" data-name="Rectángulo 4108" width="118.217" height="85" fill="#003b5c"/>
    </clipPath>
  </defs>
  <g id="Grupo_9050" data-name="Grupo 9050" clip-path="url(#clip-path)">
    <path id="Trazado_4445" data-name="Trazado 4445" d="M110.653,79.6c1.429,0,2.582,0,3.736,0,.968,0,1.693.344,1.641,1.427-.048,1-.783,1.249-1.66,1.225-.335-.009-.67,0-1,0q-35.078,0-70.156-.016c-1.069,0-2.684.494-2.652-1.353.029-1.676,1.542-1.2,2.587-1.28a7.327,7.327,0,0,1,1.172,0c1.554.135,2.826.226,2.622-2.12-.137-1.583,1.489-2.967,3.1-3.249.382-.067.785-.015,1.167-.083,1.139-.2,2.49.58,3.395-.734a10.491,10.491,0,0,0,1.932-6.291c-.024-1.05-1-.682-1.58-.685-6.753-.025-13.506-.016-20.259-.016-.447,0-.893,0-1.34,0-3.674-.042-5.578-1.92-5.581-5.564q-.014-18.837,0-37.673c0-2.512-.015-5.023,0-7.535.027-3.455,1.7-5.188,5.116-5.19q33.571-.021,67.142,0c3.333,0,5.171,1.871,5.175,5.209q.021,16.241-.013,32.483c0,1,.146,1.563,1.254,1.917,6.379,2.035,10.257,6.438,11.309,13.009A15.663,15.663,0,0,1,111.885,78.4q-.45.373-.9.752c-.042.035-.068.088-.335.443M66.4,19.3c-9.323,0-18.646.026-27.969-.029-1.319-.008-1.7.364-1.691,1.68q.072,16.329.006,32.659c0,1.229.228,1.759,1.636,1.755q24.451-.073,48.9-.019a2.478,2.478,0,0,0,2.047-.85,14.718,14.718,0,0,1,5.106-3.717,1.956,1.956,0,0,0,1.372-2.123q-.082-13.817,0-27.634c.01-1.413-.4-1.762-1.779-1.753-9.211.06-18.423.031-27.634.031m-.036-6.287q-16.5,0-32.993,0c-2.709,0-3.194.5-3.195,3.248,0,12.449.034,24.9-.043,37.347-.01,1.649.669,1.777,1.971,1.755s2.114-.014,2.1-1.814c-.1-11.332-.049-22.664-.048-34,0-2.769.029-2.8,2.805-2.8q29.308,0,58.616,0c2.712,0,2.766.06,2.766,2.85q0,14.068.011,28.136c0,.53-.242,1.441.264,1.519a8.757,8.757,0,0,0,3.3-.15c.719-.172.38-1.065.381-1.627q.031-15.576.014-31.151c0-2.875-.434-3.313-3.287-3.314q-16.329-.005-32.658,0M87.437,65.569a13.935,13.935,0,0,0,27.868.316,13.935,13.935,0,1,0-27.868-.316m-.784-7.777H31.694c-.279,0-.558,0-.837.012a.642.642,0,0,0-.64.4c-1.274,2.81.384,5.472,3.433,5.472q24.6,0,49.2,0c.335,0,.672-.029,1,0a.932.932,0,0,0,1.161-.883,19.771,19.771,0,0,1,1.633-5.009M57.328,74.011H75.474a12.564,12.564,0,0,1-1.88-6.7c.008-.816-.407-.9-1.038-.895q-6.185.015-12.37.006c-.539,0-1.042.051-1.023.767a15.038,15.038,0,0,1-1.835,6.819m8.916,5.5h15.04c.959,0,1.888-.15,1.924-1.341.038-1.274-.91-1.5-1.944-1.521-.223,0-.445,0-.668,0q-14.288,0-28.575.006a5.839,5.839,0,0,0-1.647.152,1.348,1.348,0,0,0-1.08,1.488,1.318,1.318,0,0,0,1.249,1.155,9.433,9.433,0,0,0,1.5.062q7.1.005,14.2,0m26.132.233c-4.411-3.423-6.945-7.389-7.315-12.556-.04-.558-.375-.76-.894-.76q-3.514,0-7.027,0c-.477,0-.917.079-.956.68a9.99,9.99,0,0,0,1.925,6.27c.859,1.3,2.118.711,3.2.751,3.063.111,4.405,1.394,4.525,4.54.019.488-.153,1.07.637,1.073,1.813.008,3.625,0,5.9,0" transform="translate(-13.644 -5.135)" fill="#003b5c"/>
    <path id="Trazado_4452" data-name="Trazado 4452" d="M89.265,35.906a13.712,13.712,0,0,1,11.848,7.351c.73,1.295,2.43,1.423,2.95.026.67-1.8,2.107-2.118,3.556-2.627.841-.3,1.678-.6,2.517-.9.731-.259,1.171-.115.811.74a2.351,2.351,0,0,0,1.2,3.427c.794.417.476.858-.218,1.109-1.52.547-3.046,1.077-4.558,1.646a1.722,1.722,0,0,1-1.843-.446,2.135,2.135,0,0,0-2.636-.1c-.946.5-.385,1.3-.326,1.934A13.776,13.776,0,0,1,90.544,63.349,13.629,13.629,0,0,1,75.46,52.368,13.951,13.951,0,0,1,89.265,35.906M77.588,49.626a11.134,11.134,0,1,0,22.24-.814c-.037-.479.146-1.174-.316-1.381-.562-.252-1.179.191-1.721.438-.765.348-.362,1.089-.374,1.643a8.394,8.394,0,1,1-11.355-7.761,8.126,8.126,0,0,1,9.931,3.382c.848,1.366,1.687,1.064,2.559.5,1.046-.683-.008-1.378-.324-1.894a11.184,11.184,0,0,0-20.639,5.89m11.759-5.537a5.764,5.764,0,1,0,5.437,6.744c.169-1.165,0-1.728-1.329-1.172-.973.407-1.985.72-2.986,1.057-.634.215-1.288.23-1.526-.522-.25-.788.449-.857.972-1.029a12.331,12.331,0,0,0,1.878-.683c.8-.418,2.282-.329,2.3-1.225.023-1.06-1.128-1.839-2.11-2.406a5.168,5.168,0,0,0-2.638-.763" transform="translate(-36.975 -17.646)" fill="#003b5c"/>
    <path id="Trazado_4453" data-name="Trazado 4453" d="M166.186,112.285c.385-1.5-.249-2.4-2.093-2.9-2.339-.639-3.242-2.009-3.194-3.916a4.36,4.36,0,0,1,3.477-4.157c1.042-.3,2.25-.324,1.965-1.952-.051-.29.222-.508.545-.471a.492.492,0,0,1,.414.618c-.2,1.292.579,1.382,1.566,1.468a13.16,13.16,0,0,1,2.415.628.877.877,0,0,1,.682,1.148c-.157.634-.632.638-1.187.561-3.264-.447-3.182-.434-3.3,2.819a2.14,2.14,0,0,0,1.835,2.565c2.381.662,3.509,2.263,3.4,4.334a4.3,4.3,0,0,1-3.771,3.876c-1.046.2-1.852.364-1.639,1.694.053.332-.065.726-.5.7-.4-.025-.545-.4-.492-.743.193-1.247-.522-1.483-1.545-1.538a8.91,8.91,0,0,1-3.219-.827c-.57-.26-.911-.679-.611-1.33a.948.948,0,0,1,1.275-.468c.319.095.622.241.94.34,3.04.948,3.041.946,3.04-2.442m.1-4.456c0-1.3.011-2.568-.008-3.835,0-.293.142-.789-.326-.791a2.782,2.782,0,0,0-2.56,1.268,1.757,1.757,0,0,0,.376,2.4,3.7,3.7,0,0,0,2.517.957m.859,4.924c.5.705-.655,2.018.756,2.263a2.224,2.224,0,0,0,2.465-2.178c0-1-1.494-2.4-2.558-2.161-1.209.267-.249,1.4-.663,2.076" transform="translate(-79.033 -48.594)" fill="#003b5c"/>
    <path id="Trazado_4454" data-name="Trazado 4454" d="M103.654,107.434a1.953,1.953,0,0,1-1.937,1.991,1.976,1.976,0,0,1-2.127-2.052,1.886,1.886,0,0,1,2-1.994,1.987,1.987,0,0,1,2.063,2.055" transform="translate(-48.942 -51.786)" fill="#003b5c"/>
  </g>
</svg>
