<svg id="Grupo_39" data-name="Grupo 39" xmlns="http://www.w3.org/2000/svg" xmlns:xlink="http://www.w3.org/1999/xlink" width=

"60" height="auto" viewBox="0 0 93.504 53.32">
  <defs>
    <clipPath id="clip-path">
      <rect id="Rectángulo_766" data-name="Rectángulo 766" width="93.503" height="55" fill="#3cd7f8"/>
    </clipPath>
  </defs>
  <g id="Grupo_38" data-name="Grupo 38" clip-path="url(#clip-path)">
    <path id="Trazado_212" data-name="Trazado 212" d="M46.874,37.744a11.461,11.461,0,0,1,.984-1.377Q64.8,19.411,81.764,2.475,85.406-1.163,89.474.542a6.49,6.49,0,0,1,2.614,10.047,14.606,14.606,0,0,1-1.15,1.254Q71.489,31.285,52.032,50.721c-3.45,3.447-7.1,3.466-10.522.051Q21.967,31.251,2.423,11.731C.506,9.819-.46,7.659.214,4.93a6.517,6.517,0,0,1,10.078-3.7,13.933,13.933,0,0,1,1.635,1.449Q28.8,19.526,45.665,36.391c.314.314.595.663,1.209,1.353" transform="translate(0 0)" fill="#3cd7f8"/>
  </g>
</svg>
