<svg id="bank_online_j419wg3c4a80" xmlns="http://www.w3.org/2000/svg" width="54.805" height="73.122" viewBox="0 0 54.805 73.122">
  <path id="Trazado_4398" data-name="Trazado 4398" d="M184.871,313.667a1.071,1.071,0,0,0,2.142,0v-.011a1.071,1.071,0,0,0-2.142.011Zm0,0" transform="translate(-158.54 -267.947)" fill="#3cd7f8"/>
  <path id="Trazado_4399" data-name="Trazado 4399" d="M159.365,252.311a1.071,1.071,0,0,0,.623-1.943,10.189,10.189,0,0,0-11.871,0,1.071,1.071,0,0,0,1.245,1.743,8.049,8.049,0,0,1,9.381,0A1.066,1.066,0,0,0,159.365,252.311Zm0,0" transform="translate(-126.65 -212.977)" fill="#3cd7f8"/>
  <path id="Trazado_4400" data-name="Trazado 4400" d="M170.513,283.88a1.071,1.071,0,0,0,.724-1.861,5.594,5.594,0,0,0-7.616,0,1.071,1.071,0,1,0,1.448,1.579,3.453,3.453,0,0,1,4.721,0A1.068,1.068,0,0,0,170.513,283.88Zm0,0" transform="translate(-140.027 -240.46)" fill="#3cd7f8"/>
  <path id="Trazado_4401" data-name="Trazado 4401" d="M119.518,176.355H101.2A4.51,4.51,0,0,0,96.7,180.86v38.925a4.51,4.51,0,0,0,4.505,4.505h18.317a4.511,4.511,0,0,0,4.505-4.505v-33.2a1.071,1.071,0,0,0-2.142,0v33.2a2.366,2.366,0,0,1-2.363,2.363H101.2a2.366,2.366,0,0,1-2.363-2.363V180.86A2.366,2.366,0,0,1,101.2,178.5h2.363v1.218a3.365,3.365,0,0,0,3.361,3.361h6.869a3.364,3.364,0,0,0,3.361-3.361V178.5h2.364a2.366,2.366,0,0,1,2.363,2.363v1.145a1.071,1.071,0,0,0,2.142,0V180.86A4.511,4.511,0,0,0,119.518,176.355Zm-4.505,3.361a1.22,1.22,0,0,1-1.219,1.218h-6.869a1.22,1.22,0,0,1-1.219-1.218V178.5h9.307Zm0,0" transform="translate(-82.957 -151.169)" fill="#3cd7f8"/>
  <path id="Trazado_4402" data-name="Trazado 4402" d="M54.234,18.17A1.071,1.071,0,0,0,55.3,17.1V13.664A1.072,1.072,0,0,0,54.7,12.7L28.364.1a1.07,1.07,0,0,0-.924,0L1.109,12.7a1.072,1.072,0,0,0-.609.966V17.1A1.071,1.071,0,0,0,1.571,18.17H2.79V43.5H1.571a1.071,1.071,0,1,0,0,2.142H10.73a1.071,1.071,0,1,0,0-2.142H9.511V18.17h4.727v4.653a1.071,1.071,0,0,0,2.142,0V18.17h2.437v3.508a1.071,1.071,0,0,0,2.142,0V18.17H34.845v3.508a1.071,1.071,0,0,0,2.142,0V18.17h2.437v4.653a1.071,1.071,0,0,0,2.142,0V18.17h4.727V43.5H45.075a1.071,1.071,0,1,0,0,2.142h9.159a1.071,1.071,0,1,0,0-2.142H53.015V18.17ZM2.642,14.339,27.9,2.258l25.26,12.081v1.689H2.642ZM7.369,43.5H4.932V18.169H7.369V43.5Zm43.5,0H48.436V18.169h2.437Zm0,0" transform="translate(-0.5 0.001)" fill="#3cd7f8"/>
  <path id="Trazado_4403" data-name="Trazado 4403" d="M172.2,42.107a1.491,1.491,0,0,1-1.219-.442,1.071,1.071,0,0,0-2.142.011c0,1.443,1.476,2.574,3.361,2.574s3.361-1.131,3.361-2.574c0-2-1.979-2.622-3.042-2.954-1.508-.471-1.538-.719-1.538-.9a1.9,1.9,0,0,1,2.437,0,1.071,1.071,0,0,0,2.142-.011c0-1.443-1.476-2.573-3.361-2.573s-3.361,1.13-3.361,2.573c0,2,1.9,2.6,3.042,2.954,1.509.471,1.538.719,1.538.9a1.489,1.489,0,0,1-1.218.442Zm0,0" transform="translate(-144.795 -30.206)" fill="#3cd7f8"/>
  <path id="Trazado_4404" data-name="Trazado 4404" d="M128.758,356.071v10.3a3.365,3.365,0,0,0,3.361,3.361h11.448a3.365,3.365,0,0,0,3.361-3.361v-10.3a3.365,3.365,0,0,0-3.361-3.361H132.119A3.365,3.365,0,0,0,128.758,356.071Zm14.809,11.522H132.119a1.22,1.22,0,0,1-1.218-1.218v-1.448a3.34,3.34,0,0,0,1.218.23h11.449a3.34,3.34,0,0,0,1.218-.23v1.448A1.22,1.22,0,0,1,143.567,367.593ZM130.9,356.071a1.22,1.22,0,0,1,1.218-1.218h11.448a1.22,1.22,0,0,1,1.219,1.218V361.8a1.22,1.22,0,0,1-1.219,1.218H132.119A1.22,1.22,0,0,1,130.9,361.8Zm0,0" transform="translate(-110.441 -302.338)" fill="#3cd7f8"/>
  <path id="Trazado_4405" data-name="Trazado 4405" d="M161.9,386.915h1.145a1.071,1.071,0,1,0,0-2.142H161.9a1.071,1.071,0,0,0,0,2.142Zm0,0" transform="translate(-137.927 -329.821)" fill="#3cd7f8"/>
</svg>
