<?xml version="1.0" encoding="UTF-8"?>
<svg id="BookACall" data-name="BookACall" xmlns="http://www.w3.org/2000/svg" viewBox="0 0 53.64 54.51">
  <g id="BookACall" data-name="BookACall">
    <path id="Trazado_6313" data-name="Trazado 6313" d="M25.98,17.31c-7.88,0-15.75,0-23.63-.01-.47,0-.63.09-.63.6.02,8.63.02,17.27.01,25.9-.17,1.45.87,2.75,2.32,2.92.19.02.39.02.58,0h23.47c.18-.01.36,0,.54.01.44.03.77.4.77.83.01.46-.33.84-.79.88-.14.01-.29.01-.43,0H4.57c-2.38.14-4.43-1.68-4.56-4.07,0-.16,0-.32,0-.48V9.74c-.13-2.38,1.71-4.42,4.09-4.55.15,0,.31,0,.46,0,1.22,0,2.45-.01,3.68,0,.32,0,.43-.07.43-.42-.05-.68-.03-1.37.07-2.05C9.14.87,10.97-.32,12.84.08c1.57.33,2.7,1.7,2.74,3.3.01.49.02.97,0,1.46-.01.29.1.36.37.36,2.05,0,4.11,0,6.16,0,.31,0,.4-.09.4-.39-.05-.68-.02-1.37.07-2.05.38-1.87,2.21-3.07,4.08-2.69,1.59.33,2.74,1.72,2.76,3.34.01.47.01.94,0,1.4,0,.26.05.38.35.38,2.07-.01,4.15-.01,6.22,0,.29,0,.36-.1.36-.37-.05-.7-.02-1.4.08-2.1.4-1.86,2.24-3.05,4.11-2.65,1.55.33,2.67,1.68,2.72,3.26.02.45.02.9,0,1.35-.03.39.07.53.5.52,1.22-.03,2.45-.01,3.68-.01,2.38-.09,4.38,1.77,4.47,4.16,0,.12,0,.23,0,.35,0,7.33,0,14.67,0,22,0,.11,0,.22,0,.32,0,.47-.4.85-.88.84-.45,0-.82-.37-.84-.82-.01-.16,0-.32,0-.49,0-4.56,0-9.12.01-13.68,0-.48-.11-.59-.59-.59-7.88.02-15.75.02-23.63.01M25.98,15.58h23.46c.13,0,.25,0,.38,0,.28.03.37-.07.37-.36-.01-1.93.01-3.86-.02-5.78-.03-1.37-1.13-2.47-2.49-2.5-1.35-.03-2.7,0-4.06-.01-.28,0-.38.08-.37.36.02.49.01.97,0,1.46-.04,1.91-1.62,3.42-3.53,3.38-1.61-.04-2.97-1.17-3.3-2.75-.09-.7-.12-1.4-.08-2.1,0-.24-.05-.35-.33-.35-2.09,0-4.18,0-6.27,0-.27,0-.34.09-.33.34.01.5.01,1.01,0,1.51-.06,1.91-1.66,3.4-3.57,3.34-1.58-.05-2.92-1.18-3.26-2.72-.1-.7-.13-1.4-.08-2.1,0-.28-.07-.37-.36-.37-2.07.01-4.15.01-6.22,0-.3,0-.36.12-.35.38.01.5.02,1.01,0,1.51-.08,1.91-1.69,3.38-3.6,3.3-1.56-.07-2.89-1.18-3.22-2.7-.1-.69-.13-1.4-.08-2.1,0-.31-.1-.39-.4-.39-1.26.01-2.52,0-3.78,0-1.43-.08-2.66,1.01-2.74,2.45,0,.1,0,.2,0,.3,0,1.77.02,3.53-.01,5.3,0,.5.14.61.62.61,7.88-.02,15.75-.02,23.63-.01M10.39,6.01c0,.85,0,1.69,0,2.54-.06.95.66,1.78,1.61,1.84.95.06,1.78-.66,1.84-1.61,0-.07,0-.13,0-.2,0-1.68,0-3.35,0-5.03.04-.95-.71-1.76-1.66-1.8-.95-.04-1.76.71-1.8,1.66,0,.05,0,.11,0,.16,0,.81,0,1.62,0,2.43M24.23,6.01c0,.85,0,1.69,0,2.54-.06.95.67,1.78,1.62,1.84.95.06,1.78-.67,1.84-1.62,0-.07,0-.14,0-.2,0-1.68,0-3.35,0-5.03.04-.95-.7-1.76-1.65-1.81s-1.76.7-1.81,1.65c0,.05,0,.1,0,.14-.01.83,0,1.66,0,2.49M38.07,6.03c0,.86,0,1.73,0,2.59-.02.95.74,1.74,1.69,1.76.95.02,1.74-.74,1.76-1.69,0-.03,0-.05,0-.08.01-1.69.01-3.39,0-5.08.04-.95-.71-1.76-1.66-1.79-.95-.04-1.76.71-1.79,1.66,0,.05,0,.1,0,.14,0,.83,0,1.66,0,2.49" style="fill: #fff; stroke-width: 0px;"/>
    <path id="Trazado_6315" data-name="Trazado 6315" d="M10.37,27.69c-.56,0-1.12,0-1.67,0-.95.02-1.74-.73-1.76-1.68,0-.02,0-.04,0-.06-.02-.87-.02-1.73,0-2.59-.01-.94.74-1.71,1.68-1.72.01,0,.02,0,.04,0,1.15-.02,2.31-.02,3.46,0,.95-.01,1.72.74,1.74,1.69,0,.02,0,.05,0,.07.01.85.01,1.69,0,2.54.02.95-.73,1.73-1.68,1.75-.02,0-.04,0-.06,0-.58.01-1.15,0-1.73,0M10.37,25.96c.47,0,.94,0,1.4,0,.25,0,.35-.06.35-.33-.02-.65-.02-1.29,0-1.94,0-.26-.09-.34-.34-.33-.94.01-1.87,0-2.81,0-.22,0-.32.06-.32.3.01.67.01,1.33,0,2,0,.24.09.31.32.3.47-.01.94,0,1.4,0" style="fill: #fff; stroke-width: 0px;"/>
    <path id="Trazado_6316" data-name="Trazado 6316" d="M20.82,21.63c.56,0,1.12-.01,1.68,0,.95,0,1.72.76,1.73,1.71,0,0,0,0,0,0,.02.88.02,1.77,0,2.65,0,.93-.77,1.68-1.7,1.68-1.17.02-2.34.02-3.51,0-.93,0-1.69-.75-1.7-1.68-.02-.9-.03-1.8,0-2.7.02-.91.76-1.64,1.67-1.66.61-.02,1.22,0,1.84,0M20.68,25.96c.55,0,1-.01,1.45,0,.28.01.38-.08.37-.36-.02-.61-.03-1.22,0-1.83.02-.35-.12-.42-.43-.41-.72.02-1.44,0-2.16,0-.88,0-.88,0-.87.87,0,.55-.23,1.29.09,1.61.35.36,1.09.06,1.56.11" style="fill: #fff; stroke-width: 0px;"/>
    <path id="Trazado_6317" data-name="Trazado 6317" d="M31.2,21.63c.56,0,1.12-.01,1.68,0,.95,0,1.72.75,1.73,1.7,0,0,0,0,0,0,.02.88.02,1.77,0,2.65,0,.93-.76,1.68-1.69,1.69-1.17.02-2.34.02-3.51,0-.94,0-1.71-.78-1.7-1.72,0,0,0,0,0-.01-.01-.86-.02-1.73,0-2.59,0-.94.76-1.71,1.7-1.72,0,0,.01,0,.02,0,.59-.01,1.19,0,1.78,0M31.07,25.95c.55,0,1-.01,1.45,0,.27.01.38-.06.38-.36-.02-.63-.02-1.26,0-1.89,0-.29-.1-.37-.37-.36-.74.02-1.48,0-2.21,0-.88,0-.89,0-.88.87,0,.55-.19,1.3.09,1.61.32.37,1.08.07,1.55.12" style="fill: #fff; stroke-width: 0px;"/>
    <path id="Trazado_6318" data-name="Trazado 6318" d="M41.51,27.69c-.56,0-1.12,0-1.67,0-.95.02-1.74-.73-1.76-1.68,0-.02,0-.04,0-.05-.02-.87-.02-1.73,0-2.59-.01-.94.74-1.71,1.68-1.72.01,0,.02,0,.04,0,1.15-.02,2.31-.02,3.46,0,.95-.01,1.72.74,1.74,1.69,0,.02,0,.05,0,.07.01.85.01,1.69,0,2.54.02.95-.73,1.73-1.68,1.75-.02,0-.04,0-.06,0-.58.01-1.15,0-1.73,0M41.4,25.96c.56,0,1.03-.01,1.5,0,.27.01.38-.07.37-.36-.02-.63-.02-1.26,0-1.89.01-.3-.1-.36-.38-.36-.72.01-1.44,0-2.16,0-.93,0-.94,0-.93.92,0,.54-.18,1.25.09,1.56.32.36,1.05.06,1.5.11" style="fill: #fff; stroke-width: 0px;"/>
    <path id="Trazado_6324" data-name="Trazado 6324" d="M36.81,39.9c-.01-.55.21-1.08.61-1.46.3-.29.57-.6.89-.87.42-.43,1.1-.43,1.53-.02,0,0,.02.02.03.03.55.49,1.07,1.01,1.56,1.57.41.42.4,1.09-.01,1.5-.25.28-.51.53-.78.79-.07.05-.09.16-.04.23,0,0,0,0,0,0,.42.76.98,1.45,1.64,2.02.4.38.85.7,1.34.96.08.06.19.04.25-.04,0,0,0,0,0,0,.25-.26.5-.51.77-.75.41-.42,1.09-.43,1.51-.02,0,0,.01.01.02.02.51.48,1,.98,1.48,1.48.47.43.5,1.15.07,1.62-.03.03-.07.07-.1.1-.28.3-.57.6-.87.89-.43.4-1.01.59-1.59.5-1.19-.17-2.32-.62-3.31-1.32-1.81-1.15-3.27-2.76-4.24-4.67-.33-.63-.57-1.3-.7-2-.03-.18-.03-.37-.05-.55M45.39,47.78c.34,0,.67-.14.91-.4.25-.26.5-.51.75-.77.32-.32.32-.55,0-.87-.44-.44-.87-.88-1.31-1.31-.14-.22-.43-.28-.65-.14-.06.04-.1.08-.14.14-.27.26-.53.52-.79.79-.17.24-.51.29-.75.12,0,0,0,0,0,0-.61-.3-1.17-.69-1.67-1.16-.77-.66-1.39-1.47-1.85-2.37-.17-.25-.1-.59.14-.76.26-.25.53-.51.78-.77.29-.3.28-.5,0-.8-.44-.45-.89-.9-1.34-1.34-.16-.22-.46-.27-.69-.11-.04.03-.08.06-.11.1-.28.27-.55.55-.83.83-.22.22-.35.52-.36.83,0,.68.16,1.36.47,1.96,1.14,2.5,3.16,4.5,5.68,5.61.54.25,1.13.4,1.73.43" style="fill: #fff; stroke-width: 0px;"/>
    <path id="Trazado_6319" data-name="Trazado 6319" d="M10.44,29.41c.56,0,1.12-.01,1.67,0,.95,0,1.72.76,1.73,1.7,0,0,0,0,0,0,.02.88.02,1.77,0,2.65,0,.93-.77,1.69-1.7,1.68-1.17.02-2.34.02-3.51,0-.93,0-1.69-.75-1.7-1.68-.02-.88-.02-1.77,0-2.65,0-.94.76-1.71,1.7-1.71,0,0,.01,0,.02,0,.59-.01,1.19,0,1.78,0M10.3,33.74c.55,0,1-.01,1.45,0,.28.01.38-.08.37-.36-.02-.61-.03-1.22,0-1.83.02-.35-.12-.42-.44-.41-.72.02-1.44,0-2.16,0-.88,0-.88,0-.87.87,0,.55-.23,1.29.09,1.61.35.36,1.09.06,1.56.11" style="fill: #fff; stroke-width: 0px;"/>
    <path id="Trazado_6320" data-name="Trazado 6320" d="M20.75,29.41c.58,0,1.15-.01,1.73,0,.95-.01,1.73.75,1.74,1.7,0,.02,0,.04,0,.06.01.85.01,1.69,0,2.54.02.94-.72,1.73-1.67,1.75-.02,0-.05,0-.07,0-1.15.02-2.31.02-3.46,0-.94,0-1.71-.76-1.71-1.71,0,0,0-.01,0-.02-.02-.87-.02-1.73,0-2.59,0-.94.75-1.72,1.69-1.72,0,0,.01,0,.02,0,.58-.02,1.15,0,1.73,0M20.68,33.74c.55,0,1-.01,1.45,0,.28.01.38-.07.37-.36-.02-.63-.02-1.26,0-1.89.01-.3-.1-.36-.38-.36-.74.01-1.47,0-2.21,0-.88,0-.88,0-.88.87,0,.55-.19,1.3.09,1.61.32.36,1.08.07,1.55.12" style="fill: #fff; stroke-width: 0px;"/>
    <path id="Trazado_6314" data-name="Trazado 6314" d="M42.44,54.51c-6.21.02-11.26-4.99-11.29-11.2-.02-6.21,4.99-11.26,11.2-11.29,6.21-.02,11.26,4.99,11.29,11.2.02,6.21-4.99,11.26-11.2,11.29M51.91,43.28c0-.76-.1-1.51-.27-2.25-1.23-5.11-6.37-8.25-11.48-7.01-5.11,1.23-8.25,6.37-7.01,11.48,1.03,4.28,4.87,7.29,9.27,7.28,5.23-.03,9.47-4.27,9.49-9.5" style="fill: #fff; stroke-width: 0px;"/>
    <path id="Trazado_6321" data-name="Trazado 6321" d="M10.38,43.26c-.58,0-1.15.01-1.73,0-.95,0-1.72-.77-1.72-1.72,0,0,0,0,0,0-.02-.87-.02-1.73,0-2.59-.01-.94.74-1.72,1.68-1.73.03,0,.05,0,.08,0,1.13-.01,2.27-.01,3.4,0,.95-.02,1.73.74,1.75,1.68,0,.02,0,.04,0,.07.01.85.01,1.69,0,2.54.02.95-.73,1.74-1.68,1.76-.04,0-.07,0-.11,0-.56,0-1.12,0-1.67,0M10.38,41.53c.45,0,.9-.02,1.35,0,.3.02.41-.07.4-.39-.02-.61-.02-1.22,0-1.83.01-.32-.11-.39-.4-.39-.9.02-1.8.02-2.7,0-.28,0-.38.07-.37.36.02.63.02,1.26,0,1.89,0,.3.1.37.38.36.45-.02.9,0,1.35,0" style="fill: #fff; stroke-width: 0px;"/>
    <path id="Trazado_6322" data-name="Trazado 6322" d="M20.78,43.26c-.58,0-1.15.01-1.73,0-.95.01-1.73-.75-1.74-1.7,0-.02,0-.04,0-.05-.01-.85-.01-1.69,0-2.54-.03-.94.72-1.73,1.66-1.75.03,0,.05,0,.08,0,1.15-.02,2.31-.02,3.46,0,.94,0,1.71.76,1.72,1.7,0,0,0,.01,0,.02.02.87.02,1.73,0,2.59,0,.95-.76,1.72-1.71,1.73-.02,0-.04,0-.06,0-.56.01-1.12,0-1.68,0M20.75,38.93c-.45,0-.9.02-1.35,0-.29-.01-.37.09-.36.37.02.63.01,1.26,0,1.89,0,.25.06.35.33.35.93-.01,1.87-.01,2.81,0,.26,0,.34-.09.33-.34-.01-.63-.02-1.26,0-1.89.01-.33-.13-.39-.41-.37-.45.02-.9,0-1.35,0" style="fill: #fff; stroke-width: 0px;"/>
    <path id="Trazado_6323" data-name="Trazado 6323" d="M27.69,32.45c0-.43,0-.87,0-1.3-.02-.94.73-1.71,1.67-1.73.01,0,.03,0,.04,0,1.13-.02,2.27-.01,3.41,0,.48-.04.9.31.94.79s-.31.9-.79.94c-.06,0-.11,0-.17,0-.99.01-1.98.01-2.97,0-.29,0-.42.06-.4.38.02.63.01,1.26,0,1.89,0,.21.07.3.27.38.44.13.7.6.56,1.04,0,.01,0,.02-.01.04-.16.44-.63.7-1.09.58-.81-.14-1.42-.83-1.45-1.65-.02-.45,0-.9,0-1.35" style="fill: #fff; stroke-width: 0px;"/>
  </g>
</svg>