<svg id="Grupo_588" data-name="Grupo 588" xmlns="http://www.w3.org/2000/svg" xmlns:xlink="http://www.w3.org/1999/xlink" width="133.327" height="120" viewBox="0 0 133.327 120">
  <defs>
    <clipPath id="clip-path">
      <rect id="Rectángulo_1149" data-name="Rectángulo 1149" width="133.327" height="120" fill="#3cd7f8" stroke="#fff" stroke-width="1"/>
    </clipPath>
  </defs>
  <g id="Grupo_587" data-name="Grupo 587" clip-path="url(#clip-path)">
    <path id="Trazado_922" data-name="Trazado 922" d="M81.377,128.074q-22.675,0-45.351,0c-2.86,0-3.471-.608-3.471-3.454q0-32.116,0-64.232c0-2.823.617-3.425,3.5-3.425q25.359,0,50.719,0a8.264,8.264,0,0,1,1.659.058,2.194,2.194,0,0,1-.046,4.344,10.291,10.291,0,0,1-1.847.051c-15.857,0-31.715.032-47.572-.043-1.683-.008-2,.468-1.992,2.047q.084,29.153,0,58.308c0,1.533.369,1.93,1.917,1.928q42.575-.075,85.149,0c1.63,0,1.874-.521,1.866-1.978-.058-11.415-.032-22.83-.031-34.244a14.7,14.7,0,0,1,.027-1.664,2.2,2.2,0,0,1,4.392-.081,9.727,9.727,0,0,1,.035,1.478q0,18.7,0,37.392c0,2.937-.592,3.513-3.6,3.513H81.377" transform="translate(-14.778 -25.853)" fill="#3cd7f8" stroke="#fff" stroke-width="1"/>
    <path id="Trazado_923" data-name="Trazado 923" d="M66.648,208.655q-27.581,0-55.161-.008a11.065,11.065,0,0,1-11.338-9.4c-.531-2.867.327-3.934,3.2-3.934q23.324-.006,46.647,0a3.956,3.956,0,0,1,2.165.315,2.176,2.176,0,0,1-.63,4.053,9.239,9.239,0,0,1-1.843.082q-21.472.006-42.944.014c-.528,0-1.271-.291-1.548.205-.341.611.315,1.124.676,1.591a6.719,6.719,0,0,0,5.646,2.627q11.106-.011,22.213,0,43.777,0,87.554.014c2.563,0,4.746-.665,6.3-2.807.312-.429.892-.92.524-1.44-.184-.26-.9-.191-1.376-.192q-21.472-.012-42.944-.007c-2.664,0-3.757-.637-3.78-2.2-.024-1.585,1.078-2.256,3.721-2.256q23.045,0,46.091,0c3.041,0,3.9,1.025,3.347,3.966a11.068,11.068,0,0,1-11.361,9.369q-27.581.029-55.161.007" transform="translate(0 -88.66)" fill="#3cd7f8" stroke="#fff" stroke-width="1"/>
    <path id="Trazado_924" data-name="Trazado 924" d="M16.277,82.536q0-17.12,0-34.24,0-7.6,7.657-7.6,27.67,0,55.34,0c.37,0,.74,0,1.11,0,1.444.024,2.454.715,2.47,2.177.017,1.568-1.04,2.265-2.562,2.274-.494,0-.987,0-1.481,0q-27.3,0-54.6,0c-2.877,0-3.48.594-3.481,3.433q0,33.685,0,67.37c0,.432,0,.864,0,1.3-.008,2.313-.7,3.393-2.188,3.423-1.514.031-2.265-1.064-2.266-3.341q-.006-10.92,0-21.84V82.536" transform="translate(-7.388 -18.473)" fill="#3cd7f8" stroke="#fff" stroke-width="1"/>
    <path id="Trazado_925" data-name="Trazado 925" d="M173.212.008a27.1,27.1,0,0,1,11.946,2.844c2.295,1.153,3.006,2.313,2.228,3.742-.734,1.349-1.95,1.432-4.189.283C170.415.323,154.471,7.794,151.5,21.728c-2.593,12.177,4.949,24.129,16.792,26.609,12.108,2.535,23.974-4.956,26.5-16.719a22.645,22.645,0,0,0,.15-9.184c-.291-1.5-.069-2.768,1.679-3.14,1.456-.31,2.412.608,2.743,2.511A26.676,26.676,0,1,1,169.342.314a22.467,22.467,0,0,1,3.869-.306" transform="translate(-66.494 0)" fill="#3cd7f8" stroke="#fff" stroke-width="1"/>
    <path id="Trazado_926" data-name="Trazado 926" d="M55.478,102.756c0,2.132,1.391,3.188,3.116,3.919,1.813.768,3.714,1.34,5.491,2.18,4.2,1.985,7.042,5.012,6.911,9.986-.128,4.849-2.936,8.489-7.934,10.221-1.052.364-.9.985-.894,1.683,0,1,.04,2.008-.845,2.708a2.022,2.022,0,0,1-2.245.328,1.958,1.958,0,0,1-1.327-2.029c.3-1.959-.6-2.568-2.369-3.034a11.55,11.55,0,0,1-5.7-3.947c-1.145-1.343-1.183-2.732-.064-3.57,1.3-.971,2.369-.523,3.38.593,2.412,2.661,5.329,3.962,8.945,2.948a6.108,6.108,0,0,0,4.55-5.488c.354-2.489-.876-4.265-2.866-5.586a25.827,25.827,0,0,0-5.761-2.466c-4.643-1.665-7.031-4.68-6.818-8.779a8.158,8.158,0,0,1,5.373-7.711,1.68,1.68,0,0,0,1.3-2,4.105,4.105,0,0,1,.158-1.637,2.023,2.023,0,0,1,2.288-1.471,1.954,1.954,0,0,1,1.926,2.1c-.228,2,.559,2.82,2.458,3.175A7.493,7.493,0,0,1,67.643,96.5c1.132.887,1.56,1.97.685,3.2a2.051,2.051,0,0,1-3.09.5,9.736,9.736,0,0,0-4.821-1.712c-2.856-.209-4.914,1.6-4.94,4.271" transform="translate(-22.153 -40.667)" fill="#3cd7f8" stroke="#fff" stroke-width="1"/>
    <path id="Trazado_927" data-name="Trazado 927" d="M210.933,10.59a3.234,3.234,0,0,1-.967,1.732q-11.8,12.877-23.612,25.751c-1.517,1.649-2.7,1.607-4.149-.108-3.454-4.1-6.863-8.236-10.309-12.342-.992-1.183-1.388-2.377-.133-3.578,1.056-1.012,2.345-.718,3.622.8,2.661,3.156,5.364,6.281,7.907,9.53.968,1.237,1.41.964,2.3-.018Q195.78,21.13,206.062,9.991a11.447,11.447,0,0,1,1.61-1.5,1.871,1.871,0,0,1,2.252.043,2.156,2.156,0,0,1,1.009,2.06" transform="translate(-77.615 -3.691)" fill="#3cd7f8" stroke="#fff" stroke-width="1"/>
    <path id="Trazado_928" data-name="Trazado 928" d="M219.721,125.123q0-9.9,0-19.8a8.4,8.4,0,0,1,.058-1.66,2.1,2.1,0,0,1,2.187-1.865,2.12,2.12,0,0,1,2.16,1.9,7.627,7.627,0,0,1,.048,1.476q0,19.89,0,39.778a7.6,7.6,0,0,1-.079,1.657,2.186,2.186,0,0,1-4.3-.038,7.683,7.683,0,0,1-.069-1.658q0-9.9,0-19.8" transform="translate(-99.738 -46.213)" fill="#3cd7f8" stroke="#fff" stroke-width="1"/>
    <path id="Trazado_929" data-name="Trazado 929" d="M128.064,113.929H146.38c.37,0,.74-.008,1.11,0,1.785.051,2.872.9,2.754,2.276-.135,1.585-1.176,2.189-2.675,2.179-1.357-.01-2.714,0-4.07,0H109.642a14.421,14.421,0,0,1-1.663-.028,2.2,2.2,0,0,1-.078-4.392,9.862,9.862,0,0,1,1.478-.034q9.343,0,18.686,0" transform="translate(-48.064 -51.714)" fill="#3cd7f8" stroke="#fff" stroke-width="1"/>
    <path id="Trazado_930" data-name="Trazado 930" d="M128.063,134.657q-9.343,0-18.686,0a9.65,9.65,0,0,1-1.478-.035,2.109,2.109,0,0,1-2.019-2.234,2.05,2.05,0,0,1,2.1-2.146c1.784-.091,3.576-.038,5.364-.039q16.558,0,33.117,0c.493,0,.988-.02,1.48.011a2.128,2.128,0,0,1,2.289,2.164c.019,1.475-.93,2.2-2.371,2.272-.431.022-.863.009-1.3.009h-18.5" transform="translate(-48.064 -59.099)" fill="#3cd7f8" stroke="#fff" stroke-width="1"/>
    <path id="Trazado_931" data-name="Trazado 931" d="M119.139,150.938c-3.452,0-6.9.012-10.356,0-1.929-.009-3.053-.861-2.924-2.287.154-1.7,1.319-2.176,2.866-2.172,6.965.019,13.931,0,20.9.015,1.816,0,2.833.821,2.851,2.191s-1.006,2.239-2.794,2.251c-3.514.023-7.027.007-10.541.007" transform="translate(-48.051 -66.493)" fill="#3cd7f8" stroke="#fff" stroke-width="1"/>
  </g>
</svg>
