<svg id="Grupo_586" data-name="Grupo 586" xmlns="http://www.w3.org/2000/svg" xmlns:xlink="http://www.w3.org/1999/xlink" width="120.128" height="120" viewBox="0 0 120.128 120">
  <defs>
    <clipPath id="clip-path">
      <rect id="Rectángulo_1148" data-name="Rectángulo 1148" width="120.128" height="120" fill="#3cd7f8" stroke="#fff" stroke-width="1"/>
    </clipPath>
  </defs>
  <g id="Grupo_585" data-name="Grupo 585" clip-path="url(#clip-path)">
    <path id="Trazado_920" data-name="Trazado 920" d="M120,22.051c-.23,12.417-9.963,22.031-22.147,21.83-2.406-.04-3.378,1.579-4.755,2.853-.528.488.057.793.324,1.075,3.323,3.513,4.673,7.783,5.167,12.511.5,4.79.66,9.641,1.945,14.325a17.492,17.492,0,0,0,2.8,5.451c.516.726.87.729,1.527.109,1.683-1.586,2.411-1.542,4.046.086q5.076,5.052,10.13,10.127c1.277,1.283,1.419,2.367.492,3.324-.89.919-2.061.769-3.323-.481-2.8-2.775-5.614-5.535-8.347-8.374-.831-.862-1.3-.8-2.11.018Q91.249,99.495,76.668,114c-.788.783-.81,1.238.02,1.924,1.069.883,1.494,1.984.5,3.181-.854,1.031-2.068.875-3.322-.333-.44-.424-.859-.869-1.288-1.3-2.245-2.27-2.272-2.292-.279-4.709.5-.6.342-.91-.118-1.368q-10.617-10.58-21.2-21.193c-.61-.613-.921-.49-1.44.047q-2.314,2.4-4.708,4.712a3.217,3.217,0,0,0-.908,2.56c.1,11.958-8.275,21.229-20.2,22.384a21.953,21.953,0,1,1-1.374-43.829,3.683,3.683,0,0,0,2.959-1.169c1.413-1.491,2.851-2.962,4.357-4.356.724-.67.671-1.088-.03-1.683A26.234,26.234,0,0,1,27.749,67,7.9,7.9,0,0,1,31.4,53.578c1.01-.273,1.15-.646,1.116-1.566-.153-4.115,1.444-6.639,5.235-8.131.972-.382.917-.793.694-1.589a7.751,7.751,0,0,1,7.9-10.141c1.224.045,1.65-.244,2.006-1.458a7.868,7.868,0,0,1,13.087-3.5c1.705,1.589,3.339,3.258,4.948,4.945.636.666,1.041.717,1.712.023,2.315-2.4,4.676-4.746,7.059-7.073a3.583,3.583,0,0,0,.921-2.892A21.948,21.948,0,0,1,105.4,1.273c2.131.773,2.529,2.309.938,3.917q-5.39,5.445-10.85,10.818a2.3,2.3,0,0,0-.838,2.318c.4,2-.1,4.588,1.233,5.869,1.261,1.216,3.786.792,5.744,1.148a2.331,2.331,0,0,0,2.334-.8c3.457-3.53,6.97-7,10.467-10.495,2.15-2.147,3.45-1.785,4.484,1.133A23.561,23.561,0,0,1,120,22.051M39.936,98.3c.059-3.971.2-4.3,3.053-7.151q5.3-5.3,10.6-10.6,8.773-8.773,17.553-17.539c1.085-1.08,2.46-1.2,3.205-.278.894,1.11.606,2.163-.363,3.1-.239.231-.472.469-.708.705q-9.6,9.6-19.2,19.19c-.579.578-1.046.947-.173,1.808q10.549,10.414,20.982,20.946c.675.679,1.057.649,1.717-.014q11.862-11.93,23.792-23.791c.77-.765.58-1.191.008-1.9a19.661,19.661,0,0,1-4.048-8.3c-1.036-4.839-1.306-9.782-1.85-14.686a15.3,15.3,0,0,0-4.413-9.622c-2.769-2.725-5.5-5.5-8.258-8.227-2.173-2.148-4.372-2.159-6.534-.023-2.883,2.848-5.741,5.721-8.6,8.589-2.059,2.063-1.728,3.8.972,4.892,2.6,1.054,4.823.389,6.906-1.412a5.973,5.973,0,0,1,8.2,8.684c-.45.49-.929.954-1.386,1.439a9.962,9.962,0,0,0,.01,14.1,19.565,19.565,0,0,1,1.579,1.709,1.789,1.789,0,0,1-.257,2.548,1.746,1.746,0,0,1-2.548.132C75.5,78.7,73.27,73.237,75.1,66.959a15.993,15.993,0,0,1,4.671-6.967,1.862,1.862,0,0,0,.157-2.926,1.884,1.884,0,0,0-2.822.006c-.3.25-.584.514-.892.749A9.987,9.987,0,0,1,68.2,59.745a18.5,18.5,0,0,0-6.717.533.72.72,0,0,1-.157.055c-.827.125-.839.553-.67,1.3,1.18,5.184-.825,8.668-5.872,10.191-.754.227-.918.528-.9,1.265.115,4.084-1.512,6.9-4.666,8.222C45.9,82.7,42.7,81.944,39.837,79.09c-1.926-1.92-3.87-3.824-5.753-5.786-.611-.636-.975-.615-1.567.017-1.326,1.417-2.789,2.71-4.091,4.149A7.835,7.835,0,0,1,22.071,80.1,17.812,17.812,0,0,0,4.154,100.27c1.158,9.146,9.344,16.169,18.327,15.724,9.87-.49,17.313-8.036,17.455-17.7m61.14-93.814c-.24-.294-.586-.264-.906-.3A17.848,17.848,0,0,0,80.085,22.4a7.278,7.278,0,0,1-2.368,5.787c-2.02,1.9-3.942,3.907-5.9,5.87-1.747,1.748-1.695,1.7-.055,3.464.8.861,1.3.9,2.308.208a8.022,8.022,0,0,1,10.234.985c1.529,1.453,3.042,2.93,4.458,4.49.827.911,1.4,1.021,2.188,0,1.9-2.471,4.394-3.323,7.55-3.342a17.692,17.692,0,0,0,17.05-21.444c-3.493,3.555-6.693,6.776-9.842,10.045a3.022,3.022,0,0,1-2.8,1.067c-3.074-.451-6.152-.868-9.229-1.3a2.011,2.011,0,0,1-1.881-1.812c-.456-3.129-.876-6.264-1.327-9.394a2.905,2.905,0,0,1,1.007-2.661c2.9-2.833,5.746-5.715,8.6-8.593.374-.377.9-.656,1.006-1.289M49.953,74.012a4.1,4.1,0,0,0-1.34-3.114C44.527,66.82,40.472,62.711,36.37,58.65a4.014,4.014,0,0,0-5.932-.169c-1.571,1.6-1.472,3.993.293,5.805,1.781,1.83,3.6,3.619,5.409,5.427,2.355,2.357,4.688,4.736,7.073,7.061a3.784,3.784,0,0,0,4.453.794,3.671,3.671,0,0,0,2.287-3.556M40.835,47.38c-2.117.036-3.378.784-4.024,2.283a3.9,3.9,0,0,0,.855,4.589Q43.824,60.431,50,66.6c1.924,1.91,4.166,2,5.9.319,1.673-1.627,1.625-4.032-.228-5.911-4.044-4.1-8.132-8.156-12.2-12.23a3.966,3.966,0,0,0-2.625-1.4m5.628-11.239c-2.08.015-3.319.707-4.017,2.228a3.751,3.751,0,0,0,.761,4.447c1.957,2.04,3.982,4.015,5.98,6.014,2.195,2.2,4.367,4.416,6.6,6.575,1.612,1.561,4.407,1.69,5.589.345a26.36,26.36,0,0,0-.241-6.265q-6.119-6.108-12.246-12.209a3.574,3.574,0,0,0-2.424-1.135m9.85-7.042c-1.977-.01-3.233.651-3.967,2.162a3.782,3.782,0,0,0,.829,4.584c3.459,3.525,6.988,6.981,10.447,10.5.636.648,1.014.582,1.592-.027,1.3-1.367,2.625-2.712,4-4,.706-.657.659-1.092-.006-1.746-3.441-3.385-6.848-6.806-10.256-10.224A3.811,3.811,0,0,0,56.313,29.1" transform="translate(0 0)" fill="#3cd7f8" stroke="#fff" stroke-width="1"/>
    <path id="Trazado_921" data-name="Trazado 921" d="M28.328,172.465c.15.035.366.082.58.139,3.483.926,6.962,1.868,10.451,2.773a2.553,2.553,0,0,1,2.019,1.963q1.388,5.311,2.831,10.608a2.327,2.327,0,0,1-.8,2.389c-2.51,2.516-5.032,5.02-7.534,7.543a2.512,2.512,0,0,1-2.711.72q-5.042-1.428-10.119-2.727a2.642,2.642,0,0,1-2.122-2.06q-1.336-5.153-2.771-10.279a2.417,2.417,0,0,1,.692-2.569q3.839-3.818,7.658-7.654a2.56,2.56,0,0,1,1.823-.845m11.6,15c-.434-1.661-.88-3.435-1.362-5.2-.859-3.144-.866-3.147-4.056-4.048-1.332-.376-2.7-.656-4-1.11a2.51,2.51,0,0,0-3.042.865c-1.4,1.57-2.947,3.011-4.455,4.482a1.537,1.537,0,0,0-.5,1.753c.652,2.174,1.246,4.369,1.756,6.58a2.019,2.019,0,0,0,1.735,1.7c2.209.522,4.4,1.124,6.579,1.762a1.43,1.43,0,0,0,1.631-.378c1.71-1.74,3.455-3.445,5.187-5.164a1.237,1.237,0,0,0,.529-1.243" transform="translate(-9.163 -87.614)" fill="#3cd7f8" stroke="#fff" stroke-width="1"/>
  </g>
</svg>
