<svg xmlns="http://www.w3.org/2000/svg" xmlns:xlink="http://www.w3.org/1999/xlink" width="16.537" height="20" viewBox="0 0 16.537 20">
  <defs>
    <clipPath id="clip-path">
      <rect id="Rectángulo_4096" data-name="Rectángulo 4096" width="16.537" height="20" fill="#3cd7f8"/>
    </clipPath>
  </defs>
  <g id="Grupo_9029" data-name="Grupo 9029" clip-path="url(#clip-path)">
    <path id="Trazado_4396" data-name="Trazado 4396" d="M0,10.009A1.853,1.853,0,0,1,.415,8.8C2.524,6.113,4.627,3.426,6.748.752A1.913,1.913,0,0,1,9.837.817q2.456,3.114,4.906,6.234c.443.562.887,1.123,1.327,1.687a1.935,1.935,0,0,1,.011,2.507q-3.127,3.986-6.266,7.962A1.914,1.914,0,0,1,6.708,19.2Q3.576,15.235.456,11.261A1.934,1.934,0,0,1,0,10.009" transform="translate(0 0)" fill="#3cd7f8"/>
  </g>
</svg>
