<svg id="Grupo_9060" data-name="Grupo 9060" xmlns="http://www.w3.org/2000/svg" xmlns:xlink="http://www.w3.org/1999/xlink" width="131.922" height="141.389" viewBox="0 0 131.922 141.389">
  <defs>
    <clipPath id="clip-path">
      <rect id="Rectángulo_4112" data-name="Rectángulo 4112" width="131.922" height="141.389" fill="#fff"/>
    </clipPath>
  </defs>
  <g id="Grupo_9058" data-name="Grupo 9058" clip-path="url(#clip-path)">
    <path id="Trazado_4479" data-name="Trazado 4479" d="M.042,81.367C.042,63.7.106,46.029,0,28.361A15.655,15.655,0,0,1,4.97,16.367c3.967-3.836,7.862-7.75,11.723-11.694A14.864,14.864,0,0,1,27.889,0c6.135.04,12.27.01,18.4.011A3.3,3.3,0,0,1,48.422.4a1.915,1.915,0,0,1,.827,2.241,2.071,2.071,0,0,1-2.269,1.471c-4.233-.018-8.467-.006-12.7,0-1.043,0-2.087-.035-3.129.013a4.072,4.072,0,0,0-4.226,4.338c-.038,3.987-.009,7.975-.014,11.963,0,4.684-1.855,6.51-6.6,6.515-3.865,0-7.73-.017-11.6.008-3.01.019-4.567,1.537-4.568,4.514Q4.135,83.455,4.117,135.45c0,1.5.551,1.862,1.943,1.861q42.425-.045,84.848,0c1.426,0,2.011-.428,1.926-1.9a38.857,38.857,0,0,1,.005-4.966c.1-1.433-.342-1.892-1.824-1.873-6.257.08-12.515-.009-18.772.056-2.3.023-4.271-.471-5.592-2.478-.579-.88-1.412-.592-2.158-.593q-19.142-.027-38.282-.014c-2.45,0-3.485-.578-3.553-1.972-.071-1.462,1.062-2.15,3.566-2.151,12.516,0,25.032-.027,37.547.033,1.519.007,1.99-.379,1.958-1.93-.083-4.022-.009-4.023-4.06-4.023H26.513c-.552,0-1.107.014-1.656-.022a2.036,2.036,0,0,1-2.163-2.054,2.066,2.066,0,0,1,2.108-2.122,14.668,14.668,0,0,1,1.654-.026c12.393,0,24.786-.024,37.179.03,1.5.006,2.159-.215,2.1-1.959-.129-3.966-.025-3.969-3.95-3.969q-17.76,0-35.521,0a12.477,12.477,0,0,1-1.837-.053,2.041,2.041,0,0,1-.122-4.017,8.548,8.548,0,0,1,1.833-.085c12.515,0,25.031-.034,37.546.035,1.62.009,2.091-.4,2.044-2.034-.118-4.168-.053-8.343-.034-12.515s2.192-6.335,6.374-6.353c3.313-.014,6.627-.034,9.938.014,1.02.015,1.43-.288,1.383-1.35-.07-1.592-.044-3.19-.009-4.784.069-3.2,1.889-5,5.052-5.033,4.377-.051,4.377-.051,4.377-4.4,0-19.448-.023-38.9.039-58.344.005-1.855-.511-2.408-2.382-2.393-10.674.083-21.349.041-32.024.04-.552,0-1.107.025-1.655-.026a1.868,1.868,0,0,1-1.854-1.911A1.925,1.925,0,0,1,56.611.08,7.486,7.486,0,0,1,58.26.014q16.38-.005,32.761,0c4.169,0,5.889,1.739,5.889,5.951,0,20.368.028,40.737-.045,61.1-.007,1.835.515,2.247,2.246,2.178,3.43-.139,6.87-.06,10.3-.034,3.032.023,4.776,1.773,4.821,4.8.024,1.594.07,3.193-.014,4.784-.063,1.18.3,1.612,1.534,1.583,3.311-.077,6.626-.039,9.938-.023,4.12.021,6.219,2.118,6.222,6.226q.011,17.944,0,35.89c0,4.085-2.013,6.107-6.077,6.13-2.7.015-5.4,0-8.1,0-1.425,0-2.467-.57-2.435-2.109.032-1.52,1.089-2.063,2.5-2.059,2.638.008,5.278-.043,7.914.017,1.462.033,2.127-.473,2.112-2.018q-.076-8.006,0-16.012c.01-1.078-.379-1.413-1.383-1.337-.733.055-1.472,0-2.208.012-1.1.016-2.343-.261-3.273.151-1.095.487-.213,1.9-.588,2.833a12.813,12.813,0,0,1-.76,1.666c-1.418,2.438-5.356,2.351-8.879,1.736-2.139-.373-3.192-2.15-3.247-4.911-.023-1.1-.336-1.508-1.473-1.5q-7.177.072-14.355,0c-1.152-.014-1.423.375-1.443,1.481-.062,3.5-1.77,5.134-5.252,5.2q-1.2.023-2.392,0c-3.548-.063-5.2-1.607-5.237-5.145-.014-1.275-.474-1.621-1.616-1.521-1.875.164-4.256-.788-5.495.418-1.079,1.051-.287,3.391-.31,5.16-.045,3.5-.014,6.994-.013,10.49,0,3.279,0,3.28,3.373,3.28q16.38,0,32.761,0c.552,0,1.108-.031,1.655.024a1.964,1.964,0,0,1,1.983,2.015,1.911,1.911,0,0,1-2.059,2.1c-2.944.048-5.893.115-8.832-.007-1.558-.065-2.027.429-1.917,1.947.128,1.77.038,3.557.028,5.335-.02,3.68-1.865,5.528-5.572,5.53q-23.282.012-46.565,0-19.417,0-38.835,0c-4.215,0-5.893-1.682-5.893-5.908q0-27.055,0-54.112M69.92,92.818c0,2.145.057,4.293-.023,6.435-.046,1.231.278,1.8,1.621,1.7a31.81,31.81,0,0,1,4.227,0c1.176.07,1.583-.294,1.6-1.532.054-3.6,1.654-5.109,5.208-5.14.735-.006,1.471,0,2.207,0,3.784.02,5.353,1.494,5.471,5.311.032,1.034.32,1.37,1.362,1.36q7.262-.066,14.526,0c1.053.009,1.439-.366,1.362-1.389a4.817,4.817,0,0,1,1.034-3.612c1.99-2.391,8.759-2.465,10.806-.1a6.08,6.08,0,0,1,1.085,2.107c.321.948-.533,2.344.572,2.828.933.409,2.168.132,3.269.148.735.011,1.475-.048,2.206.014,1.008.084,1.4-.25,1.385-1.327q-.08-6.527-.006-13.056c.014-1.4-.52-1.992-1.946-1.99q-27.032.031-54.063,0c-1.453,0-1.955.618-1.918,2,.057,2.082.015,4.167.014,6.252M22.851,5.143A138.61,138.61,0,0,0,5.195,22.976a23.264,23.264,0,0,1,4.537-.194c3.487-.008,6.974,0,10.462,0,2.492,0,2.509-.063,2.565-2.593.111-4.939-.331-9.89.092-15.042m80.671,75.212c.428,0,.856.016,1.283,0,1.7-.077,3.976.726,4.953-.29,1.135-1.181.236-3.483.39-5.289.086-1-.252-1.432-1.322-1.418-3.544.045-7.089.037-10.634,0-.909-.009-1.343.223-1.3,1.229.068,1.525.072,3.057,0,4.581-.05,1.033.431,1.22,1.311,1.2,1.772-.042,3.545-.013,5.317-.011m-17.373,22.63q0-1.1,0-2.193c0-2.382,0-2.382-2.4-2.382a8.826,8.826,0,0,1-.914,0c-1.151-.123-1.466.435-1.426,1.509.067,1.764.017,3.534.018,5.3,0,2.354,0,2.354,2.36,2.354s2.359,0,2.362-2.392q0-1.1,0-2.194m25.5-.012v1.465c0,3.3,0,3.242,3.259,3.16,1.175-.03,1.452-.506,1.419-1.55-.052-1.708-.012-3.418-.013-5.126,0-2.517-.008-2.411-2.451-2.547-1.744-.1-2.479.431-2.233,2.221a17.568,17.568,0,0,1,.018,2.377M92.811,76.783c0-3.478,0-3.478-3.5-3.414-.183,0-.368.016-.55,0-.887-.068-1.18.385-1.163,1.215.028,1.526.035,3.055,0,4.581-.022.843.278,1.143,1.151,1.207,4.07.3,4.068.33,4.068-3.591" transform="translate(0 0)" fill="#fff"/>
    <path id="Trazado_4480" data-name="Trazado 4480" d="M52.493,55.609c0,5.765.03,11.53-.025,17.294-.011,1.2.179,1.7,1.561,1.7,6.237.03,9.412,3.636,8.867,9.886-.143,1.653-1.024,2.7-2.666,2.718q-9.841.089-19.684,0c-1.586-.014-2.391-1.1-2.624-2.6-.894-5.735,2.751-10.051,8.583-10,1.523.012,1.934-.394,1.925-1.927q-.1-17.11-.006-34.221c.007-1.42-.329-1.969-1.822-1.86a50.363,50.363,0,0,1-5.333.019c-2.248-.075-4.526-.353-5.628,2.346-.144.353-.6.6-.95.846-1.638,1.156-2.092,2.455-1.255,4.3,1.972,4.352,4.018,8.67,6.038,13,.129.276.217.653.442.788,1.128.678,2.148,1.344,2.183,2.9.059,2.556-.141,5.033-1.632,7.223a9.481,9.481,0,0,1-7.684,4.385c-2.956.15-5.881.152-8.486-1.658-3.247-2.256-5.148-6.982-4.189-10.7A1.624,1.624,0,0,1,20.6,59.1c2.749-1.613,3.1-4.705,4.423-7.174,1.272-2.371,2.31-4.869,3.432-7.319,1-2.189.657-3.5-1.245-4.914a6.445,6.445,0,0,1-2.576-4.7,1.993,1.993,0,0,1,1.749-2.4,1.891,1.891,0,0,1,2.353,1.752c.2,1.38.749,2.364,2.265,2.4,1.4.032,2.011-.844,2.359-2.118a2.829,2.829,0,0,1,3.068-2.111c3.373.008,6.747-.061,10.118.026,1.391.036,2.045-.278,1.865-1.806-.173-1.472.185-2.769,1.983-2.908,1.322-.1,2.185.972,2.057,2.847-.111,1.625.527,1.917,1.984,1.871,3.247-.1,6.5-.015,9.751-.037,1.744-.011,2.95.633,3.379,2.44a2.128,2.128,0,0,0,2.414,1.79,2.034,2.034,0,0,0,2.015-2c.174-1.423.911-2.353,2.418-2.137,1.667.237,1.9,1.507,1.7,2.923a6.236,6.236,0,0,1-2.622,4.263c-1.626,1.192-2.128,2.52-1.329,4.29,1.993,4.41,4.066,8.784,6.108,13.17.1.222.174.56.347.631,2.619,1.079,2.283,3.329,2.157,5.459a9.436,9.436,0,0,1-3.489,6.849C71.124,75.4,60.82,72.283,58.97,64.668a16.832,16.832,0,0,1-.205-4.21,1.852,1.852,0,0,1,.922-1.71c1.4-.622,1.813-1.879,2.373-3.1q2.452-5.344,4.974-10.658a6.268,6.268,0,0,0,.624-3.2c-.034-.5-4.3-5.144-4.786-5.146-3.129-.014-6.256.018-9.384-.019-1.216-.014-.988.81-.989,1.506q-.012,8.74,0,17.479M69.913,62.2c-1.777,0-3.561.1-5.329-.028-1.718-.124-1.814.679-1.463,1.991.707,2.655,2.964,4.143,6.366,4.153,3.978.012,6.181-1.3,6.919-4.114.032-.118.037-.244.075-.36.382-1.147.114-1.721-1.238-1.661-1.773.078-3.553.019-5.33.018m-38.745,0c-1.895,0-3.791.019-5.686-.008-.879-.013-1.371.174-1.262,1.237a5.768,5.768,0,0,0,5.761,4.884c4.751.114,7.365-1.429,7.788-4.6.008-.06.01-.122.023-.182.187-.915-.1-1.368-1.121-1.343-1.833.046-3.667.013-5.5.012M50.444,83.051c2.33,0,4.662-.066,6.988.025,1.295.05,1.435-.528,1.2-1.548a3.677,3.677,0,0,0-3.645-2.817q-4.6-.1-9.195,0a3.6,3.6,0,0,0-3.564,2.68c-.317,1.01-.244,1.756,1.226,1.686,2.325-.112,4.658-.03,6.987-.03m-15.2-25.077-4.2-9.088-4.188,9.088ZM69.788,48.9l-4.222,9.15H73.01c.6,0,.964-.157.635-.861-1.227-2.622-2.444-5.25-3.858-8.29" transform="translate(-1.964 -2.752)" fill="#fff"/>
  </g>
</svg>
