<svg id="Grupo_10241" data-name="Grupo 10241" xmlns="http://www.w3.org/2000/svg" xmlns:xlink="http://www.w3.org/1999/xlink" width="25.1" height="25.079" viewBox="0 0 25.1 25.079">
  <defs>
    <clipPath id="clip-path">
      <rect id="Rectángulo_4860" data-name="Rectángulo 4860" width="25.1" height="25.079" fill="#fff" stroke="#2699fb" stroke-width="0.5"/>
    </clipPath>
  </defs>
  <g id="Grupo_10240" data-name="Grupo 10240" clip-path="url(#clip-path)">
    <path id="Trazado_6395" data-name="Trazado 6395" d="M42.318,6.431A6.4,6.4,0,1,1,35.959,0a6.41,6.41,0,0,1,6.359,6.431m-1.753-.012a4.653,4.653,0,1,0-4.634,4.665,4.657,4.657,0,0,0,4.634-4.665" transform="translate(-23.937 0)" fill="#fff" stroke="#2699fb" stroke-width="0.5"/>
    <path id="Trazado_6396" data-name="Trazado 6396" d="M67.773,77.957a2.661,2.661,0,0,1,1.16-2.84c.559-.462,1.033-1.024,1.556-1.531a.647.647,0,0,0,.2-.576,4.666,4.666,0,1,1,4.567,4.282,1.36,1.36,0,0,0-1.13.471c-.648.689-1.34,1.336-2,2.017a1.354,1.354,0,0,1-1.062.455c-.746-.016-1.492,0-2.238-.007s-1.049-.315-1.059-1.071c-.005-.4,0-.8,0-1.2m1.757-.283c.079.253-.173.6.16.783a1.945,1.945,0,0,0,1.613-.333c.734-.733,1.481-1.455,2.2-2.207a1.271,1.271,0,0,1,1.313-.417,2.9,2.9,0,0,0,2.136-5.271,2.772,2.772,0,0,0-3.188-.012,2.684,2.684,0,0,0-1.278,2.858,1.49,1.49,0,0,1-.5,1.5c-.7.638-1.331,1.347-2.022,1.993a1.1,1.1,0,0,0-.433,1.1" transform="translate(-54.911 -55.157)" fill="#fff" stroke="#2699fb" stroke-width="0.5"/>
    <path id="Trazado_6397" data-name="Trazado 6397" d="M6.307,83.342c-1.383,0-2.767.005-4.15,0A1.992,1.992,0,0,1,.027,81.231c-.005-.218.015-.438,0-.655a5.137,5.137,0,0,1,2.786-5.051,16,16,0,0,1,6.755-2.131,23.893,23.893,0,0,1,3.653-.1,3.194,3.194,0,0,1,.808.108.785.785,0,0,1,.572.836.792.792,0,0,1-.681.806,2.6,2.6,0,0,1-.6.008,18.707,18.707,0,0,0-8.086,1.182A9.42,9.42,0,0,0,3.33,77.287a3.29,3.29,0,0,0-1.565,3.042c.07,1.26.015,1.263,1.284,1.263h7.317c.127,0,.255,0,.382,0a.9.9,0,0,1,.941.916.873.873,0,0,1-.959.831c-1.474.008-2.949,0-4.423,0" transform="translate(0 -59.435)" fill="#fff" stroke="#2699fb" stroke-width="0.5"/>
    <path id="Trazado_6398" data-name="Trazado 6398" d="M102.768,85.995a1.248,1.248,0,0,1,1.256,1.231,1.262,1.262,0,1,1-2.523-.009,1.254,1.254,0,0,1,1.267-1.222" transform="translate(-82.336 -69.758)" fill="#fff" stroke="#2699fb" stroke-width="0.5"/>
  </g>
</svg>