<svg id="Grupo_813" data-name="Grupo 813" xmlns="http://www.w3.org/2000/svg" xmlns:xlink="http://www.w3.org/1999/xlink" width="71.801" height="40.806" viewBox="0 0 71.801 40.806">
  <defs>
    <clipPath id="clip-path">
      <rect id="Rectángulo_1231" data-name="Rectángulo 1231" width="71.801" height="40.806" fill="#3cd7f8"/>
    </clipPath>
  </defs>
  <g id="Grupo_812" data-name="Grupo 812" transform="translate(0 0)" clip-path="url(#clip-path)">
    <path id="Trazado_1243" data-name="Trazado 1243" d="M23.662.028c.167.307.265.5.373.684q1.238,2.135,2.478,4.267,4.437,7.667,8.87,15.337,4.257,7.361,8.511,14.724a13.947,13.947,0,0,0,3.254,4.2,5.975,5.975,0,0,0,6.881.829,8.628,8.628,0,0,0,3.433-3.3c1.356-2.236,2.638-4.516,3.949-6.779Q66.538,21.143,71.669,12.3a.749.749,0,0,0-.007-.862Q68.491,5.99,65.357.524A.919.919,0,0,0,64.42,0Q56.177.022,47.934.012c-.146,0-.293.015-.535.028.562.986,1.075,1.9,1.6,2.8q5.454,9.447,10.922,18.887a.681.681,0,0,1-.074.89,3.41,3.41,0,0,1-5.672-.426c-1.547-2.608-3.045-5.245-4.563-7.871Q45.652,7.474,41.7.623a1.031,1.031,0,0,0-1.024-.6c-5.5.019-10.991.01-16.486.009h-.532M0,.057c.123.227.2.368.274.5q3.2,5.534,6.4,11.068,3.468,6,6.934,11.994c1.793,3.107,3.556,6.232,5.377,9.322a53.451,53.451,0,0,0,3.185,5.008,6.582,6.582,0,0,0,5.02,2.824,6.275,6.275,0,0,0,5.352-2.491,46.632,46.632,0,0,0,3.043-4.6c.813-1.289.776-1.295.02-2.6q-4.282-7.379-8.546-14.768Q22.51,8.448,17.975.564A.938.938,0,0,0,17.04.017C11.564.034,6.088.028.612.028.439.029.266.044,0,.057" transform="translate(0 0.001)" fill="#3cd7f8"/>
    <path id="Trazado_1244" data-name="Trazado 1244" d="M68.673.028h.532c5.5,0,10.991.01,16.486-.009a1.031,1.031,0,0,1,1.024.6q3.937,6.857,7.9,13.7c1.517,2.626,3.016,5.263,4.563,7.871a3.41,3.41,0,0,0,5.673.426.682.682,0,0,0,.073-.89Q99.45,12.293,94.006,2.84c-.522-.9-1.035-1.814-1.6-2.8.243-.013.389-.028.535-.028q8.243,0,16.486-.012a.918.918,0,0,1,.937.525q3.125,5.471,6.3,10.911a.749.749,0,0,1,.007.862q-5.137,8.842-10.257,17.694c-1.311,2.263-2.594,4.543-3.949,6.779a8.628,8.628,0,0,1-3.433,3.3,5.974,5.974,0,0,1-6.881-.829,13.945,13.945,0,0,1-3.254-4.2q-4.25-7.365-8.511-14.724-4.434-7.669-8.87-15.337Q70.289,2.843,69.046.712c-.108-.186-.206-.377-.373-.684" transform="translate(-45.011 0)" fill="#3cd7f8"/>
    <path id="Trazado_1245" data-name="Trazado 1245" d="M0,.091C.266.078.439.063.612.062,6.088.062,11.564.069,17.04.051A.938.938,0,0,1,17.975.6q4.531,7.887,9.085,15.759,4.268,7.387,8.546,14.768c.756,1.3.793,1.309-.02,2.6a46.632,46.632,0,0,1-3.043,4.6,6.275,6.275,0,0,1-5.352,2.491,6.582,6.582,0,0,1-5.02-2.824,53.452,53.452,0,0,1-3.185-5.008c-1.821-3.09-3.584-6.215-5.377-9.322q-3.462-6-6.934-11.994Q3.474,6.129.274.6C.2.459.123.319,0,.091" transform="translate(0 -0.033)" fill="#3cd7f8"/>
  </g>
</svg>
