<?xml version="1.0" encoding="UTF-8"?>
<svg id="Capa_1" data-name="Capa 1" xmlns="http://www.w3.org/2000/svg" xmlns:xlink="http://www.w3.org/1999/xlink" viewBox="0 0 821.97 268.28">
  <defs>
    <clipPath id="clippath">
      <rect x="351.69" y="-267.77" width="118.59" height="813.75" transform="translate(202.51 519.63) rotate(-79.98)" style="fill: none; stroke-width: 0px;"/>
    </clipPath>
    <clipPath id="clippath-1">
      <rect x="416.16" y="-195.19" width="81.32" height="558" transform="translate(302.58 521.89) rotate(-81)" style="fill: none; stroke-width: 0px;"/>
    </clipPath>
  </defs>
  <g id="Grupo_10212" data-name="Grupo 10212">
    <g id="Grupo_10208" data-name="Grupo 10208" style="opacity: .3;">
      <g style="clip-path: url(#clippath);">
        <g id="Grupo_10207" data-name="Grupo 10207">
          <path id="Trazado_6335" data-name="Trazado 6335" d="M15.05,41.5c71.13,65.81,158.27,118.19,257.75,118.47,6.52-.15,13.05-.15,19.54-.75,2.34-.21,7.52-.64,9.74-.84,4.97-.75,11.22-1.41,16.13-2.35,3.8-.73,9.14-1.6,12.83-2.49,3.68-.86,9.17-2.04,12.75-3.03,36.41-9.63,72.11-23.26,109.33-30.72,70.49-15.05,144.09-11.57,213.82,5.47,51.87,13,102.28,32.86,149.45,57.79-36.76-15.87-74.13-29.95-112.64-40.38-7.76-2.13-18.03-4.9-25.71-6.51l-12.92-2.94-13.01-2.46c-4.34-.81-8.65-1.76-13.02-2.34-26.07-4.29-52.43-6.65-78.85-7.06-35.15-.46-70.23,3.05-104.59,10.46-76.84,16.55-126.79,47.52-210.11,37.67-90.14-9.95-169.76-62.91-230.5-127.99" style="fill: #fff; stroke-width: 0px;"/>
        </g>
      </g>
    </g>
    <g id="Grupo_10209" data-name="Grupo 10209">
      <g style="clip-path: url(#clippath-1);">
        <g id="Grupo_10207-2" data-name="Grupo 10207-2">
          <path id="Trazado_6335-2" data-name="Trazado 6335-2" d="M184.17,21.71c49.57,44.25,109.95,79.1,178.16,78.09,4.47-.18,8.95-.26,13.39-.75,1.6-.17,5.15-.53,6.67-.69,3.4-.58,7.67-1.1,11.03-1.8,2.59-.55,6.25-1.21,8.76-1.87,2.51-.63,6.26-1.51,8.71-2.23,24.85-7.05,49.16-16.82,74.58-22.39,48.15-11.18,98.64-9.69,146.66,1.15,35.78,8.43,70.42,21.12,103.17,37.8-25.4-10.43-51.19-19.63-77.72-26.31-5.34-1.36-12.42-3.14-17.7-4.15l-8.89-1.86-8.95-1.53c-2.98-.5-5.95-1.1-8.96-1.45-17.93-2.62-36.02-3.92-54.14-3.88-24.1.11-48.11,2.94-71.58,8.45-52.48,12.28-86.35,34.13-143.59,28.39-61.92-5.72-117.15-41.06-159.59-84.94" style="fill: #2699fb; stroke-width: 0px;"/>
        </g>
      </g>
    </g>
  </g>
</svg>