<?xml version="1.0" encoding="UTF-8"?>
<svg id="Capa_2" data-name="Capa 2" xmlns="http://www.w3.org/2000/svg" xmlns:xlink="http://www.w3.org/1999/xlink" viewBox="0 0 240.07 820.78">
  <defs>
    <clipPath id="clippath">
      <rect x="35.23" y="3.62" width="118.56" height="813.54" transform="translate(-35.41 9.8) rotate(-5)" style="fill: none; stroke-width: 0px;"/>
    </clipPath>
    <clipPath id="clippath-1">
      <rect x="87.87" y="101.1" width="81.33" height="558.06" transform="translate(-94.06 46.25) rotate(-15.01)" style="fill: none; stroke-width: 0px;"/>
    </clipPath>
  </defs>
  <g id="Capa_1-2" data-name="Capa 1">
    <g id="Grupo_10212" data-name="Grupo 10212">
      <g id="Grupo_10211" data-name="Grupo 10211" style="opacity: .3;">
        <g style="clip-path: url(#clippath);">
          <g id="Grupo_10207-3" data-name="Grupo 10207-3">
            <path id="Trazado_6335-3" data-name="Trazado 6335-3" d="M86.19,2.79C41.07,88.52,13.07,186.23,38.56,282.37c1.83,6.25,3.53,12.56,5.79,18.68.81,2.21,2.57,7.1,3.33,9.19,2.01,4.61,4.27,10.47,6.44,14.97,1.69,3.48,3.91,8.41,5.73,11.74,1.78,3.33,4.34,8.33,6.23,11.53,18.74,32.67,41.14,63.6,57.98,97.61,32.8,64.17,48.5,136.13,50.11,207.88.88,53.46-5.23,107.28-17.09,159.28,5.8-39.6,9.72-79.34,9.81-119.22.04-8.04.07-18.68-.37-26.51l-.5-13.24-.99-13.2c-.34-4.4-.54-8.81-1.11-13.18-2.61-26.29-7.16-52.35-13.61-77.96-8.66-34.06-21.14-67.03-37.2-98.28-35.89-69.91-78.73-110.12-90.8-193.12C8.57,168.91,39.08,78.31,86.19,2.79" style="fill: #fff; stroke-width: 0px;"/>
          </g>
        </g>
      </g>
      <g id="Grupo_10210" data-name="Grupo 10210">
        <g style="clip-path: url(#clippath-1);">
          <g id="Grupo_10207-4" data-name="Grupo 10207-4">
            <path id="Trazado_6335-4" data-name="Trazado 6335-4" d="M74.32,105.79c-20.26,63.29-27.52,132.64,1.16,194.54,1.98,4.01,3.88,8.07,6.14,11.93.81,1.4,2.58,4.49,3.34,5.81,1.91,2.87,4.13,6.56,6.14,9.34,1.56,2.15,3.65,5.21,5.27,7.25,1.6,2.04,3.93,5.11,5.58,7.05,16.55,19.83,35.37,38.06,50.81,59.02,29.8,39.44,48.99,86.18,58.63,134.46,6.86,36.12,9.36,72.93,7.45,109.64-.8-27.45-2.9-54.75-7.59-81.71-.93-5.44-2.18-12.62-3.41-17.86l-1.92-8.88-2.25-8.8c-.75-2.93-1.42-5.88-2.32-8.77-4.9-17.45-11.08-34.51-18.49-51.04-9.91-21.97-22.27-42.76-36.85-61.96-32.58-42.94-66.32-65-84.37-119.63-19.97-58.9-10.16-123.74,12.66-180.37" style="fill: #2699fb; stroke-width: 0px;"/>
          </g>
        </g>
      </g>
    </g>
  </g>
</svg>