<svg xmlns="http://www.w3.org/2000/svg" viewBox="0 0 794.9 592.1"><defs><style>.cls-1{fill:#003b5c;}</style></defs><title>LOGO Blu - Blue - TerminadoDark (transparente)</title><g id="BANDERA"><path class="cls-1" d="M1357.6,483.4a101.6,101.6,0,0,1-16.3,5.2c-42.3,8.5-95.2-2.4-95.2-2.4-78.8-20.6-121.9-46.9-161.6-69.8-37.6-22.7-39.1-24-105.7-67C896.7,296.3,880.4,291,836.9,271c-32.3-14.9-58.5-24-95.3-28.3-38.8-4.6-71.3-.3-98.7,3.3a556.9,556.9,0,0,0-77.1,16q-.3,228.6-.4,457.2v1.4c54.1-46,105-72.7,140.2-87.9,102.2-44.2,198.3-48.3,230.9-49.3,24.9-.9,40.5-.1,85.9-2,52-2.1,82.9-3.9,127.6-11.8,34.1-6,61.8-10.9,97.6-24.9,9.5-3.7,58.2-23.6,109.4-60.9Zm-324.7,74.5c-13.8.9-30.9,0-48.4.8-39.6,1.6-57.5,3.3-79.3,4-28.3.9-112.4,9.4-190.4,40.1-31,12.2-94.2,48.3-129.2,76.8l-.5.4c.1-132.7-.1-266.3,0-399.1,16.4-4.6,35.7-10.9,63.5-14.6,23.9-3.2,59.5-7,93-1,38.4,6.8,47.2,9.1,79.7,24.7,37.5,18.1,62.1,27.9,122.1,65.9,57.7,36.6,60,38.5,86.7,56.5l2.8,1.6L902.6,451.7Z" transform="translate(-563.9 -240.7)"/><g id="TEXTO"><path class="cls-1" d="M816.5,716h1.9c2.8,0,4.6-.9,5.6-2.7s1.4-6.6,1.4-14.4v-9l.2-11.3c0-2.4.1-4.7.1-7.1v-8.4c0-4.3-.5-7-1.5-8.2s-3-1.9-5.8-1.9h-1v-4.4l8.9.3,6.1.2,9.3-.3,7.4-.2c8.3,0,14.9,1.7,19.7,5.2a17.2,17.2,0,0,1,3.6,24.5,27.8,27.8,0,0,1-10.8,7.7l9.8,13.9c4.7,7.3,8.2,11.9,10.3,13.8a10.4,10.4,0,0,0,6.9,2.8h1.2v4.2l-5.3.4h-4a27.4,27.4,0,0,1-9.6-1.3,16.3,16.3,0,0,1-6.3-4.7c-.8-1-3-4.4-6.4-10s-6.4-10.5-9-14.5H839v13.3c0,5.2.5,8.4,1.5,9.7s3,2,5.9,2h1.4v4.5l-8.2-.3-8.5-.2H827l-10.5.4ZM839,684.3l4.5.2H850l3.6-.2a18.6,18.6,0,0,0,6.4-6.4,16.5,16.5,0,0,0,2.1-8.5,12.9,12.9,0,0,0-4.3-10.1c-2.8-2.6-6.6-3.9-11.3-3.9h-3.9l-3.5.5c0,3.6-.1,7.4-.1,11.4Z" transform="translate(-563.9 -240.7)"/><path class="cls-1" d="M895.3,648.6l15.8.5,12.7.2,15.6-.2,11.9-.5c0,2.9.2,5.8.4,8.6s.4,5.7.8,8.6l-4.5.6c-.5-4.2-1.9-7-4.2-8.5s-6.9-2.2-13.8-2.2h-4.9l-7.6.3c-.1,4.4-.1,8.6-.2,12.7s-.1,7.9-.1,11.7h14.5c4.6,0,7.7-.5,9.1-1.4s2.2-2.6,2.3-5.2l3.7.4c0,1.6,0,3.8-.1,6.3s-.2,4.2-.2,5.1.1,2.1.1,3.5.1,3.1.2,5.1l-4.2.3V694c0-2.9-.8-4.8-2.5-5.8s-5.6-1.6-11.7-1.6H917.1v15c0,3.1.1,6.9.2,11.2l5.6.5,7.4.2c8,0,13.4-.9,16.1-2.6s4.8-4.9,6.4-9.6l4.6,1.4c-1.1,3.3-2,6.3-2.8,9.2s-1.5,5.8-2,8.5l-18.9-.5-12.5-.2c-4.1,0-10.7.2-19.8.5l-7.1.2V716h1.8c2.8,0,4.8-.8,5.8-2.6s1.5-6.2,1.5-13.6V676.8c.1-4.1.2-7,.2-8.5s0-3-.1-4.7v-2.7c0-2.9-.6-5-1.6-6.1s-2.9-1.7-5.5-1.7h-1.2Z" transform="translate(-563.9 -240.7)"/><path class="cls-1" d="M995.4,648.3h12.3q7.2,21.3,13.8,39c4.4,11.9,7.4,19.8,9.2,23.7a7.6,7.6,0,0,0,2.8,3.8,8.3,8.3,0,0,0,4.5,1.1h1.1v4.5l-9.8-.4h-11.5l-10.2.4v-4.5h.9q3.9,0,5.4-.9a3.6,3.6,0,0,0,1.4-3.2,12.8,12.8,0,0,0-.2-1.7c-.1-.6-.4-1.5-.7-2.6l-4.1-12.2H984.5l-.2.5c-3.3,8-4.9,13.1-4.9,15.2a4.6,4.6,0,0,0,1.5,3.8c.9.7,2.6,1.1,4.9,1.1h.9v4.5l-8.9-.4H968l-8.1.4v-4.5a11.9,11.9,0,0,0,5.8-1.2,10.6,10.6,0,0,0,3.7-4.3c1.4-2.6,4.7-9.9,9.7-21.9S989.6,663.1,995.4,648.3Zm2.8,12.1-11,27.8h20.5Z" transform="translate(-563.9 -240.7)"/><path class="cls-1" d="M1045.6,648.7l8,.3,6.8.2,6.9-.2,8.7-.3v4.5h-1.6c-2.8,0-4.7.8-5.7,2.5s-1.5,5.5-1.5,11.4v4.7c.1,2.3.1,4.1.1,5.6v35.3h.3c4.3.3,7.6.4,9.8.4,8.4,0,13.9-.8,16.6-2.6s4.7-5,6.4-9.9l4.6,1.4c-1,3-2,6.1-2.8,9.2s-1.5,6.2-2.1,9.3l-16.6-.4-13.9-.2-12.7.2-12.6.4V716h1.4a13.7,13.7,0,0,0,4.1-.5,4.4,4.4,0,0,0,2.2-1.8q1.4-2.9,1.5-20.7V678.5c0-1.5,0-3.4.1-5.8v-5c0-6.1-.5-10-1.5-11.8s-2.8-2.8-5.6-2.8h-1.1Z" transform="translate(-563.9 -240.7)"/><path class="cls-1" d="M1116.9,715.9h1.9a12.1,12.1,0,0,0,4.9-.7,4.6,4.6,0,0,0,2.3-2.6c.4-.9.6-3.2.8-6.8s.2-10.4.2-20.2V656.9h-8.7c-5.3,0-8.9.7-10.8,2.2s-3.3,4.3-4,8.5l-4.8-1a89.3,89.3,0,0,0,1.8-9.6c.4-3,.7-6,.8-8.9a27.2,27.2,0,0,0,5.4.9q3.5.3,11.7.3h30.2q9.2,0,12.9-.3a17.7,17.7,0,0,0,5.3-1v1.6a75.7,75.7,0,0,0,.4,8.1c.2,2.8.5,5.8.9,8.9l-4.5.7c-.6-4.1-1.7-6.9-3.5-8.3s-5.1-2.1-10.3-2.1H1141c-.1,5.3-.2,10.6-.2,15.8s-.1,11.3-.1,18.2v9.4q0,6.6.3,9.3a12,12,0,0,0,1,3.9,4.2,4.2,0,0,0,2.4,1.9,16.4,16.4,0,0,0,4.5.5h1.7v4.5h-3.7l-13.5-.5-6.7.2-9.8.4Z" transform="translate(-563.9 -240.7)"/><path class="cls-1" d="M1170.8,648.7l9.3.3,6.8.2,5.5-.2,9.1-.3v4.5a15,15,0,0,0-4.9.6,2,2,0,0,0-1.5,1.9c0,1.2.6,3,2,5.4l.8,1.6,11.1,19.8,3.4-5.8c7.1-12.4,10.7-19.3,10.7-20.7a2.1,2.1,0,0,0-1.2-2.1,7,7,0,0,0-3.6-.7h-1.1v-4.5l7.2.3,4.7.2,4.9-.2,7.3-.3V653h-1.2c-3.3,0-7.2,3.7-11.8,11.2l-2.4,3.9-13.4,21.6v16.1c0,4.3.6,7.1,1.6,8.3s2.9,1.9,5.8,1.9h2.1v4.5l-9.8-.4-7.4-.2-10.9.4-5.3.2v-4.5h2.1c3,0,5-.7,6-2s1.7-4,1.7-8V690.1L1181.8,662c-.2-.4-.6-.9-1-1.7-2.9-4.8-5.8-7.2-8.5-7.2h-1.5Z" transform="translate(-563.9 -240.7)"/><path class="cls-1" d="M1323.6,711.6a52.6,52.6,0,0,1-11.6,8,27,27,0,0,1-11.2,2.7c-6.5,0-11.7-2-15.9-5.9a19.5,19.5,0,0,1-6.1-14.8,17.6,17.6,0,0,1,4.7-12.6c3.1-3.5,7.8-6.1,14-8a29.5,29.5,0,0,1-6.1-7.6,17.1,17.1,0,0,1-2-8.2,16.3,16.3,0,0,1,5.8-12.6,21,21,0,0,1,14.4-5.1c4.9,0,8.8,1.3,11.8,3.9a12.5,12.5,0,0,1,4.4,9.9,18,18,0,0,1-3.4,10.8,30.1,30.1,0,0,1-10.2,8.3l16.4,18.7a47.2,47.2,0,0,0,7.7-11.1c2-3.8,3-6.9,3-9.1a3.4,3.4,0,0,0-.4-1.8,3.2,3.2,0,0,0-1.1-1.2l-1.8-.4-2.9-.2v-4.5l3.6.2c4.1.3,6.9.4,8.3.4h4.8l6.7-.5v4.5h-1.7a6.7,6.7,0,0,0-4.1,1c-1,.6-2.1,2.1-3.2,4.5a98.9,98.9,0,0,1-7.3,12.8,62.2,62.2,0,0,1-7.9,9.4l2.2,2.5a38.1,38.1,0,0,0,6.6,6.2,9,9,0,0,0,9.8.3,25.1,25.1,0,0,0,5-3.9l2.9,2.8a29.8,29.8,0,0,1-8.5,8.5,18.3,18.3,0,0,1-9.8,2.9,15,15,0,0,1-7.8-2.3A46.4,46.4,0,0,1,1323.6,711.6Zm-3.6-4-19.3-22.9a18.2,18.2,0,0,0-7.3,5.1,12,12,0,0,0-2.4,7.5,15.2,15.2,0,0,0,4.7,11.2,14.7,14.7,0,0,0,11,4.8,16.3,16.3,0,0,0,6.6-1.4A28,28,0,0,0,1320,707.6Zm-10.8-30.4a19.9,19.9,0,0,0,5.6-6.4,16.7,16.7,0,0,0,1.9-7.9,9.4,9.4,0,0,0-2.5-6.8,8,8,0,0,0-6.3-2.7,7.3,7.3,0,0,0-5.5,2.3,7.9,7.9,0,0,0-2.2,5.8,14.8,14.8,0,0,0,2.2,7.2A50.3,50.3,0,0,0,1309.2,677.2Z" transform="translate(-563.9 -240.7)"/><path class="cls-1" d="M564.6,759.7l9,.4,7.3.2,7.1-.2,8.8-.4v4.5h-1.1a11.8,11.8,0,0,0-4.9.7,4,4,0,0,0-2.1,2.6,24.5,24.5,0,0,0-.9,6.1c-.1,3.1-.2,8.5-.2,16.4v20.7q0,7,.3,9.9a9.9,9.9,0,0,0,1,3.9,3.7,3.7,0,0,0,2.3,1.9,19.9,19.9,0,0,0,4.9.5h1.3v4.5l-9.7-.4-7.1-.2-6.9.2-9.8.4v-4.5h1.3a20.2,20.2,0,0,0,5-.5,3.7,3.7,0,0,0,2.3-1.9,12.6,12.6,0,0,0,1-4.6c.2-2.1.3-5.9.3-11.5V778.9a85.6,85.6,0,0,0-.3-8.7,9.4,9.4,0,0,0-.9-3.7,3.7,3.7,0,0,0-2.3-1.7,14.5,14.5,0,0,0-4.7-.6h-1Z" transform="translate(-563.9 -240.7)"/><path class="cls-1" d="M603,759.8l6.1.2,5.8.3,5.5-.3,5.7-.2a25.4,25.4,0,0,0,2.1,3.9,39.6,39.6,0,0,0,3.6,4.7L668.7,812c0-4.3-.1-10.1-.1-17.4-.2-16-.4-24.8-.8-26.2a5.1,5.1,0,0,0-2.2-3.3,10.3,10.3,0,0,0-5-.9H659v-4.4l8.3.4h10.1l7.8-.4v4.4h-.9a11.3,11.3,0,0,0-4.7.7,4.8,4.8,0,0,0-2.2,2.6c-.5,1.6-.9,9.1-1.1,22.6v.9l-.2,10.9c-.1,4.2-.1,8.1-.2,11.8v9.2c0,1.6,0,3.2.1,4.8s.3,3,.6,4.4h-9.9c-.4-.8-1-1.7-1.7-2.8s-2.3-2.9-4.5-5.5l-40.6-47.5c0,15.9.1,27.3.3,34.1s.4,11,.7,12.2a5.9,5.9,0,0,0,2.3,3.4,10.3,10.3,0,0,0,5,.9h1.5v4.5l-8.6-.4h-9.3l-8.9.4v-4.5H605c4.8,0,7.2-6.6,7.3-19.8.1-2.9.1-5.1.1-6.7V789.7c0-2.1.1-5.3.1-9.3s.2-6.7.2-7.9q0-4.8-1.8-6.6c-1.1-1.2-3.1-1.8-6.1-1.8H603Z" transform="translate(-563.9 -240.7)"/><path class="cls-1" d="M688.3,759.7l4.8.2,10.5.4,13-.5h3.7V764c-3.1.1-5.2.5-6.1,1.1s-1.5,1.7-1.5,3.4a12,12,0,0,0,.4,2.4,39.8,39.8,0,0,0,1.4,4.5l14.5,41,.3-.9q17.4-43.2,17.4-47.3a3.4,3.4,0,0,0-1.5-3.2c-.9-.7-2.9-1-5.9-1.1v-4.2h2.4l10.8.5,9.7-.5h3.4v4.5a17.2,17.2,0,0,0-3.4.3,8.1,8.1,0,0,0-2.5.9c-1.3.8-3.5,5-6.6,12.4-1.3,3.1-2.3,5.6-3.1,7.4-6.9,16.2-11.9,27.9-14.8,35.2s-4.5,11.1-4.5,11.8H720.4c0-.8-1.9-6.6-5.7-17.5s-8.4-22.8-13.6-36l-1.2-3c-3.1-7.9-6.6-11.8-10.3-11.8h-1.3Z" transform="translate(-563.9 -240.7)"/><path class="cls-1" d="M771.1,759.6l15.8.5,12.8.2,15.5-.2,11.9-.5c0,2.9.2,5.8.4,8.6s.5,5.7.8,8.6l-4.5.6c-.5-4.2-1.9-7-4.2-8.5s-6.9-2.2-13.8-2.2h-4.9l-7.6.3c-.1,4.4-.1,8.6-.2,12.7s-.1,7.9-.1,11.7h14.5c4.6,0,7.7-.5,9.1-1.4s2.2-2.6,2.3-5.2l3.7.4c0,1.6,0,3.8-.1,6.3s-.2,4.2-.2,5.1.1,2.1.1,3.5.1,3.1.2,5.1l-4.2.3V805c0-2.9-.8-4.8-2.5-5.8s-5.6-1.6-11.7-1.6H792.9v15c0,3.1.1,6.9.2,11.2l5.6.5,7.4.2c8.1,0,13.4-.9,16.1-2.6s4.8-4.9,6.4-9.6l4.6,1.4c-1.1,3.3-2,6.3-2.8,9.2s-1.4,5.8-2,8.5l-18.9-.5-12.5-.2c-4.1,0-10.7.2-19.8.5l-7.1.2V827h1.8c2.9,0,4.8-.8,5.8-2.6s1.5-6.2,1.5-13.6V787.8c.1-4.1.2-7,.2-8.5s0-3-.1-4.7v-2.7c0-2.9-.5-5-1.6-6.1s-2.9-1.7-5.5-1.7h-1.2Z" transform="translate(-563.9 -240.7)"/><path class="cls-1" d="M889.6,761.8v1.1a65.6,65.6,0,0,0,.4,7.6c.3,2.5.7,5.2,1.3,7.9l-5.2.8c-.6-4.3-2.2-7.6-4.9-9.8s-6.3-3.3-11-3.3-7.7.8-10.1,2.5a8.1,8.1,0,0,0-3.7,7.1,8.9,8.9,0,0,0,1.5,5.2,12.4,12.4,0,0,0,4.7,3.9,86,86,0,0,0,8.5,3.3c4,1.3,7,2.4,9,3.2,4.4,1.8,7.7,4.1,9.9,7a17.1,17.1,0,0,1,3.3,10.5,21.1,21.1,0,0,1-8.4,17.5c-5.6,4.3-13.2,6.5-22.8,6.5a52,52,0,0,1-9.6-.9,62.8,62.8,0,0,1-9.4-2.7,8.6,8.6,0,0,1,.1-1.5v-1.4a53.2,53.2,0,0,0-.5-7.9c-.3-2.7-.8-5.4-1.4-8.3l5.4-1.3c1.3,6.1,3.4,10.4,6.2,12.9s7,3.7,12.6,3.7,8.1-1.1,10.8-3.1a9.7,9.7,0,0,0,3.9-8.1c0-4.8-4.6-8.8-13.9-12.1l-4.6-1.6c-6.4-2.4-11-5.2-13.7-8.3a17.3,17.3,0,0,1-4.2-11.9,18.9,18.9,0,0,1,7.6-15.7c5-4,11.6-6,19.9-6a53.3,53.3,0,0,1,8.8.8A66.1,66.1,0,0,1,889.6,761.8Z" transform="translate(-563.9 -240.7)"/><path class="cls-1" d="M917.1,826.9h1.8a11.8,11.8,0,0,0,4.9-.7,4.7,4.7,0,0,0,2.4-2.6,37.9,37.9,0,0,0,.7-6.8c.1-3.7.2-10.4.2-20.2V767.9h-8.7c-5.3,0-8.9.7-10.8,2.2s-3.3,4.3-4,8.5l-4.8-1a89.3,89.3,0,0,0,1.8-9.6c.4-3,.7-6,.8-8.9a27.2,27.2,0,0,0,5.4.9q3.5.3,11.7.3h30.2q9.3,0,12.9-.3a17.7,17.7,0,0,0,5.3-1v1.6c0,2.6.2,5.3.4,8.1s.5,5.8,1,8.9l-4.6.7c-.5-4.1-1.7-6.9-3.4-8.3s-5.2-2.1-10.4-2.1h-8.8c-.1,5.3-.2,10.6-.2,15.8s-.1,11.3-.1,18.2v9.4q0,6.6.3,9.3a12,12,0,0,0,1,3.9,4.2,4.2,0,0,0,2.4,1.9,16.4,16.4,0,0,0,4.5.5h1.7v4.5H947l-13.5-.5-6.7.2-9.7.4Z" transform="translate(-563.9 -240.7)"/><path class="cls-1" d="M1019.4,809.1l13.1-29.7c2.8-6.3,4.7-10.7,5.6-13.3a19.8,19.8,0,0,0,1.3-5.9v-.5h1.5c5.2.3,8.8.4,11.1.4l7.7-.3h3.7v4.5c-3.4,0-5.7.4-6.9,1.3s-1.6,2.7-1.6,5.5,0,3.6.2,6.7.3,6.6.5,10.3l.7,12.2c.6,8.9,1,14.8,1.3,17.7a28.8,28.8,0,0,0,.8,5.8,3.9,3.9,0,0,0,2,2.4,11.2,11.2,0,0,0,4.4.8h1.2v4.5l-8.3-.3-7.5-.2h-5.1l-9.7.4v-4.5h1.6c2.7,0,4.6-.5,5.7-1.4s1.6-2.6,1.6-5c0-.8-.1-1.6-.1-2.5a21.9,21.9,0,0,0-.2-3.3l-2-40.1-18.2,41.2c-1.8,4-3,7-3.7,9a58.9,58.9,0,0,0-1.6,5.9h-5.4c-.3-1.3-.8-2.8-1.3-4.4a53.5,53.5,0,0,0-2.5-6.3l-18.4-44.2c-.9,10.9-1.7,20-2.2,27.4s-.8,12.3-.8,15,.5,5.9,1.5,7,2.9,1.7,5.8,1.7h1.4v4.5l-8-.4h-8.8l-9,.4v-4.5h2.2c4.4,0,7.1-6.2,8.1-18.5.3-3.3.5-6,.6-7.9l1.2-12.1c.4-4.8.7-8.7.9-11.9s.4-5.2.4-6.1c0-2.5-.5-4.2-1.4-5.1s-2.8-1.3-5.6-1.3h-1.3v-4.5l6.2.3h5.5l8.5-.3h4.1v.4c0,2.6,3.9,13.1,11.8,31.4C1015,798.9,1017.5,804.8,1019.4,809.1Z" transform="translate(-563.9 -240.7)"/><path class="cls-1" d="M1072.6,759.6l15.8.5,12.7.2,15.6-.2,11.8-.5c.1,2.9.3,5.8.5,8.6s.4,5.7.8,8.6l-4.5.6c-.5-4.2-1.9-7-4.2-8.5s-6.9-2.2-13.8-2.2h-4.9l-7.6.3c-.1,4.4-.1,8.6-.2,12.7s-.1,7.9-.1,11.7H1109c4.6,0,7.6-.5,9.1-1.4s2.2-2.6,2.3-5.2l3.7.4c0,1.6,0,3.8-.1,6.3s-.2,4.2-.2,5.1,0,2.1.1,3.5.1,3.1.2,5.1l-4.2.3V805c0-2.9-.8-4.8-2.5-5.8s-5.6-1.6-11.7-1.6h-11.4v5.8c0,3,.1,6.1.1,9.2s.1,6.9.2,11.2c1.5.2,3.3.4,5.6.5l7.4.2c8,0,13.4-.9,16-2.6s4.9-4.9,6.5-9.6l4.6,1.4c-1.1,3.3-2,6.3-2.8,9.2s-1.5,5.8-2,8.5l-18.9-.5-12.5-.2c-4.2,0-10.7.2-19.8.5l-7.1.2V827h1.8c2.8,0,4.8-.8,5.8-2.6s1.5-6.2,1.5-13.6V787.8c.1-4.1.2-7,.2-8.5s0-3-.1-4.7v-2.7c0-2.9-.6-5-1.6-6.1s-2.9-1.7-5.5-1.7h-1.2Z" transform="translate(-563.9 -240.7)"/><path class="cls-1" d="M1140.5,759.8l6,.2,5.8.3,5.5-.3,5.8-.2a18.1,18.1,0,0,0,2,3.9,39.6,39.6,0,0,0,3.6,4.7l37,43.6c-.1-4.3-.1-10.1-.2-17.4-.1-16-.4-24.8-.7-26.2a5.6,5.6,0,0,0-2.3-3.3,9.9,9.9,0,0,0-4.9-.9h-1.7v-4.4l8.4.4h10l7.9-.4v4.4h-1a11.3,11.3,0,0,0-4.7.7,4.3,4.3,0,0,0-2.1,2.6c-.6,1.6-1,9.1-1.2,22.6v.9l-.2,10.9c-.1,4.2-.1,8.1-.2,11.8v9.2c0,1.6.1,3.2.2,4.8s.3,3,.5,4.4h-9.9a19,19,0,0,0-1.7-2.8l-4.4-5.5-40.6-47.5c0,15.9.1,27.3.2,34.1s.4,11,.8,12.2a5.4,5.4,0,0,0,2.2,3.4,10.3,10.3,0,0,0,5,.9h1.6v4.5l-8.7-.4h-9.2l-8.9.4v-4.5h2c4.8,0,7.3-6.6,7.4-19.8v-6.7l.2-10.8c0-2.1,0-5.3.1-9.3s.1-6.7.1-7.9c0-3.2-.6-5.4-1.7-6.6s-3.2-1.8-6.2-1.8h-1.8Z" transform="translate(-563.9 -240.7)"/><path class="cls-1" d="M1243.2,826.9h1.9a12.1,12.1,0,0,0,4.9-.7,4.6,4.6,0,0,0,2.3-2.6c.4-.9.6-3.2.7-6.8s.2-10.4.2-20.2V767.9h-8.6c-5.3,0-8.9.7-10.8,2.2s-3.3,4.3-4,8.5l-4.8-1a89.3,89.3,0,0,0,1.8-9.6c.4-3,.7-6,.8-8.9a27.2,27.2,0,0,0,5.4.9q3.4.3,11.7.3h30.2q9.1,0,12.9-.3a17.7,17.7,0,0,0,5.3-1v1.6q0,3.9.3,8.1c.3,2.8.6,5.8,1,8.9l-4.5.7c-.6-4.1-1.7-6.9-3.5-8.3s-5.1-2.1-10.3-2.1h-8.8c-.1,5.3-.2,10.6-.2,15.8s-.1,11.3-.1,18.2v9.4q0,6.6.3,9.3a9.9,9.9,0,0,0,1,3.9,4.3,4.3,0,0,0,2.3,1.9,17.8,17.8,0,0,0,4.6.5h1.7v4.5h-3.7l-13.5-.5-6.7.2-9.8.4Z" transform="translate(-563.9 -240.7)"/><path class="cls-1" d="M1349.5,761.8v1.1a65.6,65.6,0,0,0,.4,7.6c.3,2.5.7,5.2,1.3,7.9l-5.3.8a14.6,14.6,0,0,0-4.8-9.8c-2.7-2.2-6.3-3.3-11-3.3s-7.7.8-10.2,2.5a8.3,8.3,0,0,0-3.6,7.1,8.9,8.9,0,0,0,1.5,5.2,12.1,12.1,0,0,0,4.6,3.9,90.7,90.7,0,0,0,8.6,3.3c4,1.3,7,2.4,9,3.2,4.3,1.8,7.6,4.1,9.8,7a17.1,17.1,0,0,1,3.3,10.5,21.1,21.1,0,0,1-8.4,17.5c-5.6,4.3-13.2,6.5-22.8,6.5a51.7,51.7,0,0,1-9.5-.9,59.6,59.6,0,0,1-9.4-2.7v-1.5a8.2,8.2,0,0,0,.1-1.4,71.3,71.3,0,0,0-.5-7.9,66.3,66.3,0,0,0-1.5-8.3l5.5-1.3c1.3,6.1,3.3,10.4,6.2,12.9s7,3.7,12.6,3.7,8.1-1.1,10.7-3.1a9.8,9.8,0,0,0,4-8.1c0-4.8-4.7-8.8-13.9-12.1l-4.7-1.6c-6.3-2.4-10.9-5.2-13.7-8.3a17.7,17.7,0,0,1-4.1-11.9,19.1,19.1,0,0,1,7.5-15.7c5.1-4,11.7-6,20-6a53.3,53.3,0,0,1,8.8.8A69.6,69.6,0,0,1,1349.5,761.8Z" transform="translate(-563.9 -240.7)"/></g></g><g id="Capa_3" data-name="Capa 3"><path class="cls-1" d="M853.7,384.9c13.7,2.6,26.8,6.2,39.5,9.5,1.2,2,.7,3.5.6,5-2.4,1.4-4.9.5-7.3.7-5.2.5-6.8,1.7-7.8,6.8a74.7,74.7,0,0,0-1.6,14.9v49.9a32.8,32.8,0,0,1-2.1,12.8c-4.2,10.4-12.4,15.4-23.2,16-15.5.8-28.8-4.5-39.4-15.9-6.6-7.1-9.1-15.7-9.1-25.2.1-20.5.3-41,.4-61.5,0-1.5-.1-3,0-4.5.3-5.6-2.1-9.2-7.5-10.9a46.9,46.9,0,0,1-4.5-1.8,5.7,5.7,0,0,1-.3-4.4,2.4,2.4,0,0,1,2.3-.8c7.3.9,14.6,1.7,21.8,2.7l12.4,1.6c4.8.6,5,.8,4.6,6.2-1.9,1.2-4.1.5-6.2.6-4.9.5-6.9,2.3-7.2,7.2s-.1,9.7-.1,14.5c-.1,18.5-.5,37,.1,55.5.4,13,8.6,23.5,20.5,26.4a45.6,45.6,0,0,0,13.3,1.4c6.9-.3,11.6-3.7,14.2-10a36.6,36.6,0,0,0,2.7-14.2c.1-17,.1-34,.1-51a21.8,21.8,0,0,0-.1-2.5c-2.1-16.5-1.5-15.6-14-22.1C852.8,390.3,852.2,388.2,853.7,384.9Z" transform="translate(-563.9 -240.7)"/><path class="cls-1" d="M708.4,381.6c-.7-1.5-.5-2.8,0-4.7,12.9-2.6,26.4-2.4,39.6-3.8,1.5,1.9,1.1,3.6.6,5.4-2.4,1.7-5.4,1.5-8,2.6s-4.4,2.6-4.9,5.7a82.4,82.4,0,0,0-.7,9.9v72.5c0,9.3,1.7,11,11,11.4,5.8.3,11.6-.6,17.4-1,3.3-.2,5.4-2.3,7-5.1,3.2-5.4,5.9-11.1,8.8-16.8,1.6-3.2,1.7-3.2,6-1.9.2,10.7-1.2,21.5-1.5,32.8-25.3-1.3-50.3-2.2-75.2.4-2.2-4.8-1.9-5.3,2.4-6.4,7.8-2,9.2-3.7,9.2-11.8.1-25.7.1-51.3.1-77a20.5,20.5,0,0,0,0-3.5c-.3-4-1.6-5.5-5.4-6.9C712.8,382.7,710.5,383.1,708.4,381.6Z" transform="translate(-563.9 -240.7)"/><path class="cls-1" d="M694.1,455.2a20.6,20.6,0,0,0-20.2-18.4c-2-.1-4.1,0-6.1,0a42.2,42.2,0,0,1,7.6-6.2c9.9-7.7,15.1-17.5,13.8-30.3-.7-7.5-4.7-12.5-12-14.1a20.8,20.8,0,0,0-10.8.2c-5.3,1.5-10.5,3.3-15.6,5.3a272.5,272.5,0,0,0-28.6,13c-4,2-4.3,2.8-3.1,7.1a13.7,13.7,0,0,1,4.8-1.3c4.7-.7,6.3.4,6.3,5.1v75.5a17.7,17.7,0,0,1-3.7,10.6,19.6,19.6,0,0,1-6.7,5.1c-2.7,1.5-3.4,3.4-1.4,6.3l14.8-6.2c10.4-4,21.1-7.1,31.8-10.2C684.7,491,696.2,474.5,694.1,455.2Zm-47.4-55.5c5-2,9.9-4.7,15.5-4.9s8.9,1.9,10.1,7.5c1.9,9.3.8,18.2-4.8,26.2a22.7,22.7,0,0,1-10.1,7.8l-12.5,5.3V403C644.9,401.6,645.2,400.2,646.7,399.7Zm25.6,82.1c-4.9,8-12.6,11.7-21.9,11.4-4.5-.1-6-1.6-6.1-6.1s-.1-12-.1-18h.1c0-5.5.1-11-.1-16.5-.1-3.1.9-5,4.1-5.9s7.5-2.5,11.4-3.6c8.1-2.1,14.8,1.7,16.8,9.8C678.9,463,677.9,472.9,672.3,481.8Z" transform="translate(-563.9 -240.7)"/></g></svg>