<svg id="Grupo_807" data-name="Grupo 807" xmlns="http://www.w3.org/2000/svg" xmlns:xlink="http://www.w3.org/1999/xlink" width="48.517" height="53.016" viewBox="0 0 48.517 53.016">
  <defs>
    <clipPath id="clip-path">
      <rect id="Rectángulo_1227" data-name="Rectángulo 1227" width="48.517" height="53.016" fill="#3cd7f8"/>
    </clipPath>
  </defs>
  <g id="Grupo_806" data-name="Grupo 806" transform="translate(0 0)" clip-path="url(#clip-path)">
    <path id="Trazado_1240" data-name="Trazado 1240" d="M22.081,36.531a52.474,52.474,0,0,0,4.426-8.214c2.122-4.549,3.976-9.208,4.481-14.268A20.972,20.972,0,0,0,29.9,4.423c-.324-.856-.305-1.262.816-1.475Q37.634,1.633,44.507.067c1.409-.318,1.747.559,2.157,1.473,2.514,5.615,2.205,11.356.644,17.113C44.934,27.408,40.5,35.182,35.62,42.722c-1.974,3.051-4.151,5.97-6.179,8.987A2.615,2.615,0,0,1,26.975,53c-5.772-.056-11.546-.086-17.316.016-1.434.025-1.784-.54-1.981-1.762Q3.92,27.962.08,4.683c-.248-1.5.023-2,1.681-2.116,4.752-.324,9.491-.856,14.225-1.4,1.341-.154,1.827.165,1.988,1.573,1.131,9.839,2.353,19.667,3.55,29.5.156,1.279.332,2.556.558,4.293" transform="translate(0 0)" fill="#3cd7f8"/>
  </g>
</svg>
