<?xml version="1.0" encoding="UTF-8"?>
<svg id="Capa_2" data-name="Capa 2" xmlns="http://www.w3.org/2000/svg" viewBox="0 0 52.61 52.81">
  <g id="Capa_1-2" data-name="Capa 1">
    <g id="Grupo_10215" data-name="Grupo 10215">
      <path id="Trazado_6325" data-name="Trazado 6325" d="M0,52.81c.82-2.99,1.62-5.88,2.4-8.77.38-1.38.71-2.78,1.13-4.15.13-.38.08-.8-.13-1.14C.76,34.09-.3,28.71.37,23.4,1.84,12.63,7.69,5.09,17.95,1.48c13.52-4.76,28.34,2.34,33.1,15.87.17.48.32.97.46,1.46,4.11,13.83-3.77,28.38-17.6,32.49-.06.02-.11.03-.17.05-6.41,1.93-13.33,1.28-19.27-1.81-.41-.22-.89-.26-1.33-.12-4.12,1.11-8.25,2.2-12.37,3.28-.26.05-.52.09-.78.11M48.12,26.12c-.08-.93-.05-2.01-.21-3.09-1.4-9.51-8.88-16.98-18.39-18.37-5.67-.88-11.45.59-16.02,4.06-5.21,3.74-8.44,9.64-8.79,16.04-.36,4.63.81,9.24,3.34,13.13.32.45.4,1.02.22,1.54-.64,2.16-1.19,4.34-1.8,6.51-.14.51-.12.7.5.53,2.2-.6,4.42-1.12,6.61-1.76.61-.2,1.27-.11,1.8.25,4.31,2.6,9.41,3.58,14.37,2.76,10.62-1.67,18.43-10.85,18.37-21.6" style="fill: #fff; stroke-width: 0px;"/>
      <path id="Trazado_6326" data-name="Trazado 6326" d="M13.11,20.04c.02-1.92.82-3.74,2.21-5.06,1.03-.85,2.41-1.14,3.69-.77.35.16.62.46.74.83.73,1.72,1.46,3.44,2.17,5.17.2.44.14.95-.16,1.33-.49.66-.96,1.33-1.49,1.96-.43.43-.48,1.11-.11,1.59,2.03,3.44,5.15,6.1,8.86,7.57.48.26,1.09.11,1.4-.34.61-.75,1.24-1.49,1.81-2.27.31-.59,1.05-.82,1.64-.5,0,0,.02.01.03.02,1.74.83,3.48,1.67,5.22,2.51.29.09.49.35.51.65.23,1.63-.37,3.26-1.6,4.35-1.89,1.62-4.47,2.18-6.86,1.48-7.83-2.06-13.17-7.21-17.03-14.09-.75-1.36-1.11-2.89-1.03-4.44" style="fill: #fff; stroke-width: 0px;"/>
    </g>
  </g>
</svg>