<svg xmlns="http://www.w3.org/2000/svg" xmlns:xlink="http://www.w3.org/1999/xlink" width="60.378" height="85" viewBox="0 0 60.378 85">
  <defs>
    <clipPath id="clip-path">
      <rect id="Rectángulo_4107" data-name="Rectángulo 4107" width="60.378" height="85" fill="#003b5c"/>
    </clipPath>
  </defs>
  <g id="Grupo_9048" data-name="Grupo 9048" clip-path="url(#clip-path)">
    <path id="Trazado_4439" data-name="Trazado 4439" d="M60.363,49.513q0,13.028-.006,26.057a9.009,9.009,0,0,1-5.968,8.912,9.874,9.874,0,0,1-3.611.509q-20.608.008-41.217,0c-5.817-.01-9.55-3.769-9.554-9.563q-.014-25.879,0-51.758c0-5.762,3.816-9.548,9.586-9.572,1.422-.006,2.843-.022,4.264.009.6.013.874-.182.83-.809a10.955,10.955,0,0,1,.013-1.42,3.834,3.834,0,0,1,3.835-3.724c.079,0,.158,0,.237,0,1.859-.023,1.859-.023,2.426-1.771A9.5,9.5,0,0,1,39.117,6.29c.618,1.831.618,1.831,2.486,1.858a3.89,3.89,0,0,1,4.074,4.106c.06,1.838.06,1.815,1.917,1.845a35.819,35.819,0,0,1,5.083.144,8.844,8.844,0,0,1,7.654,8.739c.085,6.592.028,13.186.032,19.779q0,3.375,0,6.751m-9.074-.185q0-11.074,0-22.146c0-3.145-1.4-4.547-4.561-4.548q-16.58-.006-33.16,0c-3.09,0-4.515,1.414-4.516,4.472q-.006,22.2,0,44.411c0,3.066,1.407,4.473,4.5,4.475q16.639.012,33.278,0c3.064,0,4.457-1.429,4.459-4.519q.006-11.073,0-22.146m-48.667.192q0,12.97,0,25.939c.006,4.388,2.625,7.013,7,7.015q20.55.012,41.1,0c4.393,0,7.009-2.629,7.01-7q0-25.7,0-51.4c0-.473,0-.948-.038-1.42a6.355,6.355,0,0,0-6-5.935c-1.733-.085-3.474-.025-5.211-.019-.259,0-.652-.1-.715.237a6.046,6.046,0,0,0,.01,2.812c.2.659,1.044.3,1.593.317a6.41,6.41,0,0,1,6.525,6.425q.045,22.859,0,45.719a6.247,6.247,0,0,1-6.312,6.335q-17.411.046-34.823,0A6.261,6.261,0,0,1,6.452,72.2q-.039-22.859,0-45.719a6.378,6.378,0,0,1,6.063-6.384c2.25-.165,2.225-.165,2.182-2.46-.013-.7-.188-.99-.937-.96a33.554,33.554,0,0,1-3.906,0c-3.693-.282-7.374,2.37-7.279,7.266.166,8.525.046,17.055.046,25.583M30.045,20.057q5.975,0,11.95,0c.54,0,1.13.129,1.119-.768-.032-2.366.007-4.733-.026-7.1a1.329,1.329,0,0,0-1.516-1.429q-1.361.01-2.721,0c-1.352-.014-1.732-.365-1.821-1.734A6.5,6.5,0,0,0,35.1,4.69a6.555,6.555,0,0,0-7.388-1.646,6.554,6.554,0,0,0-4.415,5.9c-.134,1.461-.459,1.8-1.883,1.812-.789.007-1.577-.005-2.366,0-1.439.016-1.846.4-1.856,1.815-.016,2.13.041,4.261-.026,6.388-.029.926.314,1.117,1.16,1.109,3.9-.038,7.809-.017,11.713-.017" transform="translate(0 0)" fill="#003b5c"/>
    <path id="Trazado_4440" data-name="Trazado 4440" d="M43.682,66.1c0,1.657.035,3.315-.014,4.97-.023.779.235,1.007,1.011,1,3.273-.04,6.547-.022,9.821-.014,1.53,0,1.96.463,1.916,1.993A14.029,14.029,0,1,1,41.69,59.375c1.523-.1,1.982.326,1.99,1.878.009,1.617,0,3.234,0,4.852m-2.635,7.235c0-3.433-.028-6.866.019-10.3.012-.9-.272-1.064-1.094-.88a11.474,11.474,0,0,0-.069,22.4c.823.182,1.187.08,1.169-.921-.062-3.432-.024-6.865-.024-10.3m7.69,1.339c-1.224,0-2.455.085-3.67-.024-1.2-.107-1.459.357-1.409,1.464.088,1.97.025,3.947.025,5.922,0,3.056.022,3.109,2.923,1.94a11.3,11.3,0,0,0,6.959-8.12c.208-.806.1-1.264-.92-1.2-1.3.08-2.6.019-3.908.019" transform="translate(-13.223 -27.647)" fill="#003b5c"/>
    <path id="Trazado_4441" data-name="Trazado 4441" d="M61.093,58.039c0-1.972-.015-3.944.006-5.916.014-1.325.507-1.764,1.824-1.707A14.064,14.064,0,0,1,76.369,63.285c.173,2.056-.175,2.434-2.251,2.435q-5.562,0-11.123,0c-1.531,0-1.89-.36-1.9-1.88-.012-1.932,0-3.865,0-5.8m7.663,5.09c1.42,0,2.839-.012,4.259.006.526.007.752-.053.646-.714A11.617,11.617,0,0,0,64.6,53.2c-.631-.1-.945-.007-.937.74.032,2.8.027,5.6,0,8.4-.005.626.223.815.828.8,1.419-.034,2.839-.011,4.259-.011" transform="translate(-28.451 -23.479)" fill="#003b5c"/>
    <path id="Trazado_4442" data-name="Trazado 4442" d="M44.266,120.765q-5.857,0-11.712,0a4.531,4.531,0,0,1-1.169-.1,1.118,1.118,0,0,1-.835-1.158,1.166,1.166,0,0,1,.7-1.138,2.956,2.956,0,0,1,1.392-.179q11.772,0,23.544,0a6.669,6.669,0,0,1,.709.011c.8.086,1.377.45,1.345,1.333s-.607,1.228-1.428,1.23q-3.313.009-6.625.005H44.266" transform="translate(-14.228 -55.042)" fill="#003b5c"/>
    <path id="Trazado_4443" data-name="Trazado 4443" d="M49.1,129.428c2.249,0,4.5.007,6.747,0,.93,0,1.735.237,1.721,1.314s-.85,1.269-1.764,1.267q-6.748-.014-13.495,0c-.932,0-1.737-.24-1.722-1.313s.846-1.276,1.766-1.27c2.249.014,4.5,0,6.747,0" transform="translate(-18.902 -60.278)" fill="#003b5c"/>
    <path id="Trazado_4444" data-name="Trazado 4444" d="M47.124,12.441a4.993,4.993,0,1,1,4.952,5.111,4.978,4.978,0,0,1-4.952-5.111m2.591.085a2.4,2.4,0,1,0,4.8.029,2.4,2.4,0,0,0-4.8-.029" transform="translate(-21.948 -3.514)" fill="#003b5c"/>
  </g>
</svg>
