<svg xmlns="http://www.w3.org/2000/svg" xmlns:xlink="http://www.w3.org/1999/xlink" width="85.279" height="85" viewBox="0 0 85.279 85">
  <defs>
    <clipPath id="clip-path">
      <rect id="Rectángulo_4103" data-name="Rectángulo 4103" width="85.279" height="85" fill="#003b5c"/>
    </clipPath>
  </defs>
  <g id="Grupo_9046" data-name="Grupo 9046" clip-path="url(#clip-path)">
    <path id="Trazado_4426" data-name="Trazado 4426" d="M42.6,15.845c-12.847,0-25.694.015-38.541-.026-1.1,0-1.366.312-1.364,1.377q.046,27.049.023,54.1c0,2.47.924,3.376,3.433,3.376l55.631,0a13.993,13.993,0,0,1,1.413.036,1.161,1.161,0,0,1,1.116,1.275,1.217,1.217,0,0,1-1.072,1.333,5.676,5.676,0,0,1-1.058.037q-28.11,0-56.221,0C2.232,77.353,0,75.143,0,71.429Q0,38.664,0,5.9C0,2.215,2.192,0,5.852,0Q42.625,0,79.4,0c3.666,0,5.875,2.207,5.876,5.867q.009,30.527,0,61.053a3.878,3.878,0,0,1-.053.938,1.256,1.256,0,0,1-1.35,1.066,1.189,1.189,0,0,1-1.27-1.133,10.32,10.32,0,0,1-.039-1.295q0-24.574,0-49.148c0-1.505,0-1.507-1.539-1.507H42.6m-.081-2.574q19.376,0,38.753.023c1.019,0,1.361-.227,1.318-1.29-.088-2.117-.011-4.24-.032-6.36a2.72,2.72,0,0,0-2.988-3q-36.927-.009-73.854,0A2.719,2.719,0,0,0,2.722,5.637C2.7,7.757,2.776,9.88,2.691,12c-.042,1.051.28,1.3,1.31,1.3q19.259-.055,38.517-.024" transform="translate(0)" fill="#003b5c"/>
    <path id="Trazado_4427" data-name="Trazado 4427" d="M55.952,57.486a21.655,21.655,0,0,1,41.192-9.659,20.153,20.153,0,0,1,1.832,5.941c.127.876-.11,1.523-1.012,1.681-.853.15-1.295-.376-1.461-1.18a19.113,19.113,0,0,0-5.161-10.134c-5.563-5.447-12.186-7.259-19.6-4.888-7.193,2.3-11.485,7.487-12.887,14.882a18.933,18.933,0,0,0,16.032,22.1c10.2,1.392,19.277-5.191,21.392-15.512.023-.115.031-.234.051-.35.143-.852.607-1.422,1.507-1.288.915.137,1.166.843,1.036,1.686a21.141,21.141,0,0,1-2.559,7.291,20.646,20.646,0,0,1-4.366,5.368c-.476.416-.537.693-.161,1.234,1.6,2.3,1.58,2.313,3.856.716.611-.429,1.212-.872,1.844-1.268a3.852,3.852,0,0,1,4.749.632,3.486,3.486,0,0,1,.09,4.549c-.666.787-.533,1.259-.006,1.989,2.413,3.343,4.84,6.679,7.136,10.1a6.152,6.152,0,0,1-4.666,9.691,5.99,5.99,0,0,1-5.626-2.8c-2.36-3.381-4.741-6.746-7.1-10.127-.363-.52-.6-.8-1.371-.441a3.552,3.552,0,0,1-4.5-1.5,3.64,3.64,0,0,1,.869-4.766c1.179-.913,2.406-1.765,3.637-2.608.45-.308.594-.594.221-1.036a.806.806,0,0,1-.064-.1c-1.33-2.154-1.33-2.154-3.595-1.064-12.941,6.229-28.272-1.251-30.894-15.077a19.1,19.1,0,0,1-.41-4.07m52.016,37.45a3.114,3.114,0,0,0-.522-1.779q-3.816-5.441-7.628-10.886c-.27-.387-.513-.523-.949-.2q-2.27,1.678-4.577,3.3c-.452.32-.493.6-.167,1.058,2.543,3.582,5.043,7.192,7.6,10.761a3.362,3.362,0,0,0,3.8,1.14,3.564,3.564,0,0,0,2.437-3.4M100.53,77.13a1.009,1.009,0,0,0-.5-.874c-.527-.342-.958-.09-1.394.22q-4.788,3.4-9.584,6.8c-.507.359-1,.754-.521,1.432.5.7,1.132.572,1.744.138q4.839-3.434,9.673-6.876a1.163,1.163,0,0,0,.585-.836" transform="translate(-25.386 -16.093)" fill="#003b5c"/>
    <path id="Trazado_4428" data-name="Trazado 4428" d="M97.685,62.79A15.291,15.291,0,1,1,82.344,47.5,15.274,15.274,0,0,1,97.685,62.79m-10.8,1.6c0-.055,0-.109,0-.164-1.254,0-2.508.024-3.761-.011a1.306,1.306,0,0,0-1.2.536q-3.086,3.935-6.225,7.827c-.413.511-.294.736.218,1.068,6.894,4.472,16.976.255,18.67-7.8.182-.865-.046-1.086-.882-1.112-2.273-.074-4.544-.225-6.816-.344m-6.437-4.046c-.193-3.226-.387-6.085-.522-8.947-.036-.765-.254-.921-.994-.718-8.46,2.315-11.9,13.281-6.278,20,.447.535.665.56,1.1,0,1.726-2.188,3.449-4.38,5.264-6.492,1.072-1.248,1.919-2.481,1.427-3.851m11.044,1.588v.017c.9.055,1.8.083,2.7.176.719.075.86-.21.781-.873A12.871,12.871,0,0,0,83.6,50.23c-.887-.08-1.074.184-1.012,1.013.231,3.091.434,6.186.58,9.283.037.771.31.992,1.034,1.021,2.431.1,4.86.251,7.291.383" transform="translate(-30.45 -21.554)" fill="#003b5c"/>
    <path id="Trazado_4429" data-name="Trazado 4429" d="M22.526,73.343c2.784,0,5.569-.007,8.353,0,1.366,0,1.761.389,1.769,1.739q.022,3.882,0,7.765c-.008,1.389-.435,1.812-1.851,1.815q-8.352.015-16.705,0c-1.46,0-1.783-.334-1.791-1.823q-.022-3.882,0-7.764c.01-1.413.336-1.726,1.752-1.731,2.823-.01,5.647,0,8.47,0M22.4,76.015c-2.158,0-4.317.029-6.474-.016-.777-.016-1.023.233-.991,1.006.058,1.371.048,2.747,0,4.119-.022.686.243.866.889.864q6.651-.03,13.3,0c.653,0,.906-.217.888-.888-.038-1.373-.053-2.749,0-4.119.034-.807-.289-.991-1.03-.978-2.2.039-4.394.014-6.592.014" transform="translate(-5.577 -33.279)" fill="#003b5c"/>
    <path id="Trazado_4430" data-name="Trazado 4430" d="M18.825,105.5c1.216,0,2.433-.023,3.649.005a2.646,2.646,0,0,1,2.835,2.785q.054,3.766,0,7.533a2.546,2.546,0,0,1-2.542,2.7c-2.626.085-5.258.08-7.884.008a2.494,2.494,0,0,1-2.569-2.656c-.046-2.589-.049-5.179.005-7.767a2.557,2.557,0,0,1,2.624-2.607c.079,0,.157,0,.235,0h3.649m-3.875,6.3c0,1.238.015,2.26-.007,3.281-.01.508.094.808.7.8,2.081-.022,4.163-.019,6.244,0,.559,0,.761-.222.758-.768-.015-2.042-.023-4.084,0-6.126.008-.636-.255-.81-.844-.79-1.02.033-2.042,0-3.063.011-1.21.017-2.821-.4-3.526.209-.814.707-.148,2.362-.265,3.382" transform="translate(-5.57 -47.867)" fill="#003b5c"/>
    <path id="Trazado_4431" data-name="Trazado 4431" d="M24.165,40.928q-5.068,0-10.136,0a1.644,1.644,0,0,1-1.481-.543,1.33,1.33,0,0,1,1.041-2.135c1.1-.069,2.2-.029,3.3-.029q8.309,0,16.618,0c.353,0,.707,0,1.06.011.828.031,1.354.418,1.367,1.288a1.262,1.262,0,0,1-1.4,1.394c-1.61.028-3.221.01-4.832.01H24.165" transform="translate(-5.569 -17.34)" fill="#003b5c"/>
    <path id="Trazado_4432" data-name="Trazado 4432" d="M50.69,117.658q-4,0-8,0c-.943,0-1.764-.163-1.812-1.341-.038-.93.514-1.37,1.77-1.372q8.18-.015,16.359,0c1.222,0,1.8.481,1.759,1.4-.051,1.1-.805,1.312-1.717,1.31q-4.178,0-8.356,0" transform="translate(-18.547 -52.156)" fill="#003b5c"/>
    <path id="Trazado_4433" data-name="Trazado 4433" d="M21.45,58.975c-2.471,0-4.942,0-7.413,0-.793,0-1.511-.15-1.674-1.107-.174-1.023.373-1.59,1.619-1.6,2.981-.02,5.962-.007,8.943-.008,1.922,0,3.844,0,5.766,0,1.366,0,1.939.4,1.956,1.318.017.946-.615,1.392-2.018,1.4-2.393.007-4.786,0-7.178,0" transform="translate(-5.595 -25.527)" fill="#003b5c"/>
    <path id="Trazado_4434" data-name="Trazado 4434" d="M30.93,12.009c.7,0,1.405-.015,2.108,0a1.164,1.164,0,0,1,1.255,1.245,1.134,1.134,0,0,1-1.06,1.315c-1.6.073-3.2.073-4.793-.01a1.128,1.128,0,0,1-1.027-1.338,1.135,1.135,0,0,1,1.175-1.2c.779-.03,1.561-.007,2.342-.007v-.009" transform="translate(-12.438 -5.447)" fill="#003b5c"/>
    <path id="Trazado_4435" data-name="Trazado 4435" d="M13.384,12.011c.7,0,1.41-.015,2.114,0a1.15,1.15,0,0,1,1.243,1.141,1.159,1.159,0,0,1-1.071,1.423,41.9,41.9,0,0,1-4.693-.005,1.168,1.168,0,0,1-1.084-1.42,1.174,1.174,0,0,1,1.259-1.138c.743-.023,1.488-.005,2.232-.005" transform="translate(-4.485 -5.447)" fill="#003b5c"/>
    <path id="Trazado_4436" data-name="Trazado 4436" d="M48.161,14.629c-.666,0-1.335.034-2-.007-.852-.052-1.411-.457-1.394-1.4.016-.907.575-1.225,1.389-1.228,1.372-.005,2.744-.007,4.116,0a1.2,1.2,0,0,1,1.346,1.293,1.248,1.248,0,0,1-1.342,1.326c-.7.039-1.411.008-2.117.009" transform="translate(-20.314 -5.442)" fill="#003b5c"/>
  </g>
</svg>
