<svg xmlns="http://www.w3.org/2000/svg" xmlns:xlink="http://www.w3.org/1999/xlink" width="390" height="389" viewBox="0 0 390 389">
  <defs>
    <clipPath id="clip-path">
      <rect id="Acquisitions1" data-name="Acquisitions1" width="261.995" height="161.924" fill="none"/>
    </clipPath>
  </defs>
  <g id="Acquisitions2" data-name="Acquisitions2" fill="none" stroke="#fff" stroke-width="20">
    <ellipse cx="195" cy="194.5" rx="195" ry="194.5" stroke="none"/>
    <ellipse cx="195" cy="194.5" rx="185" ry="184.5" fill="none"/>
  </g>
  <g id="Acquisitions3" data-name="Acquisitions3" transform="translate(62.669 130.076)" clip-path="url(#clip-path)">
    <path id="Acquisitions4" data-name="Acquisitions4" d="M45.95,0a15.325,15.325,0,0,1,5.638,1.292C55.4,3.056,59.272,4.7,63.072,6.5a14.984,14.984,0,0,1,8.533,17.451c-.473,2.1-.143,2.614,2.071,2.753,3.326.209,5.926-1.421,8.672-2.683,8.051-3.7,16.081-7.442,24.053-11.309,8.236-3.994,16.7-3.805,25.283-1.642a8.72,8.72,0,0,0,5.162-.224c8.2-2.61,16.122-1.254,23.828,2.289a74.37,74.37,0,0,1,15.816,9.986c3.865,3.139,8.382,3.819,13.059,4.261,1.58.149,1.6-.5,1.338-1.808-2.093-10.446.563-15.561,10.3-20.027,2.89-1.326,5.777-2.661,8.695-3.929,8.294-3.6,16.749-.518,20.555,7.674q13.5,29.049,26.814,58.183c1.6,3.5,3.59,6.832,4.393,10.682a15.016,15.016,0,0,1-7.675,16.667c-3.934,2.032-7.929,3.965-11.995,5.717-7.494,3.229-14.2,1.361-18.848-5.344-1.194-1.721-1.919-1.981-3.643-.773-3.346,2.349-6.83,4.509-10.331,6.627-1.683,1.019-2.006,1.894-.982,3.772,4.943,9.073,1.47,17.9-8.382,21.161-2.083.69-2.626,1.46-2.775,3.642-.609,8.879-8.066,14.572-16.808,13.024a2.182,2.182,0,0,0-2.858,1.444c-2.952,5.991-7.943,8.581-14.507,7.894-2.036-.213-2.934.324-3.853,2.157a13.87,13.87,0,0,1-23.513,2.307c-.355-.445-.706-.893-1.022-1.365-3.985-5.957-3.98-5.953-10.159-2.574-2.293,1.253-4.623,2.44-6.9,3.717-5.539,3.1-10.2,2.579-14.952-1.739A21.187,21.187,0,0,1,96.3,144.048c-.446-1.657-1.02-2.411-2.91-2.52-6.6-.379-10.625-4.178-12.427-10.334-.542-1.85-1.26-2.406-3.205-2.475-7.793-.281-12.542-4.548-13.627-12.126-.217-1.511-.54-2.068-2.191-2.167-9.33-.557-13.8-6.488-11.386-15.406.655-2.42.153-3.475-1.891-4.488-2.234-1.108-4.323-3.433-6.505-3.47-2.32-.039-2.457,3.554-3.95,5.323-4.265,5.059-10.691,7.1-16.858,4.6A136.1,136.1,0,0,1,7.178,94.317C.619,90.73-1.874,81.943,1.5,74.565Q16.464,41.876,31.632,9.28C34.417,3.3,39.319.208,45.95,0M146.735,17.355c2.165,1.331,3.487,2.15,4.815,2.958,4.975,3.03,10.122,6.07,13.22,11.09A164.582,164.582,0,0,1,174.436,49.8c2.268,4.992,2.823,10.4-.035,15.469-4.622,8.2-16.469,8.69-22.972,1.122-4.3-5.009-8.8-9.859-14.2-13.724-5.037-3.6-10.381-3.4-15.322.24Q102,67.586,82.045,82.2c-7.331,5.391-14.639,10.811-21.98,16.186-2.313,1.694-2.524,4.1-1.833,6.433.71,2.4,3.076,1.882,4.955,1.861a7.331,7.331,0,0,0,4.937-1.929c5.655-4.939,11.4-9.771,17.143-14.613,2.572-2.17,5.434-2.34,6.906-.257,1.891,2.674.4,4.669-1.7,6.408-5.516,4.575-10.94,9.268-16.583,13.681-2.621,2.049-2.47,4.322-1.632,6.971s2.747,3.692,5.424,3.772a10.129,10.129,0,0,0,7.5-2.559c3.982-3.565,8.153-6.92,12.215-10.4,1.378-1.179,2.838-1.924,4.673-1.324,3.308,1.081,3.741,4.719.677,7.281-4.01,3.357-8.217,6.478-12.3,9.745-.863.689-2.322,1.253-2.178,2.448.326,2.7.767,5.619,3.406,7.117A6.254,6.254,0,0,0,99,132.277c2.223-1.772,4.39-3.619,6.514-5.509,2.066-1.836,4.2-2.4,6.324-.3,1.68,1.662,1.067,4.642-1.234,6.542-1.929,1.593-3.893,3.152-5.912,4.628a2.767,2.767,0,0,0-1.225,3.48,17.2,17.2,0,0,0,4.125,7.346c1.7,1.693,3.554,2.23,5.845.972,3.686-2.023,7.418-3.97,11.208-5.788,1.671-.8,1.872-1.6.9-3.105-2.039-3.148-4.051-6.32-5.9-9.581a13.706,13.706,0,0,1,.345-14.89,12.9,12.9,0,0,1,13.4-6.271c1.841.257,2.152-.362,2.729-1.876a13.464,13.464,0,0,1,11.771-9.043c1.87-.206,2.574-.592,3.133-2.532,2.745-9.527,11.8-13.45,20.439-8.886,1.88.992,2.447.23,3.464-1.029,6.351-7.868,17.291-7.239,22.771,1.261,1.355,2.1,2.754,4.19,3.913,6.4.888,1.7,1.68,1.57,3.114.634,3.9-2.546,7.865-5.011,11.906-7.329,1.719-.985,1.734-1.967.991-3.565q-10.554-22.718-21-45.486c-.714-1.554-1.439-2.538-3.46-2.528a37.006,37.006,0,0,1-26.082-9.9c-5.327-4.825-11.984-7.681-20.34-8.565m21.834,40.069a6.111,6.111,0,0,0-.368-1.894c-5.212-12.158-10.137-24.523-23.729-30.133-2.929-1.209-5.583-3.068-8.467-4.4-7.96-3.685-16.131-5.753-24.636-1.874-6.408,2.923-12.662,6.183-19.068,9.11-7.463,3.408-14.517,8.346-23.445,6.722-1.524-.277-2.157.748-2.729,1.995Q55.966,59.1,45.692,81.2c-.777,1.664-.408,2.35,1.083,3.144A88.978,88.978,0,0,1,54.7,89.03c1.8,1.216,3.068,1.044,4.82-.253,20.3-15.019,40.6-30.044,61.3-44.517.921-.645,1.735-1.487,2.966-1.573,7.428-.522,14.539-.006,20.47,5.363a121.306,121.306,0,0,1,9.1,8.739,72.794,72.794,0,0,0,5.438,5.651,6.059,6.059,0,0,0,6.72.972c2.209-.937,3.2-2.795,3.062-5.987M64.41,20.909c-.113-3.071-1.294-5.389-4.033-6.721-3.267-1.59-6.564-3.113-9.831-4.7-6.189-3.01-9.626-1.743-12.492,4.559C34.9,20.968,31.7,27.866,28.521,34.777,21.926,49.112,15.285,63.426,8.762,77.8c-2.156,4.751-.635,8.386,4.048,10.593,3.184,1.5,6.35,3.035,9.533,4.539,5.135,2.425,9.043,1.138,11.586-3.946,1.563-3.126,2.93-6.349,4.4-9.525Q50.88,52.265,63.453,25.08a11.415,11.415,0,0,0,.957-4.172m133.229.15c.107,3.564,2.447,6.368,3.818,9.571,8.441,19.712,17.84,38.985,26.738,58.487,2.233,4.894,6.455,6.206,11.354,3.91q5.087-2.383,10.148-4.824a7.341,7.341,0,0,0,3.987-9.623c-.507-1.382-1.186-2.7-1.8-4.043q-7.77-16.852-15.547-33.7c-4.224-9.176-8.395-18.377-12.654-27.537-2.528-5.438-6.277-6.676-11.673-4.047q-5.05,2.46-10.138,4.844c-2.9,1.366-4.121,3.745-4.229,6.965M164.962,93.283a6.5,6.5,0,0,0-5.266,10.207q8.682,13.863,17.406,27.7c2.42,3.858,5.553,5.026,8.745,3.2,3.371-1.929,4.336-5.75,2.03-9.488-5.906-9.577-11.972-19.057-17.963-28.581a6.155,6.155,0,0,0-4.952-3.039m5.747,44.346c.146-1.491-.836-2.941-1.729-4.372-4.933-7.907-9.915-15.781-14.874-23.671a5.191,5.191,0,0,0-3.451-2.55,6.075,6.075,0,0,0-6.6,2.417c-1.673,2.219-1.581,4.35-.191,6.623,5.217,8.528,10.373,17.094,15.634,25.593a5.344,5.344,0,0,0,6.77,2.453c2.854-.991,4.482-3,4.446-6.494m-45.141-14.062a5.685,5.685,0,0,0,.837,3.411c4.933,8.008,9.806,16.053,14.872,23.976,2.069,3.236,5.452,4.017,8.262,2.381,2.671-1.554,4.137-5.828,2.422-8.707q-7.57-12.7-15.631-25.1c-1.368-2.107-3.759-2.782-6.353-1.766s-4.679,2.393-4.409,5.81M196,118.522c5.1.029,8.209-4.9,5.895-8.9-3.578-6.173-7.37-12.228-11.237-18.228-1.995-3.1-5.317-3.611-8.293-1.649a6.06,6.06,0,0,0-1.958,8.332c3.617,5.89,7.349,11.71,11.05,17.549A6,6,0,0,0,196,118.522" transform="translate(0 0)" fill="#fff"/>
  </g>
</svg>
