<svg xmlns="http://www.w3.org/2000/svg" xmlns:xlink="http://www.w3.org/1999/xlink" width="84.955" height="85" viewBox="0 0 84.955 85">
  <defs>
    <clipPath id="clip-path">
      <rect id="Rectángulo_4111" data-name="Rectángulo 4111" width="84.955" height="85" fill="#003b5c"/>
    </clipPath>
  </defs>
  <g id="Grupo_9056" data-name="Grupo 9056" clip-path="url(#clip-path)">
    <path id="Trazado_4467" data-name="Trazado 4467" d="M27.394,107.658C12.819,107.647,1.967,98.329.118,85.73c-.109-.738-.047-1.412.842-1.52.839-.1,1,.522,1.116,1.211,1.67,9.716,7.265,16.223,16.574,19.156C27.3,107.3,35.2,105.32,41.994,99.3c1.974-1.749,3.748-3.724,5.649-5.558.5-.486.481-.775-.006-1.246-1.5-1.446-2.953-2.941-4.429-4.411-.51-.507-.961-1.081-.331-1.722s1.211-.209,1.722.3c1.443,1.452,2.911,2.879,4.329,4.354.511.531.841.631,1.412.032,1.643-1.723,3.365-3.372,5.039-5.066,1.036-1.048,1.023-1.461-.017-2.5Q52.285,80.4,49.2,77.324c-1.062-1.054-1.674-1.054-2.735,0-4.138,4.124-8.247,8.278-12.406,12.38A11.524,11.524,0,0,1,17.434,73.746c1.6-1.764,3.317-3.418,5.031-5.072.587-.567.641-.9,0-1.479-1.537-1.406-2.987-2.906-4.488-4.352-.542-.522-.9-1.1-.268-1.713.58-.557,1.141-.217,1.643.281,1.5,1.494,3.048,2.951,4.535,4.462.491.5.8.59,1.339.035,1.7-1.769,3.469-3.477,5.193-5.227.861-.874.864-1.4,0-2.281q-3.178-3.217-6.395-6.395a1.487,1.487,0,0,0-2.49.008C17.26,56.32,12.982,60.62,8.746,64.961A24.538,24.538,0,0,0,4.088,72c-.195.425-.42.795-.953.817a.966.966,0,0,1-.924-.505c-.256-.418-.066-.786.1-1.161a26.656,26.656,0,0,1,5.19-7.75q6.289-6.421,12.626-12.794a3.447,3.447,0,0,1,5.3.018q3.093,3.064,6.159,6.155c1.915,1.923,1.931,3.578.033,5.482C27.609,66.294,23.572,70.3,19.56,74.34c-3.11,3.128-4.127,7.493-2.615,11.055a9.611,9.611,0,0,0,15.7,2.929c4.117-4.039,8.164-8.149,12.243-12.228,2.033-2.033,3.844-2.039,5.867-.019q3.079,3.077,6.154,6.16c1.579,1.59,1.645,3.318.075,4.9-4.559,4.594-9.054,9.258-13.762,13.7a24.2,24.2,0,0,1-15.832,6.825" transform="translate(-0.036 -22.658)" fill="#003b5c"/>
    <path id="Trazado_4468" data-name="Trazado 4468" d="M138.966,10.637A10.635,10.635,0,1,1,128.341,0a10.559,10.559,0,0,1,10.624,10.637M128.4,1.96a8.665,8.665,0,0,0-.12,17.33,8.755,8.755,0,0,0,8.728-8.628,8.632,8.632,0,0,0-8.608-8.7" transform="translate(-54.011 0)" fill="#003b5c"/>
    <path id="Trazado_4469" data-name="Trazado 4469" d="M127.82,68.867a10.636,10.636,0,0,1-21.27.261,10.854,10.854,0,0,1,10.858-10.744A10.512,10.512,0,0,1,127.82,68.867m-10.37-8.505a8.87,8.87,0,0,0-8.922,8.7,8.667,8.667,0,0,0,17.332-.18,8.56,8.56,0,0,0-8.41-8.517" transform="translate(-48.896 -26.793)" fill="#003b5c"/>
    <path id="Trazado_4470" data-name="Trazado 4470" d="M80.3,21.034c.013,6.284-4.433,11.05-9.959,11.373a10.655,10.655,0,0,1-11.2-9.336,10.8,10.8,0,0,1-.064-1.337c0-.6.284-1.043.9-1.072a.968.968,0,0,1,1.055,1.048,9.349,9.349,0,0,0,.571,3.164,8.653,8.653,0,1,0,8.786-11.732c-.26-.022-.521-.031-.778-.07a.923.923,0,0,1-.9-.962.934.934,0,0,1,1.022-.952,9.1,9.1,0,0,1,4.226.868A10.268,10.268,0,0,1,80.3,21.034" transform="translate(-27.108 -5.118)" fill="#003b5c"/>
    <path id="Trazado_4471" data-name="Trazado 4471" d="M78.791,23.574a4.025,4.025,0,0,1-.81,2.5c-.359.463-.37.733.18,1.022a7.013,7.013,0,0,1,1.084.78A.987.987,0,1,1,78.021,29.4a5.686,5.686,0,0,0-3.562-1.39A5.375,5.375,0,0,0,70.94,29.2c-.56.442-1.177.848-1.746.144-.624-.773-.005-1.286.571-1.743a1.82,1.82,0,0,1,.275-.19c.766-.4,1.13-.728.463-1.7a4.1,4.1,0,0,1,.435-5.07,4.453,4.453,0,0,1,7.852,2.939m-4.481-2.527a2.5,2.5,0,0,0-2.474,2.474,2.541,2.541,0,0,0,2.579,2.492,2.48,2.48,0,0,0,2.4-2.542,2.438,2.438,0,0,0-2.5-2.424" transform="translate(-31.634 -8.748)" fill="#003b5c"/>
    <path id="Trazado_4472" data-name="Trazado 4472" d="M95.559,47.094c.348-.009.6.267.861.537q2.893,3.015,5.788,6.027c.482.5.821,1.024.2,1.629s-1.137.259-1.618-.243q-2.928-3.06-5.861-6.114a1.1,1.1,0,0,1-.345-1.3.931.931,0,0,1,.97-.534" transform="translate(-43.361 -21.612)" fill="#003b5c"/>
    <path id="Trazado_4473" data-name="Trazado 4473" d="M102.554,23.719c-.573-.07-.977-.221-1.085-.75A.847.847,0,0,1,102,21.876q2.626-.706,5.286-1.285a.832.832,0,0,1,.978.716.847.847,0,0,1-.53,1.094c-1.747.488-3.514.9-5.183,1.318" transform="translate(-46.551 -9.441)" fill="#003b5c"/>
    <path id="Trazado_4474" data-name="Trazado 4474" d="M128.747,47.7c.256-1.328.546-2.9.866-4.459.127-.62.516-1.046,1.182-.881.637.157.829.668.707,1.311-.293,1.531-.564,3.066-.854,4.6-.118.627-.47,1.041-1.151.931s-.851-.63-.749-1.5" transform="translate(-59.07 -19.421)" fill="#003b5c"/>
    <path id="Trazado_4475" data-name="Trazado 4475" d="M0,102.3c.223-1.314.438-2.629.673-3.941.12-.676.508-1.1,1.232-.947.755.163.8.747.692,1.4-.21,1.241-.417,2.483-.576,3.731-.085.67-.3,1.2-1.062,1.138-.818-.065-.979-.668-.959-1.38" transform="translate(0 -44.69)" fill="#003b5c"/>
    <path id="Trazado_4476" data-name="Trazado 4476" d="M67.144,14.9a.982.982,0,0,1-.6.87,7.258,7.258,0,0,0-2.63,2.511c-.364.562-.833.892-1.478.427-.618-.445-.515-.983-.137-1.554a8.645,8.645,0,0,1,3.39-3.14.953.953,0,0,1,1.454.886" transform="translate(-28.45 -6.373)" fill="#003b5c"/>
    <path id="Trazado_4477" data-name="Trazado 4477" d="M132.706,17.093a4.387,4.387,0,0,0-3.35,1.1c-.581.452-1.209.792-1.742.083s-.013-1.239.558-1.669a3.9,3.9,0,0,1,.547-.385c.591-.3.76-.567.314-1.248a4.392,4.392,0,0,1,.786-5.681,4.51,4.51,0,0,1,5.843-.1,4.32,4.32,0,0,1,.964,5.637c-.509.817-.306,1.142.391,1.493a1.081,1.081,0,0,1,.186.122c.581.461,1.383.923.785,1.787s-1.283.317-1.9-.15a4.369,4.369,0,0,0-3.382-.992m.087-2.087a2.352,2.352,0,0,0,2.506-2.385,2.543,2.543,0,0,0-2.5-2.492,2.48,2.48,0,0,0-2.483,2.484,2.294,2.294,0,0,0,2.473,2.393" transform="translate(-58.46 -3.75)" fill="#003b5c"/>
    <path id="Trazado_4478" data-name="Trazado 4478" d="M126.14,70.772a4.113,4.113,0,0,1-.846,2.606c-.439.563-.26.8.26,1.082a7.155,7.155,0,0,1,.991.72.96.96,0,0,1,.279,1.456c-.418.542-.953.477-1.475.091a8.341,8.341,0,0,0-1.007-.7,5.349,5.349,0,0,0-6.248.6c-.523.409-1.09.631-1.575.047-.521-.627-.206-1.175.369-1.608a3.646,3.646,0,0,1,.633-.453c.775-.354.874-.709.343-1.478a4.337,4.337,0,0,1,.317-5.106,4.469,4.469,0,0,1,5.041-1.375,4.534,4.534,0,0,1,2.918,4.118M121.7,73.316a2.491,2.491,0,0,0-.022-4.982,2.491,2.491,0,1,0,.022,4.982" transform="translate(-53.349 -30.461)" fill="#003b5c"/>
  </g>
</svg>
