<svg id="Grupo_8663" data-name="Grupo 8663" xmlns="http://www.w3.org/2000/svg" xmlns:xlink="http://www.w3.org/1999/xlink" width="104.478" height="120" viewBox="0 0 104.478 120">
  <defs>
    <clipPath id="clip-path">
      <rect id="Rectángulo_3898" data-name="Rectángulo 3898" width="104.478" height="120" fill="#3cd7f8" stroke="#fff" stroke-width="1"/>
    </clipPath>
  </defs>
  <g id="Grupo_8663-2" data-name="Grupo 8663" clip-path="url(#clip-path)">
    <path id="Trazado_3902" data-name="Trazado 3902" d="M104.452,39.123c-.331,28.834-12.27,51.9-34.776,69.709A156.3,156.3,0,0,1,53.557,119.58a2.268,2.268,0,0,1-2.56.048C38.58,112.42,27.259,103.9,18.312,92.508a83.5,83.5,0,0,1-17.6-42.2,87.969,87.969,0,0,1,2.6-35.354c1.3-4.5,2.989-8.88,4.583-13.286C8.531-.083,9.616-.418,11.28.5c3.207,1.764,6.4,3.547,9.572,5.377,9.2,5.31,18.416,5.449,27.413-.255,2.934-1.86,5.126-1.809,8.036.036,9.215,5.845,18.578,5.417,27.867-.06,2.955-1.742,5.959-3.4,8.962-5.061C94.9-.441,95.908-.1,96.63,1.745c4.7,12.01,8.188,24.277,7.822,37.377M4.108,34.217c.109,22,4.741,37.706,14.547,51.806,8.563,12.313,19.9,21.506,32.743,29a1.618,1.618,0,0,0,1.881-.127,120.047,120.047,0,0,0,18.408-13.132C87.865,87.435,97.538,69.649,99.868,48.1A85.946,85.946,0,0,0,93.8,6.079c-.309-.762-.543-.93-1.315-.471-2.358,1.4-4.769,2.715-7.164,4.054-10.1,5.644-20.262,5.937-30.311.026a4.764,4.764,0,0,0-5.626.058,28.168,28.168,0,0,1-27.1,1.491c-3.555-1.591-6.818-3.729-10.23-5.586-.632-.344-1-.593-1.362.34C6.524,16.636,3.991,27.6,4.108,34.217" transform="translate(0 0)" fill="#3cd7f8" stroke="#fff" stroke-width="1"/>
    <path id="Trazado_3903" data-name="Trazado 3903" d="M100.119,45.753C99.875,71.339,89.064,92.206,68.83,108.41a119.977,119.977,0,0,1-10.23,7.215,2.787,2.787,0,0,1-3.327.13C41.907,107.4,30.659,96.965,23,83c-7.38-13.46-10.2-27.9-9.23-43.168A76.621,76.621,0,0,1,16.659,22.8c.793-2.672,1.694-3.026,4.13-1.758,11.507,5.992,23.07,6.277,34.688.335a2.805,2.805,0,0,1,2.766.038c11.5,5.84,22.966,5.633,34.383-.255,2.747-1.417,3.539-1.138,4.442,1.882a83.22,83.22,0,0,1,3.051,22.712m-4.137-.265A82.65,82.65,0,0,0,94,27.66c-.516-2.188-.544-2.187-2.522-1.346a39.917,39.917,0,0,1-33.733-.5A1.827,1.827,0,0,0,56,25.758a39.619,39.619,0,0,1-34.182.355c-1.463-.648-1.8-.242-2.095,1.11a86.564,86.564,0,0,0-1.831,12.892,74.132,74.132,0,0,0,8.1,39.83c6.947,13.288,17.41,23.251,29.871,31.3a1.513,1.513,0,0,0,1.988-.04c2.23-1.6,4.555-3.072,6.74-4.729,20.23-15.349,31.135-35.5,31.392-60.987" transform="translate(-4.589 -6.867)" fill="#3cd7f8" stroke="#fff" stroke-width="1"/>
    <path id="Trazado_3904" data-name="Trazado 3904" d="M94.692,57.072a6.666,6.666,0,0,1-1.986,4.965q-13.681,13.721-27.4,27.4a6.924,6.924,0,0,1-9.89-.058q-4.555-4.415-8.973-8.97a7.036,7.036,0,0,1,9.9-10,31.989,31.989,0,0,1,2.776,2.8c.9,1.07,1.509,1.072,2.531.034,6.215-6.316,12.5-12.559,18.775-18.82A32.809,32.809,0,0,1,83.4,51.589a6.646,6.646,0,0,1,7.422-.72,6.744,6.744,0,0,1,3.872,6.2m-4.154,0a2.847,2.847,0,0,0-4.183-2.482,7.874,7.874,0,0,0-1.932,1.68Q73.5,67.18,62.59,78.106c-1.822,1.821-2.56,1.814-4.406-.02-1.541-1.531-3.042-3.106-4.625-4.593-1.434-1.346-3.059-1.322-4.257-.055a2.8,2.8,0,0,0,.172,4.143q4.314,4.42,8.735,8.733a2.844,2.844,0,0,0,4.41-.026Q76.109,72.85,89.551,59.363a2.978,2.978,0,0,0,.987-2.289" transform="translate(-14.973 -16.906)" fill="#3cd7f8" stroke="#fff" stroke-width="1"/>
  </g>
</svg>
