<svg id="Grupo_9953" data-name="Grupo 9953" xmlns="http://www.w3.org/2000/svg" xmlns:xlink="http://www.w3.org/1999/xlink" width="90.731" height="120" viewBox="0 0 90.731 120">
  <defs>
    <clipPath id="clip-path">
      <rect id="Rectángulo_4814" data-name="Rectángulo 4814" width="90.731" height="120" fill="#3cd7f8" stroke="#fff" stroke-width="1"/>
    </clipPath>
  </defs>
  <g id="Grupo_9952" data-name="Grupo 9952" clip-path="url(#clip-path)">
    <path id="Trazado_6318" data-name="Trazado 6318" d="M42.527,15.948c3.326.292,3.634.642,3.634,3.963,0,3.726,0,7.452,0,11.574l4.226-3.267c2.721-2.1,4.553-2.112,7.249-.036,1.323,1.019,2.64,2.045,4.3,3.333V21.9q0-1.125,0-2.249c0-3.1.191-3.306,3.874-4.158-.844-.7-1.745-1.335-2.523-2.1-2.764-2.711-5.516-5.437-8.205-8.222-.79-.819-1.281-.905-2.074-.018C51.8,6.5,50.465,7.73,49.181,9.007c-.855.85-1.827,1.189-2.792.28-1.011-.951-.6-1.905.247-2.757,1.9-1.9,3.791-3.8,5.7-5.694a2.158,2.158,0,0,1,3.431.025q7.484,7.481,14.964,14.966a2.11,2.11,0,0,1,.618,2.533,2.22,2.22,0,0,1-2.3,1.22c-3.486.086-3.485.106-3.485,3.588,0,3.185.053,6.372-.028,9.555a2.914,2.914,0,0,0,1.307,2.658c5.157,3.938,10.238,7.977,15.408,11.9A6.076,6.076,0,0,1,84.9,52.712c-.1,2.807-.033,5.62-.02,8.431.006,1.238-.226,2.359-1.739,2.348-1.45-.01-1.8-1.023-1.782-2.318.038-2.811-.026-5.622.029-8.432A2.817,2.817,0,0,0,80.185,50.2Q67.815,40.649,55.514,31a2.1,2.1,0,0,0-2.99.021Q40.14,40.715,27.707,50.342a2.38,2.38,0,0,0-1.02,2.061q.025,24.826-.017,49.653c0,1.255.495,1.421,1.544,1.4,2.434-.058,4.872.018,7.306-.033,1.332-.028,2.551.266,2.6,1.747.05,1.646-1.289,1.911-2.647,1.909-2.436-.005-4.873.049-7.307-.022-1.128-.032-1.442.317-1.5,1.468-.307,6.275,1.135,8.078,7.816,8,13.551-.165,27.106-.048,40.658-.05,4.622,0,6.231-1.585,6.235-6.129,0-3.264,0-3.265-3.241-3.265H46.654c-.437,0-.874,0-1.31,0-1.3-.014-2.537-.345-2.482-1.882.053-1.489,1.245-1.771,2.573-1.769,11.3.022,22.609-.024,33.913.053,1.646.011,2.081-.39,2.067-2.057-.085-9.992-.043-19.986-.042-29.978,0-.5-.016-1,.018-1.5a1.627,1.627,0,0,1,1.673-1.666,1.574,1.574,0,0,1,1.763,1.545,13.329,13.329,0,0,1,.049,1.5q0,19.674,0,39.348c0,6.166-3.15,9.27-9.361,9.271-14.427,0-28.856-.112-43.281.065a8.728,8.728,0,0,1-9.081-9.088c.182-19.36.1-38.722.027-58.084a6.466,6.466,0,0,1,2.853-5.688c5.134-3.866,10.148-7.889,15.248-11.8a2.757,2.757,0,0,0,1.273-2.474q-.1-5.806,0-11.616c.023-1.281-.337-1.732-1.672-1.722-1.521.013-3.486.717-4.243-1.357-.7-1.91,1.221-2.63,2.146-3.774a18.547,18.547,0,0,1,1.442-1.47c.784-.775,1.677-1.215,2.646-.406,1.029.859.845,1.839.039,2.783a5.561,5.561,0,0,0-.384.644" transform="translate(-3.813 0)" fill="#3cd7f8" stroke="#fff" stroke-width="1"/>
    <path id="Trazado_6319" data-name="Trazado 6319" d="M57.552,106.856c-.625,0-1.249.006-1.873,0-2.559-.029-3.04-.45-3.126-3.037a1.746,1.746,0,0,0-1.09-1.713,13.089,13.089,0,0,1-6.936-9.86c-.431-2.465.413-3.512,2.943-3.551.936-.015,1.873,0,2.809,0,3.177,0,3.152.012,4.409,2.943a2.882,2.882,0,0,0,3.482,1.848,2.759,2.759,0,0,0,2.368-2.922,2.983,2.983,0,0,0-2.718-3.041A20.3,20.3,0,0,1,53.6,86.8c-5.4-1.835-8.506-5.672-9.071-11.222-.543-5.343,1.727-9.612,6.352-12.427,1.137-.692,1.788-1.312,1.687-2.722-.114-1.6.864-2.412,2.416-2.452,1.747-.045,3.5-.068,5.242.014,1.443.068,2.41.817,2.2,2.391-.184,1.415.475,2.037,1.64,2.693A12.669,12.669,0,0,1,70.579,73.2c.242,2.043-.54,2.9-2.615,2.953-1.622.04-3.246.008-4.869.005a2.372,2.372,0,0,1-2.572-2.168,2.93,2.93,0,0,0-3.44-2.626,2.966,2.966,0,0,0-2.568,3.156c.094,1.675,1.3,2.71,3.3,2.868,5.416.433,9.509,2.926,11.7,7.98,2.093,4.827,1.284,9.374-1.927,13.509a8.642,8.642,0,0,1-2.472,2.265c-1.631.934-3.187,1.747-2.762,4.149.168.952-.874,1.444-1.812,1.508-.993.068-2,.015-2.993.015v.042m-9.34-14.368a9.119,9.119,0,0,0,5.312,6.652c1.521.672,2.772,1.308,2.6,3.33-.109,1.274,1.048.7,1.671.778.584.078,1.391.175,1.241-.837-.284-1.92.936-2.581,2.409-3.241a9.465,9.465,0,0,0-3.266-18.1,12.179,12.179,0,0,1-2.395-.38,6.71,6.71,0,0,1-4.878-6.545,6.557,6.557,0,0,1,5.616-6.281c2.952-.5,5.432.745,7,3.781.771,1.488,2.043,1.012,2.887.742s.069-1.24-.184-1.848a8.656,8.656,0,0,0-4.887-4.889c-1.49-.594-2.517-1.314-2.3-3.1.139-1.154-.756-.92-1.382-.891-.65.029-1.683-.383-1.564.913.165,1.793-.906,2.469-2.362,3.081a9.249,9.249,0,0,0-5.706,8.868A9.348,9.348,0,0,0,54,83.229a17.26,17.26,0,0,0,4.4.821,6.741,6.741,0,0,1,5.79,6.165,6.831,6.831,0,0,1-4.4,6.545,6.3,6.3,0,0,1-7.773-2.726c-.905-1.727-2.026-1.889-3.8-1.545" transform="translate(-7.316 -9.542)" fill="#3cd7f8" stroke="#fff" stroke-width="1"/>
    <path id="Trazado_6320" data-name="Trazado 6320" d="M11.425,57.962a1.861,1.861,0,0,1-1.983-1.346,14.254,14.254,0,0,0-8.117-8.091,2.072,2.072,0,0,1,.028-3.877,14.394,14.394,0,0,0,8.092-8.114,2.076,2.076,0,0,1,2.016-1.418,2.181,2.181,0,0,1,1.967,1.5,14.657,14.657,0,0,0,7.959,8c2.072.946,2.087,2.987.018,3.91a14.9,14.9,0,0,0-8.067,8.156,1.851,1.851,0,0,1-1.915,1.271m0-17.414a17.68,17.68,0,0,1-5.992,6.01A17.809,17.809,0,0,1,11.427,52.7a18.352,18.352,0,0,1,5.949-6.17,16.932,16.932,0,0,1-5.952-5.978" transform="translate(0 -5.783)" fill="#3cd7f8" stroke="#fff" stroke-width="1"/>
    <path id="Trazado_6321" data-name="Trazado 6321" d="M21.581,31.238a1.94,1.94,0,0,1-1.968-1.373,11.366,11.366,0,0,0-6.4-6.435,2.077,2.077,0,0,1-1.472-1.96A2.1,2.1,0,0,1,13.218,19.5a11.555,11.555,0,0,0,6.4-6.442,2.054,2.054,0,0,1,3.934.058,12.21,12.21,0,0,0,6.426,6.444c1.968.941,2.007,2.877.048,3.782a12.326,12.326,0,0,0-6.539,6.574,1.947,1.947,0,0,1-1.91,1.316m4.436-9.8c-1.821-1.139-2.843-3.375-4.248-3.751s-2.315,2.415-3.908,3.3a3.794,3.794,0,0,0-.584.536,17.171,17.171,0,0,1,4.3,4.329,17.772,17.772,0,0,1,4.442-4.416" transform="translate(-1.934 -1.915)" fill="#3cd7f8" stroke="#fff" stroke-width="1"/>
    <path id="Trazado_6322" data-name="Trazado 6322" d="M104.759,29.258a1.92,1.92,0,0,1-1.428,1.912,11.657,11.657,0,0,0-6.42,6.438,2.092,2.092,0,0,1-1.981,1.463,2.175,2.175,0,0,1-1.945-1.534,11.562,11.562,0,0,0-6.445-6.407A1.98,1.98,0,0,1,85.206,29.1a1.923,1.923,0,0,1,1.34-1.838,11.422,11.422,0,0,0,6.442-6.4,2.141,2.141,0,0,1,1.94-1.519A2.208,2.208,0,0,1,97,20.957a11.318,11.318,0,0,0,6.149,6.2c.9.388,1.647.909,1.61,2.1M99.324,29.2a17.079,17.079,0,0,1-3.793-3.649c-.351-.491-.623-.777-1.069-.088a20.738,20.738,0,0,1-3.812,3.806,20.37,20.37,0,0,1,4.359,4.258A18.354,18.354,0,0,1,99.324,29.2" transform="translate(-14.033 -3.186)" fill="#3cd7f8" stroke="#fff" stroke-width="1"/>
    <path id="Trazado_6323" data-name="Trazado 6323" d="M64.053,47.611A4.86,4.86,0,0,1,59.1,52.564a4.975,4.975,0,0,1,.065-9.949,4.814,4.814,0,0,1,4.884,5M59.146,46.1c-.779.153-1.4.523-1.423,1.41a1.322,1.322,0,0,0,1.311,1.48,1.357,1.357,0,0,0,1.552-1.438c.011-.814-.606-1.294-1.439-1.452" transform="translate(-8.92 -7.018)" fill="#3cd7f8" stroke="#fff" stroke-width="1"/>
  </g>
</svg>
