<svg xmlns="http://www.w3.org/2000/svg" xmlns:xlink="http://www.w3.org/1999/xlink" width="121.124" height="120" viewBox="0 0 121.124 120">
  <defs>
    <clipPath id="clip-path">
      <rect id="Rectángulo_3899" data-name="Rectángulo 3899" width="121.124" height="120" fill="#3cd7f8"/>
    </clipPath>
  </defs>
  <g id="Grupo_8664" data-name="Grupo 8664" clip-path="url(#clip-path)">
    <path id="Trazado_3905" data-name="Trazado 3905" d="M47.04,13.119Q53.445,6.777,59.847.435c.361-.358.654-.687,1.178-.159,4.3,4.33,8.611,8.641,13.226,13.264-2.8,0-5.236.065-7.666-.027-1.213-.046-1.482.345-1.551,1.531-.13,2.234.193,4.193,1.887,5.815.375.359.574.668,1.165.534,4.817-1.091,9.1.342,13.174,2.8q2.269,1.372,4.619,2.607a9.041,9.041,0,0,0,6.12.61c.815-.158,1.142-.434,1.129-1.36A5.376,5.376,0,0,1,98,20.293c2.784-.3,5.057,1.511,5.771,4.647.116.511.233.929.817,1.037a15.244,15.244,0,0,0,6.852.129,2.931,2.931,0,0,0,2.472-3.274c-.149-1.55,1.078-1.339,1.784-1.458.9-.151.6.81.63,1.289a5.378,5.378,0,0,1-4.477,5.946,19.035,19.035,0,0,1-7.508-.138,2.072,2.072,0,0,0-2.3,2.84q6.17,15.976,12.319,31.958c.427,1.116.981,1.681,2.216,1.494a11.927,11.927,0,0,1,1.769-.015c2.885,0,2.885,0,2.709,2.842-.676,10.923-9.828,20.16-20.46,20.972A22.683,22.683,0,0,1,76.3,70.33a40.907,40.907,0,0,1-.47-4.475c-.051-.827.271-1.152,1.118-1.119,1.34.052,2.685-.025,4.024.027a1.248,1.248,0,0,0,1.406-.959Q88.637,47.52,94.941,31.252c.169-.438.633-.89.1-1.466s-1.064-.369-1.618-.185c-3.858,1.281-7.373.447-10.751-1.61-2.967-1.807-5.853-3.838-9.434-4.308a13.357,13.357,0,0,0-2.245-.126,7.361,7.361,0,0,0-2.536.33c-.978.416-.381,1.527-.609,2.306a6.183,6.183,0,0,1-1.586,3.11c-1.142.98-1.2,2.135-1.19,3.454q.044,11.109,0,22.22A2.086,2.086,0,0,0,66.006,57a9.539,9.539,0,0,1,4.17,8.42c-.005,11.54.014,23.079-.026,34.618a2.669,2.669,0,0,0,1.336,2.612,17.919,17.919,0,0,1,7.077,8.731c.364.938.8,1.369,1.85,1.295a34.5,34.5,0,0,1,3.862-.005,3.624,3.624,0,0,1,.633,7.187,8.294,8.294,0,0,1-1.757.134Q60.528,120,37.906,120c-1.577,0-3.008-.253-3.955-1.664a3.619,3.619,0,0,1,2.823-5.664,39.875,39.875,0,0,1,4.184-.005,1.36,1.36,0,0,0,1.519-1.062,18.338,18.338,0,0,1,7.489-9.191,2.128,2.128,0,0,0,1-2.135c-.018-11.325.036-22.65-.038-33.974-.026-3.977,1.064-7.3,4.511-9.552a1.387,1.387,0,0,0,.615-1.362q-.011-11.914.006-23.829a1.941,1.941,0,0,0-.652-1.544,6.7,6.7,0,0,1-2.273-5.141c.023-.863-.383-1.048-1.128-1.172A14.755,14.755,0,0,0,41.72,26.026a35.73,35.73,0,0,1-6.647,3.567,11.359,11.359,0,0,1-7.267.037c-.527-.164-1.064-.465-1.642.084-.644.613-.126,1.12.057,1.6q6.263,16.284,12.56,32.554a1.156,1.156,0,0,0,1.287.895c1.34-.045,2.685.032,4.024-.026.9-.039,1.228.266,1.22,1.187A22.658,22.658,0,0,1,0,66.4c-.016-1.375.4-1.7,1.715-1.682,4.513.051,4.473-.013,6.088-4.218Q13.368,46.015,19,31.556c.26-.673.728-1.294-.055-2.028-.7-.657-1.134-1.342-2.383-1.067a16.15,16.15,0,0,1-7.182.17,5.468,5.468,0,0,1-4.562-6.348c.049-.41-.1-1.2.668-.923.61.219,1.593-.065,1.745,1.042.435,3.148,1.27,3.9,4.411,4.007a24.8,24.8,0,0,0,2.573-.062c1.67-.119,3.087-.228,3.469-2.546.389-2.357,3.282-3.852,5.658-3.481A5.267,5.267,0,0,1,28,25.624c-.065,1.4.5,1.718,1.666,1.9a10.739,10.739,0,0,0,7.113-1.434c1.633-.924,3.235-1.9,4.865-2.834A15.431,15.431,0,0,1,52.634,21.3c.844.171,1.116-.17,1.671-.694,1.651-1.562,1.853-3.406,1.795-5.514-.037-1.351-.5-1.6-1.69-1.56-2.391.075-4.787.022-7.181.022l-.188-.438M98.523,67.265c-6.216,0-12.433.023-18.649-.021-1.129-.008-1.524.29-1.343,1.459a20.362,20.362,0,0,0,1.349,4.942,20.129,20.129,0,0,0,38.572-4.94c.182-1.163-.123-1.471-1.281-1.462-6.216.048-12.432.022-18.649.022m-75.857,0c-6.217,0-12.433.019-18.649-.019-1.066-.006-1.536.153-1.354,1.4A20.187,20.187,0,0,0,25.307,85.958c8.707-1.075,16.18-8.422,17.254-16.878.172-1.35-.006-1.879-1.569-1.854-6.108.1-12.217.04-18.327.04M67.514,100.5a4.441,4.441,0,0,0,.13-.658q.006-17.709-.008-35.418a6.459,6.459,0,0,0-1.424-3.864,7.085,7.085,0,0,0-12.733,4.281q-.038,16.34-.012,32.681c0,.7.012,1.4,0,2.093-.011.6.106.894.829.648a19.2,19.2,0,0,1,13.218.237M22.664,64.748c4.183,0,8.366-.027,12.548.019,1.016.012,1.182-.264.809-1.165-.717-1.731-1.365-3.491-2.041-5.239Q28.935,45.327,23.887,32.294c-.223-.577-.338-1.2-1.244-1.213-.926-.015-1.006.613-1.232,1.2-4,10.336-7.987,20.682-12.04,31-.518,1.319-.188,1.511,1.067,1.492,4.075-.058,8.15-.022,12.226-.022m75.828,0c4.129,0,8.258-.03,12.386.018,1.156.013,1.357-.25.924-1.357Q105.72,47.848,99.718,32.256c-.2-.517-.226-1.142-1.08-1.174s-1.1.448-1.344,1.08c-.958,2.5-1.929,5-2.9,7.492-3.035,7.84-6.04,15.692-9.136,23.508-.568,1.434-.231,1.642,1.165,1.614,4.02-.081,8.043-.029,12.064-.029M48.18,107.164a8.762,8.762,0,0,0,1.011.149c2.947.009,5.895.024,8.842,0,.932-.008,1.61-.033,1.6,1.3-.011,1.28-.684,1.2-1.524,1.191-2.143-.016-4.287-.006-6.431-.005-1.608,0-3.216-.017-4.823.011-.7.012-2.124,1.744-1.909,2.412.273.844,1.093.4,1.638.4,9.431.032,18.863,0,28.295.047,1.407.007,1.485-.3.9-1.491A17.019,17.019,0,0,0,58.7,101.829a16.558,16.558,0,0,0-10.522,5.336m12.377,8.052q-11.507,0-23.014,0c-.778,0-1.636-.014-1.671,1.027-.037,1.114.825,1.22,1.688,1.211.214,0,.429,0,.644,0q22.371,0,44.741,0a10.411,10.411,0,0,0,1.286-.037,1.059,1.059,0,0,0,1.041-1.19.994.994,0,0,0-1.056-.991c-.428-.02-.858-.02-1.287-.02q-11.185,0-22.371,0m2.024-71.564c0-2.944.007-5.888,0-8.831,0-.9.227-1.976-.175-2.666-.388-.665-1.444.2-2.211-.03-.1-.03-.222,0-.318-.033-1.3-.5-1.351.234-1.346,1.242.028,6.422.014,12.846.014,19.268,0,2.65,0,2.58,2.641,2.734,1.18.069,1.441-.313,1.421-1.408-.059-3.424-.022-6.85-.021-10.276M65.46,24.625a4.938,4.938,0,0,0-4.853-4.964,4.952,4.952,0,1,0-.021,9.9,4.918,4.918,0,0,0,4.874-4.937M68.2,10.955c-2.609-2.591-4.887-4.842-7.148-7.11-.386-.388-.666-.4-1.063-.006-2.309,2.274-4.637,4.527-7.3,7.116ZM98.419,28.548a3,3,0,0,0,2.985-2.76A2.96,2.96,0,0,0,98.492,22.8a2.777,2.777,0,0,0-2.836,2.83,2.817,2.817,0,0,0,2.764,2.913M22.629,22.8a2.873,2.873,0,1,0,.09,5.743,2.821,2.821,0,0,0,2.757-2.921A2.784,2.784,0,0,0,22.629,22.8M60.458,13.52c-.569.345-1.713-.581-1.874.741a5.768,5.768,0,0,0,.141,2.812c.257.6,1.231-.107,1.891.029.415.085.839.126,1.259.185.266.038.611.076.64-.257a6.608,6.608,0,0,0-.095-3.145c-.305-.708-1.258-.181-1.962-.364" transform="translate(0 0)" fill="#3cd7f8"/>
    <path id="Trazado_3906" data-name="Trazado 3906" d="M67.515,86.6c.07.8-.726.718-1.178.978-.412.236-.884.489-1.165-.215q-2.492-6.246-4.994-12.487c-.321-.8.344-.942.8-1.065s1.1-.855,1.478.077c1.68,4.156,3.327,8.326,4.986,12.491.019.05.032.1.07.221" transform="translate(-26.63 -32.536)" fill="#3cd7f8"/>
    <path id="Trazado_3907" data-name="Trazado 3907" d="M151.141,75.2c-.45,1.005-.87,1.932-1.28,2.863-1.339,3.04-2.7,6.07-3.991,9.132-.355.843-.722,1.063-1.531.591-.634-.369-1.361-.439-.827-1.578,1.773-3.784,3.408-7.631,5.088-11.458.232-.527.448-1.047,1.148-.6.491.315,1.3.257,1.394,1.047" transform="translate(-63.514 -32.784)" fill="#3cd7f8"/>
    <path id="Trazado_3908" data-name="Trazado 3908" d="M159.549,63.674c-.114,1.281-1.638,3.759-2.02,3.539-.57-.328-1.616-.13-1.617-1.148,0-.978,1.533-3.4,1.967-3.238.631.238,1.428.305,1.669.846" transform="translate(-69.092 -27.838)" fill="#3cd7f8"/>
    <path id="Trazado_3909" data-name="Trazado 3909" d="M58.826,65.265a2.854,2.854,0,0,1,1.122,2.159c.107,1.042-1.188,1.2-1.734,1.154-1.078-.083-1.107-1.388-1.173-2.123-.075-.834,1.157-.652,1.785-1.19" transform="translate(-25.276 -28.922)" fill="#3cd7f8"/>
    <path id="Trazado_3910" data-name="Trazado 3910" d="M166.675,146.067a17.48,17.48,0,0,1-8.55-3.053c-.56-.375-1.119-.708-.4-1.46.524-.548.787-1.422,1.857-.614a13.706,13.706,0,0,0,7.294,2.657c1.227.1,1.517.536,1.429,1.66-.106,1.363-1.069.634-1.628.81" transform="translate(-69.744 -62.312)" fill="#3cd7f8"/>
    <path id="Trazado_3911" data-name="Trazado 3911" d="M153,135.022a3.868,3.868,0,0,1-1.625,1.362c-.3.117-1.935-1.982-1.759-2.29a2.862,2.862,0,0,1,1.8-1.179c.278-.084,1.628,1.718,1.588,2.107" transform="translate(-66.297 -58.9)" fill="#3cd7f8"/>
    <path id="Trazado_3912" data-name="Trazado 3912" d="M42.126,145.883c-.822-.009-1.615.29-1.591-.9.018-.873,0-1.457,1.2-1.545a14.318,14.318,0,0,0,7.877-2.923c1.057-.822,1.223.165,1.7.6.709.638.364,1.055-.261,1.49a17.238,17.238,0,0,1-8.93,3.284" transform="translate(-17.963 -62.127)" fill="#3cd7f8"/>
    <path id="Trazado_3913" data-name="Trazado 3913" d="M63.818,135.519c-.45-.491-1.294-.691-1.457-1.506-.086-.432,1.621-2.463,1.856-2.3.565.4,1.56.295,1.648,1.243.05.529-1.634,2.6-2.047,2.56" transform="translate(-27.633 -58.365)" fill="#3cd7f8"/>
    <path id="Trazado_3914" data-name="Trazado 3914" d="M106.446,140.938c0-2.844.035-5.689-.018-8.533-.019-1.01.233-1.435,1.336-1.411,1,.023,1.269.361,1.263,1.321q-.054,8.613,0,17.227c.006.962-.252,1.294-1.256,1.31-1.08.018-1.369-.347-1.347-1.383.06-2.843.021-5.688.021-8.533" transform="translate(-47.161 -58.049)" fill="#3cd7f8"/>
    <path id="Trazado_3915" data-name="Trazado 3915" d="M109,118.592c-.012,1.05.3,1.979-1.219,2-1.408.016-1.395-.718-1.344-1.689.047-.9-.307-1.907,1.309-1.887,1.476.018,1.285.871,1.255,1.58" transform="translate(-47.162 -51.853)" fill="#3cd7f8"/>
  </g>
</svg>