<svg xmlns="http://www.w3.org/2000/svg" width="60.485" height="43.608" viewBox="0 0 60.485 43.608">
  <g id="card_nosasnqhkxme" transform="translate(0 0)">
    <g id="Grupo_9043" data-name="Grupo 9043" transform="translate(0 0)">
      <g id="Grupo_9042" data-name="Grupo 9042">
        <path id="Trazado_4406" data-name="Trazado 4406" d="M55.932,71.43H14.2a4.558,4.558,0,0,0-4.553,4.552v4.136H4.553A4.558,4.558,0,0,0,0,84.67v25.814a4.558,4.558,0,0,0,4.553,4.553H46.289a4.558,4.558,0,0,0,4.552-4.553V106.35h5.091a4.558,4.558,0,0,0,4.552-4.552V75.982A4.558,4.558,0,0,0,55.932,71.43Zm-8.854,39.055a.79.79,0,0,1-.79.79H4.553a.791.791,0,0,1-.79-.79V84.67a.791.791,0,0,1,.79-.79H46.289a.79.79,0,0,1,.79.79Zm9.644-8.688a.79.79,0,0,1-.79.79H50.841V84.67a4.557,4.557,0,0,0-4.552-4.552H13.406V75.982a.791.791,0,0,1,.79-.79H55.932a.79.79,0,0,1,.79.79Z" transform="translate(0 -71.43)" fill="#3cd7f8"/>
        <path id="Trazado_4407" data-name="Trazado 4407" d="M94.427,293.508H63.112a1.411,1.411,0,1,0,0,2.822H94.427a1.411,1.411,0,0,0,0-2.822Z" transform="translate(-54.412 -267.273)" fill="#3cd7f8"/>
        <path id="Trazado_4408" data-name="Trazado 4408" d="M78.77,339.155H63.112a1.411,1.411,0,0,0,0,2.822H78.77a1.411,1.411,0,1,0,0-2.822Z" transform="translate(-54.412 -307.528)" fill="#3cd7f8"/>
        <path id="Trazado_4409" data-name="Trazado 4409" d="M65.937,203.074a4.236,4.236,0,1,0-4.236-4.235A4.241,4.241,0,0,0,65.937,203.074Zm0-5.649a1.414,1.414,0,1,1-1.414,1.414A1.416,1.416,0,0,1,65.937,197.425Z" transform="translate(-54.412 -180.052)" fill="#3cd7f8"/>
      </g>
    </g>
  </g>
</svg>
