<?xml version="1.0" encoding="UTF-8"?>
<svg id="Capa_2" data-name="Capa 2" xmlns="http://www.w3.org/2000/svg" viewBox="0 0 53.94 38.53">
  <g id="Capa_1-2" data-name="Capa 1">
    <g id="Layer_2" data-name="Layer 2">
      <path id="Trazado_3899" data-name="Trazado 3899" d="M48.16,0H5.78C2.59,0,0,2.59,0,5.78h0v26.97c0,3.19,2.59,5.78,5.78,5.78h42.38c3.19,0,5.78-2.59,5.78-5.78V5.78C53.94,2.59,51.35,0,48.16,0ZM46.87,3.85l-18.75,14.06c-.69.51-1.63.51-2.31,0L7.06,3.85h39.81ZM48.16,34.67H5.78c-1.06,0-1.93-.86-1.93-1.93V6.26l19.65,14.74c2.06,1.53,4.88,1.53,6.94,0l19.65-14.74v26.49c0,1.06-.86,1.93-1.93,1.93Z" style="fill: #fff; stroke-width: 0px;"/>
    </g>
  </g>
</svg>