<svg xmlns="http://www.w3.org/2000/svg" xmlns:xlink="http://www.w3.org/1999/xlink" width="100%" height="auto" viewBox="0 0 32.935 33.037">
  <defs>
    <clipPath id="clip-path">
      <rect id="Rectángulo_4789" data-name="Rectángulo 4789" width="32.935" height="33.037" fill="#003b5c" stroke="#003b5c" stroke-width="0.5"/>
    </clipPath>
  </defs>
  <g id="Grupo_9926" data-name="Grupo 9926" clip-path="url(#clip-path)">
    <path id="Trazado_6298" data-name="Trazado 6298" d="M27.725,13.2a13.824,13.824,0,0,1-3.28,9.283c-.254.3-.281.452.021.746,2.651,2.582,5.283,5.184,7.92,7.781.092.09.186.178.27.276a1.021,1.021,0,0,1,0,1.4,1.055,1.055,0,0,1-1.436.127,3.523,3.523,0,0,1-.347-.319q-4-3.937-8-7.881a.393.393,0,0,0-.631-.043,13.824,13.824,0,0,1-8.853,2.8A13.718,13.718,0,0,1,.2,16,12.868,12.868,0,0,1,5.518,2.9,13.255,13.255,0,0,1,20.413,1.765,12.981,12.981,0,0,1,27.725,13.2M13.86,25.259A11.621,11.621,0,0,0,25.575,13.743,11.63,11.63,0,0,0,13.832,2.211,11.61,11.61,0,0,0,2.142,13.75,11.614,11.614,0,0,0,13.86,25.259" transform="translate(0 0)" fill="#003b5c"/>
  </g>
</svg>
