<svg xmlns="http://www.w3.org/2000/svg" xmlns:xlink="http://www.w3.org/1999/xlink" width="392" height="389" viewBox="0 0 392 389">
  <defs>
    <clipPath id="clip-path">
      <rect id="Selling1" data-name="Selling1" width="124.225" height="220.221" fill="none"/>
    </clipPath>
  </defs>
  <g id="Selling2" data-name="Selling2" fill="none">
    <path d="M196,0C304.248,0,392,87.081,392,194.5S304.248,389,196,389,0,301.919,0,194.5,87.752,0,196,0Z" stroke="none"/>
    <path d="M 196 20 C 98.95327758789062 20 20 98.28036499023438 20 194.5 C 20 290.7196350097656 98.95327758789062 369 196 369 C 293.0467224121094 369 372 290.7196350097656 372 194.5 C 372 98.28036499023438 293.0467224121094 20 196 20 M 196 0 C 304.247802734375 0 392 87.08065795898438 392 194.5 C 392 301.9193725585938 304.247802734375 389 196 389 C 87.75222778320312 389 0 301.9193725585938 0 194.5 C 0 87.08065795898438 87.75222778320312 0 196 0 Z" stroke="none" fill="#fff"/>
  </g>
  <g id="Selling3" data-name="Selling3" transform="translate(135.387 84.389)">
    <g id="Selling4" data-name="Selling4" clip-path="url(#clip-path)">
      <path id="Selling5" data-name="Selling5" d="M61.076,220.214c-3.823,0-7.644.019-11.465-.006-4.158-.024-5.665-1.5-5.7-5.725-.05-5.35-.141-10.7.044-16.049.084-2.458-.678-3.21-3.135-3.475-12.779-1.381-25.163-4.327-36.772-10.053-4.11-2.027-4.669-3.187-3.521-7.717q3.509-13.86,7.051-27.711c.94-3.675,3.582-5,6.932-3.264,10.092,5.222,20.659,8.9,32.008,10.069,7.539.779,15.071,1.16,22.261-1.988,8.067-3.532,9.471-11.472,2.989-17.424-4.592-4.217-10.344-6.409-16.09-8.5-11.385-4.139-22.744-8.211-33.025-14.906C-7.782,93.652-4.13,51.4,24.375,33.953a59.432,59.432,0,0,1,17.814-7.594c2.5-.567,3.3-1.694,3.193-4.289-.234-5.628-.1-11.271-.06-16.909.026-3.566,1.5-5.1,5.028-5.124q11.9-.075,23.79,0c3.506.021,5.059,1.591,5.1,5.1.057,4.585.016,9.171.017,13.758,0,4.158,0,4.145,4.012,4.508a93.588,93.588,0,0,1,30.281,7.973c3.367,1.52,4.054,2.954,3.106,6.581q-3.541,13.556-7.14,27.1c-1.059,3.989-3.481,5.192-7.33,3.378a79.687,79.687,0,0,0-28.795-7.9c-6.041-.4-12.055-.6-17.721,1.98-7.023,3.2-7.861,9.948-1.8,14.662,5.8,4.512,12.642,7.03,19.418,9.6,9.186,3.484,18.271,7.08,26.859,11.991,33.307,19.051,31.3,67.844-1.362,86.191a64.583,64.583,0,0,1-18,7.144c-1.9.412-2.626,1.183-2.579,3.236.147,6.4.081,12.8.043,19.2-.026,4.207-1.507,5.652-5.708,5.676-3.823.021-7.644,0-11.465,0M52.654,200.6c0,2.962.068,5.926-.027,8.884-.053,1.611.489,2.169,2.127,2.129,4.106-.1,8.22-.144,12.322.016,2.092.08,2.542-.7,2.51-2.624-.1-6.3-.078-12.611-.017-18.915.03-3.271,1.3-4.676,4.432-5.359,2.512-.547,5.047-1.033,7.511-1.753,19.973-5.826,35.363-20.873,33.816-45.21-.68-10.7-4.7-19.728-13-26.742-7.651-6.463-16.69-10.236-25.9-13.742C67.61,93.926,58.646,90.877,50.7,85.6c-6.26-4.155-10.666-9.355-9.341-17.525,1.232-7.6,6.09-12,13.061-14.484A36.335,36.335,0,0,1,65.945,51.66,80.651,80.651,0,0,1,99.728,57.91c1.787.765,2.577.767,3.09-1.459,1.222-5.289,2.7-10.522,4.243-15.728.6-2.023.036-2.8-1.9-3.5a93.007,93.007,0,0,0-28.8-5.618c-4.276-.141-5.735-1.7-5.752-6.055-.019-4.871-.064-9.746.027-14.615.033-1.667-.319-2.382-2.186-2.318-4.1.141-8.218.138-12.322,0-1.856-.063-2.227.645-2.2,2.32.088,5.253.036,10.508.031,15.762,0,4.964-.972,6.067-5.9,7.088a59.219,59.219,0,0,0-20.745,8.581C6.558,56.022,2.967,88.7,25.246,104.582c8.184,5.833,17.221,9.754,26.584,13.117,8.076,2.9,16.247,5.6,23.346,10.652,6.486,4.615,9.981,10.731,9.151,18.826-.759,7.407-5.334,12.1-11.8,15-6.285,2.822-13.037,3.576-19.866,3.338a93.973,93.973,0,0,1-35.684-8.46c-1.654-.748-2.244-.6-2.693,1.274q-2.026,8.478-4.447,16.859c-.621,2.149.085,2.961,2.016,3.757a110.683,110.683,0,0,0,35.577,7.923c3.673.234,5.108,1.74,5.2,5.424.067,2.768.013,5.541.02,8.311" transform="translate(0 0)" fill="#fff"/>
    </g>
  </g>
</svg>
